<svg aria-hidden="true" focusable="false" preserveAspectRatio="xMinYMid meet" xmlns="http://www.w3.org/2000/svg" width="50" height="50" viewBox="0 0 50 50" tabindex="-1"><path d="M36.78843,6.19153c-.25366,0-.50219.02-.75146.037A10.90976,10.90976,0,0,0,21.34654,4.69836a10.21047,10.21047,0,0,0-3.9292,10.28125l-3.06445,2.30274a.79764.79764,0,0,0-.313.53613l-.3916,3.00391-3.12354-.38477a.80379.80379,0,0,0-.89111.69043l-.39356,3.00488-3.124-.38378a.80322.80322,0,0,0-.57812.15429l-1.47657,1.1084a.80306.80306,0,0,0-.30224.47363l-1.2085,5.69336a.80041.80041,0,0,0,.74463.96485l5.99023.28515c.0127.001.02539.001.03809.001a.79828.79828,0,0,0,.48047-.16016L23.5775,21.923a.8.8,0,1,0-.96094-1.27929L9.07359,30.8175l-4.76221-.22656.95069-4.47949.979-.73535,3.59131.4414a.79884.79884,0,0,0,.89111-.69042l.39356-3.00489,3.124.38477a.80211.80211,0,0,0,.89111-.69043l.45069-3.457,3.21435-2.415a.8002.8002,0,0,0,.29248-.84571,8.60847,8.60847,0,0,1,3.21778-9.12109,9.31671,9.31671,0,0,1,11.80114.55774,10.44183,10.44183,0,0,0-7.99987,10.02918A10.34268,10.34268,0,0,0,32.08726,25.88v3.752a.79723.79723,0,0,0,.24317.57422l2.19531,2.12695L32.33043,34.462a.79955.79955,0,0,0,0,1.14843l2.19531,2.12793-2.19531,2.12891a.79721.79721,0,0,0-.24317.57422v1.81055a.80071.80071,0,0,0,.20069.53027l3.90136,4.41113a.80065.80065,0,0,0,1.19825,0l3.90185-4.41113a.8007.8007,0,0,0,.20068-.53027V25.88a10.3436,10.3436,0,0,0,5.97657-9.31542A10.54076,10.54076,0,0,0,36.78843,6.19153Zm3.59375,18.43164a.79912.79912,0,0,0-.4917.73828V41.94934l-3.102,3.50684-3.10156-3.50684V40.7804l2.54492-2.46778a.79956.79956,0,0,0,0-1.14844l-2.19531-2.12793,2.19531-2.1289a.79956.79956,0,0,0,0-1.14844l-2.54492-2.46582V25.36145a.79912.79912,0,0,0-.4917-.73828,8.77006,8.77006,0,0,1-5.48681-8.05859,9.08468,9.08468,0,0,1,18.15869,0A8.76972,8.76972,0,0,1,40.38218,24.62317Z" fill="#2d2d2d" tabindex="-1" focusable="false"></path><path d="M36.78917,10.7644a1.96117,1.96117,0,1,0,2.02978,1.96A1.999,1.999,0,0,0,36.78917,10.7644Z" fill="#2d2d2d" tabindex="-1" focusable="false"></path></svg>