<svg aria-hidden="true" focusable="false" preserveAspectRatio="xMinYMid meet" xmlns="http://www.w3.org/2000/svg" width="50" height="50" viewBox="0 0 50 50" tabindex="-1"><path d="M27.98636,28.53809a9.985,9.985,0,0,1-3.87256-.78223.80062.80062,0,0,1-.47851-.87207l1.55029-9.06445a.7999.7999,0,0,1,.34424-.53028.7906.7906,0,0,1,.62158-.11523l5.1001,1.15722a.80078.80078,0,0,1,.52539,1.16211c-.01612.03125-1.63574,3.07715-.47119,5.56055a2.388,2.388,0,0,1-1.833,3.37207A9.86163,9.86163,0,0,1,27.98636,28.53809Zm-2.6626-2.03418a8.39089,8.39089,0,0,0,3.91846.33886.8205.8205,0,0,0,.22949-.06738.78791.78791,0,0,0,.3833-1.0459,7.9183,7.9183,0,0,1,.0918-6.05371l-3.32666-.75488Z" fill="#2d2e2d" tabindex="-1" focusable="false"></path><path d="M20.91771,45.35513l7.19-27.40135-8.62744,1.99693L14.84663,42.6382Z" fill="#fff" tabindex="-1" focusable="false"></path><path d="M20.91751,46.15527a.80945.80945,0,0,1-.32666-.06933l-6.0708-2.7168a.80007.80007,0,0,1-.457-.89062l4.6333-22.6875a.79915.79915,0,0,1,.60352-.61914l8.62744-1.99708a.79993.79993,0,0,1,.9541.98243L21.69144,45.55859a.7997.7997,0,0,1-.42822.51856A.80853.80853,0,0,1,20.91751,46.15527ZM15.75882,42.1709l4.62451,2.06933,6.61426-25.208-6.83642,1.582Z" fill="#2d2e2d" tabindex="-1" focusable="false"></path><path d="M43.99907,14.24716c.68613-3.16473,1.69714-8.04417,2.091-11.03079a.43276.43276,0,0,0-.52056-.47665C23.873,7.30055,10.79507,13.18849,7.69933,14.6749A1.86521,1.86521,0,0,0,6.736,15.76744L3.92623,24.15781a.40641.40641,0,0,0,.46035.52432L12.422,23.16185a1.6733,1.6733,0,0,1,1.958,1.938L11.16636,43.16a1.39861,1.39861,0,0,0,1.07,1.61059l10.81253,2.4623a1.46884,1.46884,0,0,0,1.3547-2.48111l-6.62173-6.495L20.65806,24.7461a5.025,5.025,0,0,1,3.98006-3.8885l15.60541-2.949a4.74269,4.74269,0,0,0,3.75428-3.65644Z" fill="#fff" tabindex="-1" focusable="false"></path><path d="M23.376,48.06934a2.30119,2.30119,0,0,1-.50537-.05664l-10.812-2.46192a2.19367,2.19367,0,0,1-1.67969-2.53125L13.59232,24.959a.88357.88357,0,0,0-.00147-.3164.87123.87123,0,0,0-1.02-.69434L4.53568,25.46875a1.25562,1.25562,0,0,1-.59131-.03809,1.20573,1.20573,0,0,1-.7793-1.51855l2.812-8.39844a2.68235,2.68235,0,0,1,1.376-1.56055c3.47412-1.668,16.48633-7.46289,38.05176-11.99707a1.2335,1.2335,0,0,1,1.479,1.36036c-.38916,2.95019-1.3584,7.66406-2.103,11.10058-.00439.01953-.00927.04-.01562.05957l-.00147.00489a5.50259,5.50259,0,0,1-4.37158,4.21289L24.78665,21.64355a4.21686,4.21686,0,0,0-3.34619,3.26954L18.65579,37.99316l6.30762,6.1875a2.26851,2.26851,0,0,1-1.5874,3.88868ZM12.73831,22.332a2.47338,2.47338,0,0,1,2.4292,2.9082L11.95413,43.2998a.5977.5977,0,0,0,.45752.69043l10.81494,2.46192a.67167.67167,0,0,0,.80127-.50293.66482.66482,0,0,0-.18457-.626l-6.62158-6.49512a.7989.7989,0,0,1-.22217-.73828L19.876,24.5791a5.81345,5.81345,0,0,1,4.61328-4.50781l15.606-2.94922a3.93387,3.93387,0,0,0,3.1206-3.03906l.00147-.00586c.6958-3.209,1.58838-7.53906,2.00781-10.44727C24.14163,8.10938,11.45218,13.76074,8.04544,15.39551a1.07527,1.07527,0,0,0-.55078.625l-2.59521,7.751L12.273,22.376A2.50978,2.50978,0,0,1,12.73831,22.332Z" fill="#2d2e2d" tabindex="-1" focusable="false"></path><path d="M6.32083,18.59668a.79994.79994,0,0,1-.21191-1.57129L24.52347,11.9541a3.28925,3.28925,0,0,0,2.26758-2.25586L27.51126,7.167a.8.8,0,0,1,1.53907.4375l-.72022,2.53125a4.89917,4.89917,0,0,1-3.37988,3.36035L6.53372,18.56836A.80294.80294,0,0,1,6.32083,18.59668Z" fill="#2d2e2d" tabindex="-1" focusable="false"></path><path d="M4.82279,22.2793A.79963.79963,0,0,1,4.61331,20.708c19.85157-5.40137,39.62452-10.12989,39.82227-10.17676a.80013.80013,0,1,1,.37109,1.55664c-.19677.04688-19.94629,4.76953-39.77343,10.16309A.78536.78536,0,0,1,4.82279,22.2793Z" fill="#2d2e2d" tabindex="-1" focusable="false"></path></svg>