<svg xmlns="http://www.w3.org/2000/svg" xmlns:xlink="http://www.w3.org/1999/xlink" width="410" height="172" viewBox="0 0 410 172"><defs><clipPath id="a"><path d="M3370.464,2702.949l106.208-121.8a5.416,5.416,0,0,1,7.764-.413l63.254,58.624,75.507-63.577-10.976,127.09Z" transform="translate(-3370.464 -2575.787)" fill="none"/></clipPath><clipPath id="b"><path d="M3045.2,3025.623a31.726,31.726,0,0,0-60.39.019Z" transform="translate(-2984.807 -3003.642)" fill="none"/></clipPath><clipPath id="c"><path d="M3424.5,2960.439l-11.346-2.934c-7.662-1.982-7.149-6.472-11.965-12.752l-9.648-15.75-54.069.017a12.7,12.7,0,0,0-10.261,5.22l-15.391,21.111a15,15,0,0,1-10.79,6.1l-16.584,1.478a15.44,15.44,0,0,0-14.069,15.384l0,8.233a6.061,6.061,0,0,0,6.063,6.058h6.789l36.611-.011,62.325-.02,28.446-.009v-.078a15.994,15.994,0,0,0,6.837-2.3l7.778-4.8a8.335,8.335,0,0,0,3.96-7.1l0-11.8A6.249,6.249,0,0,0,3424.5,2960.439Z" transform="translate(-3270.377 -2929.002)" fill="none"/></clipPath><clipPath id="d"><rect width="102.264" height="27.338" fill="none"/></clipPath><clipPath id="e"><path d="M4.5,0H9.97a0,0,0,0,1,0,0V7.539a0,0,0,0,1,0,0H3.037A3.037,3.037,0,0,1,0,4.5v0A4.5,4.5,0,0,1,4.5,0Z" fill="none"/></clipPath><clipPath id="f"><path d="M3705,2962.118l-4.083-10.137a17.339,17.339,0,0,0-16.089-10.861l-25.235.008a11.142,11.142,0,0,0-9,4.578l-10.735,14.726,9.265,0a4.02,4.02,0,1,1,0,8.041l51.6-.016A4.612,4.612,0,0,0,3705,2962.118Z" transform="translate(-3639.862 -2941.12)" fill="none"/></clipPath><clipPath id="h"><rect width="138.437" height="90.842" fill="none"/></clipPath><clipPath id="j"><rect width="410" height="172"/></clipPath></defs><g id="i" clip-path="url(#j)"><g transform="translate(-2961.807 -2566.544)"><g transform="translate(3066.468 2588.922)"><g transform="translate(0 0)"><path d="M3296.423,2665.345a14.246,14.246,0,0,1,23.129-6.055,17.876,17.876,0,0,1,31.015,3.8,14.247,14.247,0,0,1,26.089,2.255Z" transform="translate(-3296.423 -2651.936)" fill="#ddecf6"/></g></g><g transform="translate(3214.086 2566.544)"><g transform="translate(0 0)"><path d="M3915.017,2578.145a14.754,14.754,0,0,0-17.069-1.945,22.553,22.553,0,0,0-38.216,1.945Z" transform="translate(-3859.732 -2566.544)" fill="#ddecf6"/></g></g><g transform="translate(3085.871 2568.966)"><g transform="translate(0 0)"><path d="M3370.464,2702.949l106.208-121.8a5.416,5.416,0,0,1,7.764-.413l63.254,58.624,75.507-63.577-10.976,127.09Z" transform="translate(-3370.464 -2575.787)" fill="#ddecf6"/></g><g transform="translate(0 0)"><g clip-path="url(#a)"><g transform="translate(79.257 -9.043)"><path d="M3672.906,2586.595l13.831-4.979a11.965,11.965,0,0,1,13.763,4.266l13.737,19.078,4.3-11.231a11.965,11.965,0,0,1,16.83-6.261l16.59,8.9-24.356-54.591-30.928-.5Z" transform="translate(-3672.906 -2541.28)" fill="#fff"/></g></g></g></g><g transform="translate(2984.807 2684.543)"><g transform="translate(0 0)"><path d="M3045.2,3025.623a31.726,31.726,0,0,0-60.39.019Z" transform="translate(-2984.807 -3003.642)" fill="#08caa8"/></g></g><g transform="translate(2984.807 2681.088)"><g transform="translate(0 3.455)" clip-path="url(#b)"><g transform="translate(5.462 -5.401)"><g transform="translate(0 8.544)"><g transform="translate(0 0)"><path d="M0,0H.48L.43,32.867h-.48Z" transform="matrix(0.767, -0.641, 0.641, 0.767, 0, 0.308)" fill="#057463"/></g></g><g transform="translate(19.391 0)"><path d="M0,0H.479L.455,33.024H-.024Z" transform="matrix(0.968, -0.252, 0.252, 0.968, 0, 0.121)" fill="#057463"/></g><g transform="translate(32.634 3.49)"><g transform="translate(0 0)"><path d="M0,0,30.118-.028V.451L0,.479Z" transform="translate(0 28.456) rotate(-70.82)" fill="#057463"/></g></g></g><g transform="translate(-0.272 14.596)"><g transform="translate(0 0)"><rect width="0.476" height="16.81" transform="matrix(0.088, -0.996, 0.996, 0.088, 0, 0.479)" fill="#057463"/></g></g></g></g><g transform="translate(3064.642 2661.519)"><g transform="translate(15.865 45.213)"><g transform="translate(0 0.051)"><path d="M3348.347,3101.691h0l-6.545,0h0c-6.013,0-10.886,7.113-10.883,15.883s4.88,15.878,10.893,15.876h0l6.545,0h0c6.013,0,10.886-7.113,10.883-15.883S3354.36,3101.689,3348.347,3101.691Z" transform="translate(-3330.919 -3101.691)" fill="#0a335f"/><g transform="translate(10.123 5.218)"><ellipse cx="7.31" cy="10.662" rx="7.31" ry="10.662" fill="#2861a4"/></g><g transform="translate(10.123 5.218)"><path d="M3376.855,3125.2c3.616,0,6.613,3.832,7.2,8.863a15.456,15.456,0,0,0,.111-1.8c0-5.888-3.276-10.661-7.314-10.66s-7.309,4.776-7.307,10.665a15.51,15.51,0,0,0,.112,1.8C3370.245,3129.033,3373.239,3125.2,3376.855,3125.2Z" transform="translate(-3369.547 -3121.602)" fill="#8ed8f1"/></g></g><g transform="translate(88.404)"><path d="M3685.58,3101.5h0l-6.545.05h0c-6.013.046-10.833,7.193-10.766,15.963s5,15.842,11.009,15.8h0l6.545-.05h0c6.013-.046,10.833-7.193,10.766-15.963S3691.593,3101.449,3685.58,3101.5Z" transform="translate(-3668.268 -3101.495)" fill="#0a335f"/><g transform="translate(10.041 5.162)"><ellipse cx="7.31" cy="10.662" rx="7.31" ry="10.662" transform="translate(0 0.112) rotate(-0.439)" fill="#2861a4"/></g><g transform="translate(10.123 5.218)"><path d="M3714.153,3125c3.616-.028,6.641,3.783,7.266,8.81a15.446,15.446,0,0,0,.1-1.8c-.045-5.888-3.355-10.637-7.392-10.606s-7.273,4.829-7.229,10.718a15.512,15.512,0,0,0,.125,1.8C3707.57,3128.885,3710.536,3125.028,3714.153,3125Z" transform="translate(-3706.896 -3121.406)" fill="#8ed8f1"/></g></g></g><g transform="translate(0 0.01)"><path d="M3424.5,2960.439l-11.346-2.934c-7.662-1.982-7.149-6.472-11.965-12.752l-9.648-15.75-54.069.017a12.7,12.7,0,0,0-10.261,5.22l-15.391,21.111a15,15,0,0,1-10.79,6.1l-16.584,1.478a15.44,15.44,0,0,0-14.069,15.384l0,8.233a6.061,6.061,0,0,0,6.063,6.058h6.789l36.611-.011,62.325-.02,28.446-.009v-.078a15.994,15.994,0,0,0,6.837-2.3l7.778-4.8a8.335,8.335,0,0,0,3.96-7.1l0-11.8A6.249,6.249,0,0,0,3424.5,2960.439Z" transform="translate(-3270.377 -2929.002)" fill="#8ed8f1"/></g><g transform="translate(0 0.01)"><g clip-path="url(#c)"><g transform="translate(-2.591 57.722)"><path d="M3260.49,3155.153l3.548-3.242a10.065,10.065,0,0,1,6.787-2.635l26.916-.008a12.781,12.781,0,0,1,7.2,2.217l5.366,3.654Z" transform="translate(-3260.49 -3149.267)" fill="#4ebee4"/></g><g transform="translate(-6.569 30.545)"><rect width="96.803" height="6.721" fill="#ddecf6"/></g><g transform="translate(15.852 3.199)"><rect width="102.264" height="27.338" fill="#269eda"/></g><g transform="translate(15.852 3.199)"><g clip-path="url(#d)"><g transform="translate(-10.091 7.687)"><path d="M3292.359,2977.522c8.093-6.087,19-8.7,28.7-5.791,4.489,1.345,8.563,3.771,12.838,5.69,6.782,3.046,14.407,4.832,21.685,3.309,4.157-.87,8.013-2.773,11.99-4.265,7.3-2.738,15.371-4.095,22.92-2.15s14.411,7.67,16.179,15.263l.048,12.811-112.848.035Z" transform="translate(-3292.359 -2970.541)" fill="#4ebee4"/></g></g></g><g transform="translate(-10.615 37.279)"><rect width="21.225" height="7.498" rx="3.749" fill="#fff"/></g><g transform="translate(0.726 38.389)"><rect width="7.25" height="4.972" rx="2.486" fill="#feb854"/></g></g></g><g transform="translate(58.443 38.362)"><rect width="128.744" height="25.217" fill="#0a335f"/><g transform="translate(4.508 6.888)"><path d="M3528.026,3101.635h0l-6.545,0h0c-6.013,0-10.886,7.113-10.883,15.883s4.879,15.878,10.893,15.876h0l6.545,0h0c6.013,0,10.886-7.113,10.883-15.883S3534.04,3101.633,3528.026,3101.635Z" transform="translate(-3510.598 -3101.635)" fill="#0a335f"/><g transform="translate(10.123 5.218)"><ellipse cx="7.31" cy="10.662" rx="7.31" ry="10.662" fill="#f4f9fd"/></g><g transform="translate(10.123 5.218)"><path d="M3556.534,3125.14c3.616,0,6.613,3.832,7.2,8.863a15.512,15.512,0,0,0,.112-1.8c0-5.888-3.277-10.661-7.314-10.66s-7.309,4.776-7.307,10.665a15.456,15.456,0,0,0,.112,1.8C3549.924,3128.977,3552.918,3125.142,3556.534,3125.14Z" transform="translate(-3549.226 -3121.546)" fill="#8ed8f1"/></g><g transform="translate(14.817 12.134)"><path d="M3569.756,3155.43a2.294,2.294,0,0,1-1.867-1.118,4.986,4.986,0,0,1,0-5.255,2.294,2.294,0,0,1,1.867-1.119h0c1.442,0,2.616,1.679,2.616,3.745h0c0,2.065-1.173,3.746-2.615,3.747Zm0-7.189h0a2,2,0,0,0-1.618.988,4.688,4.688,0,0,0,0,4.912,2,2,0,0,0,1.617.987h0c1.275,0,2.313-1.545,2.312-3.444S3571.03,3148.241,3569.755,3148.241Z" transform="translate(-3567.14 -3147.938)" fill="#8ed8f1"/></g></g><g transform="translate(92.913 6.836)"><path d="M3865.259,3101.439h0l-6.545.05h0c-6.013.046-10.833,7.193-10.766,15.962s5,15.842,11.009,15.8h0l6.545-.05h0c6.013-.046,10.833-7.193,10.766-15.963S3871.272,3101.393,3865.259,3101.439Z" transform="translate(-3847.947 -3101.439)" fill="#0a335f"/><g transform="translate(10.041 5.162)"><ellipse cx="7.31" cy="10.662" rx="7.31" ry="10.662" transform="translate(0 0.112) rotate(-0.439)" fill="#f4f9fd"/></g><g transform="translate(10.123 5.218)"><path d="M3893.832,3124.944c3.616-.028,6.641,3.783,7.266,8.81a15.4,15.4,0,0,0,.1-1.8c-.045-5.888-3.354-10.637-7.392-10.606s-7.273,4.829-7.228,10.718a15.459,15.459,0,0,0,.125,1.8C3887.249,3128.829,3890.215,3124.972,3893.832,3124.944Z" transform="translate(-3886.575 -3121.35)" fill="#8ed8f1"/></g><g transform="translate(14.817 12.133)"><path d="M3907.119,3155.232c-1.436,0-2.614-1.667-2.631-3.726s1.145-3.755,2.587-3.766h.015c1.436,0,2.615,1.667,2.63,3.726h0c.016,2.065-1.145,3.755-2.587,3.766Zm-.029-7.189h-.012c-1.276.01-2.3,1.563-2.287,3.461s1.054,3.436,2.339,3.425,2.3-1.562,2.287-3.46h0C3909.4,3149.576,3908.36,3148.043,3907.09,3148.043Z" transform="translate(-3904.488 -3147.74)" fill="#8ed8f1"/></g></g></g><g transform="translate(48.221 0)"><path d="M3608.03,2960.9l-10.866-3.44a35.454,35.454,0,0,1-19.256-12.75l-7.654-9.98a14.731,14.731,0,0,0-11.7-5.767l-37.077.011a12.7,12.7,0,0,0-10.261,5.22l-15.391,21.111a15,15,0,0,1-10.79,6.1l-16.584,1.478a15.44,15.44,0,0,0-14.069,15.384l0,8.232a6.06,6.06,0,0,0,6.062,6.059l6.789,0a4.3,4.3,0,0,0,4.3-4.3h0a14.006,14.006,0,0,1,14-14.01h0a14.006,14.006,0,0,1,14.011,14h0a4.3,4.3,0,0,0,4.3,4.3l52.6-.016a4.3,4.3,0,0,0,4.3-4.3h0a14.006,14.006,0,0,1,14-14.011h0a14.006,14.006,0,0,1,14.01,14h0a4.3,4.3,0,0,0,4.3,4.3h0c2.964,0,3.44-.825,5.963-2.381l7.778-4.8a8.334,8.334,0,0,0,3.96-7.1l0-13.818A3.646,3.646,0,0,0,3608.03,2960.9Z" transform="translate(-3454.387 -2928.965)" fill="#fff"/></g><g transform="translate(194.629 37.227)"><path d="M4.5,0H9.97a0,0,0,0,1,0,0V7.539a0,0,0,0,1,0,0H3.037A3.037,3.037,0,0,1,0,4.5v0A4.5,4.5,0,0,1,4.5,0Z" fill="#fe527a"/></g><g transform="translate(194.629 37.227)"><g clip-path="url(#e)"><g transform="translate(-0.672 3.761)"><path d="M4011.183,3085.426l9.98-.053-.009,3.777-10.643.095Z" transform="translate(-4010.511 -3085.372)" fill="#feb854"/></g></g></g><g transform="translate(130.384 4.387)"><rect width="53.937" height="0.243" transform="matrix(0.116, -0.993, 0.993, 0.116, 0, 53.574)" fill="#ddecf6"/></g><g transform="translate(96.826 3.184)"><path d="M3707.921,2962.115l-4.083-10.137a17.34,17.34,0,0,0-16.089-10.861l-28.151.009a11.142,11.142,0,0,0-9,4.578l-10.735,14.726,9.265,0a4.021,4.021,0,1,1,0,8.041l54.515-.017A4.612,4.612,0,0,0,3707.921,2962.115Z" transform="translate(-3639.862 -2941.116)" fill="#269eda"/></g><g transform="translate(96.826 3.185)"><g clip-path="url(#f)"><g transform="translate(-12.457 -6.134)"><path d="M3645.045,2922.189l-3.583,30.716-49.135.015,18.815-29.061,14.935-6.146Z" transform="translate(-3592.327 -2917.713)" fill="#2861a4"/></g><g transform="translate(16.826 10.225)"><rect width="14.372" height="6.902" rx="3.451" fill="#f5003a"/></g><g transform="translate(19.376 18.663)"><path d="M3714.028,3012.343l11.277,0a3.939,3.939,0,0,1,3.878,4.631l-1.731,9.69-13.652,0Z" transform="translate(-3713.799 -3012.339)" fill="#f5003a"/></g><g transform="translate(-0.897 4.248)"><g transform="translate(6.437 14.23)"><path d="M3675.789,3011.632l-2.579.268a8.846,8.846,0,0,0-3.6,1.192L3661,3018.2l6.493,4.055,10.454-6.928Z" transform="translate(-3661.002 -3011.632)" fill="#07a587"/></g><g transform="translate(14.139)"><g transform="translate(0 0.477)"><g transform="translate(0 2.482)"><path d="M3697.972,2974.861l-.053-.5-.221.023a.985.985,0,0,1-1.083-.875l-.263-2.481a1.013,1.013,0,0,1-1.114-.9l-.159-1.5a3.28,3.28,0,0,1-2.658.134,3.832,3.832,0,0,0-.331,1.4l-.137,1.416a3.813,3.813,0,0,1-.751,1.929l-.645.855a.572.572,0,0,0,.13.9l.774.245.157,1.8a1.911,1.911,0,0,0,1.8,1.479l1.307.015,1.345,4.8,5.059-4.47-.336-.989-1.043-.58A3.5,3.5,0,0,1,3697.972,2974.861Z" transform="translate(-3690.395 -2968.621)" fill="#ff8a3a"/></g><g transform="translate(2.024)"><path d="M3708.163,2962.188h0a5.437,5.437,0,0,0-6.063-2.906l-1.31.293a3.843,3.843,0,0,0-2.673,2.192,3.281,3.281,0,0,0,2.658-.134l.159,1.5a1.013,1.013,0,0,0,1.114.9l.263,2.481a.985.985,0,0,0,1.083.875l.221-.024.053.5a3.5,3.5,0,0,0,1.78,2.69l1.043.58,1.621-3.164A6.453,6.453,0,0,0,3708.163,2962.188Z" transform="translate(-3698.117 -2959.15)" fill="#0a335f"/></g></g><g transform="translate(1.987)"><g transform="translate(12.528 6.895)"><path d="M3745.784,2983.642" transform="translate(-3745.784 -2983.642)" fill="none" stroke="#d7f2f8" stroke-miterlimit="10" stroke-width="1.438"/></g><path d="M3697.977,2957.329" transform="translate(-3697.977 -2957.329)" fill="none" stroke="#d7f2f8" stroke-miterlimit="10" stroke-width="1.438"/></g><g transform="translate(2.111 9.753)"><path d="M3698.637,2995.736a.188.188,0,0,1-.031-.374,1.654,1.654,0,0,0,1.213-.745.189.189,0,0,1,.3.232,2.037,2.037,0,0,1-1.448.884Z" transform="translate(-3698.449 -2994.545)" fill="#bf5710"/></g><g transform="translate(6.446 7.793)"><circle cx="1.313" cy="1.313" r="1.313" fill="#ff8a3a"/></g><g transform="translate(4.332 13.124)"><path d="M3706.927,3007.412h1.037l-.727,1.107Z" transform="translate(-3706.927 -3007.411)" fill="#bf5710"/></g><g transform="translate(2.208 6.343)"><path d="M3699.021,2981.534a2.37,2.37,0,0,1,1.749,1.17,2.4,2.4,0,0,1-1.8.263A1.5,1.5,0,0,1,3699.021,2981.534Z" transform="translate(-3698.819 -2981.534)" fill="#fff"/><g transform="translate(0)"><path d="M3699.564,2981.671a1.874,1.874,0,0,0-.542-.137,1.505,1.505,0,0,0-.047,1.433,1.983,1.983,0,0,0,.545.07,1.02,1.02,0,0,0,.256-.784A1.1,1.1,0,0,0,3699.564,2981.671Z" transform="translate(-3698.82 -2981.534)" fill="#0a335f"/></g></g><g transform="translate(2.498 4.835)"><path d="M3702.053,2977.476a.189.189,0,0,1-.175-.119,1.989,1.989,0,0,0-1.771-1.2.189.189,0,0,1-.179-.2.191.191,0,0,1,.2-.179,2.367,2.367,0,0,1,2.1,1.438.188.188,0,0,1-.106.244A.185.185,0,0,1,3702.053,2977.476Z" transform="translate(-3699.926 -2975.78)" fill="#292852"/></g></g><g transform="translate(19.354 13.395)"><path d="M3715.794,3008.445h0a8.127,8.127,0,0,1,5.828,6.044l3.411,14.951-14.529,0-.21-17.088Z" transform="translate(-3710.293 -3008.445)" fill="#08caa8"/></g><g transform="translate(19.465 24.202)"><path d="M3710.717,3051.8l4.482-2.115-4.388,6.039Z" transform="translate(-3710.717 -3049.685)" fill="#be4ec4"/></g><g transform="translate(13.605 13.395)"><path d="M3699.605,3008.445l-11.25,8,3.112,6.218,7.882-3.72Z" transform="translate(-3688.355 -3008.445)" fill="#08caa8"/></g><g transform="translate(0 21.397)"><path d="M3650.045,3038.978l-5.144,3.658-8.461,0v4.072l6.754,1.358a9.254,9.254,0,0,0,5.48-.758l4.481-2.115Z" transform="translate(-3636.44 -3038.978)" fill="#08caa8"/></g></g></g></g><g transform="translate(96.826 3.185)"><g clip-path="url(#f)"><g transform="translate(33.196 -2.783)"><rect width="61.085" height="0.243" transform="matrix(0.116, -0.993, 0.993, 0.116, 0, 60.675)" fill="#269eda"/></g></g></g><g transform="translate(90.934 30.536)"><path d="M3617.378,3045.493l10.248,0,.3.324a3.769,3.769,0,0,1-2.77,6.323h0a3.767,3.767,0,0,1-2.772-1.214Z" transform="translate(-3617.378 -3045.49)" fill="#ddecf6"/></g><g transform="translate(10.497 42.772)"><rect width="26.28" height="10.812" rx="5.406" fill="#0a335f"/></g><g transform="translate(16.631 55.389)"><rect width="12.167" height="4.328" fill="#fff"/></g><g transform="translate(38.538 37.274)"><rect width="21.225" height="7.498" rx="3.749" fill="#fff"/><g transform="translate(2.43 1.112)"><rect width="7.25" height="4.972" rx="2.486" fill="#feb854"/></g></g><g transform="translate(121.303 33.123)"><path d="M3734.732,3058.29a1.464,1.464,0,0,1,0-2.927l5.642,0h0a1.464,1.464,0,0,1,0,2.927l-5.642,0Zm5.642-2.686h0l-5.642,0a1.221,1.221,0,1,0,0,2.441h0l5.642,0a1.221,1.221,0,1,0,0-2.441Z" transform="translate(-3733.268 -3055.36)" fill="#ddecf6"/></g><g transform="translate(98.356 56.926)"><rect width="51.173" height="2.759" rx="1.379" fill="#ddecf6"/></g></g><g transform="translate(3211.834 2647.703)"><g transform="translate(0 0)" clip-path="url(#h)"><g transform="translate(14.617 9.266)"><g transform="translate(19.805)"><rect width="50.468" height="142.152" rx="25.234" transform="translate(0 25.234) rotate(-30)" fill="#7ee0cb"/></g><g transform="translate(0 45.449)"><rect width="37.304" height="79.934" rx="18.652" transform="translate(0 18.652) rotate(-30)" fill="#7ee0cb"/></g><g transform="translate(55.345 36.872)"><rect width="0.448" height="96.308" transform="translate(0 0.224) rotate(-30)" fill="#08caa8"/></g><g transform="translate(21.431 64.465)"><rect width="0.448" height="89.37" transform="translate(0 0.224) rotate(-30)" fill="#08caa8"/></g><g transform="translate(66.9 41.226)"><rect width="15.957" height="0.448" transform="matrix(0.146, -0.989, 0.989, 0.146, 0, 15.785)" fill="#08caa8"/></g></g></g></g></g></g></svg>