<!-- Generated by IcoMoon.io -->
<svg version="1.1" xmlns="http://www.w3.org/2000/svg" width="32" height="32" viewBox="0 0 32 32">
<title>search-17x17</title>
<path d="M31.353 28.706l-9.294-9.294c1.472-2.010 2.352-4.481 2.352-7.157 0-6.702-5.453-12.156-12.156-12.156s-12.156 5.453-12.156 12.156 5.453 12.156 12.156 12.156c2.678 0 5.148-0.881 7.159-2.355l9.294 9.294c0.365 0.365 0.843 0.548 1.322 0.548s0.957-0.183 1.322-0.548c0.731-0.729 0.731-1.913 0-2.644zM12.255 20.672c-4.64 0-8.415-3.776-8.415-8.415s3.776-8.415 8.415-8.415 8.415 3.776 8.415 8.415-3.774 8.415-8.415 8.415z"></path>
</svg>
