<svg aria-hidden="true" focusable="false" preserveAspectRatio="xMinYMid meet" xmlns="http://www.w3.org/2000/svg" width="50" height="50" viewBox="0 0 50 50" tabindex="-1"><path d="M38.82485,7.55469a3.38768,3.38768,0,0,0-3.5752-3.04688l-20.46679.002a3.41821,3.41821,0,0,0-3.61133,3.11914l.00342,34.8164A3.37838,3.37838,0,0,0,14.48208,45.502c.07959,0,.15966-.00293.24023-.00976l20.49512-.002a3.40438,3.40438,0,0,0,3.61084-3.11914ZM35.278,43.89258l-20.61572.002a1.75447,1.75447,0,0,1-1.89111-1.52344l-.00342-34.668A1.786,1.786,0,0,1,14.5768,6.10254c.04785,0,.09668.00195.14551.00488H35.278c.02051,0,.04053-.001.061-.00195a1.76756,1.76756,0,0,1,1.88965,1.52344l.00342,34.668A1.79257,1.79257,0,0,1,35.278,43.89258Z" fill="#2d2d2d" tabindex="-1" focusable="false"></path><path d="M33.37465,8.27637H16.42055A1.38,1.38,0,0,0,15.0226,9.58008l.002,25.96582A1.33951,1.33951,0,0,0,16.341,36.791c.01612,0,.03174,0,.04785-.001h16.96a1.362,1.362,0,0,0,1.39306-1.24316c.00195-.02051.00244-.042.00244-.0625l-.00586-25.9668A1.32614,1.32614,0,0,0,33.37465,8.27637ZM16.62221,35.19043,16.62026,9.876h16.521l.00341,25.31445Z" fill="#2d2d2d" tabindex="-1" focusable="false"></path><path d="M26.05971,38.99512A1.73785,1.73785,0,1,0,24.924,42.03027h.0044a1.76727,1.76727,0,0,0,1.71191-1.81445l-.001-.02344A1.72359,1.72359,0,0,0,26.05971,38.99512Z" fill="#2d2d2d" tabindex="-1" focusable="false"></path><path d="M25.26674,21.40332c-2.44043-.50781-2.63427-1.0957-2.63427-1.8418,0-.85937.85888-1.4834,2.05175-1.4834a3.7829,3.7829,0,0,1,2.54493.87891.92065.92065,0,0,0,.58056.20313.88915.88915,0,0,0,.52149-1.59961,5.53254,5.53254,0,0,0-2.71-1.14765v-.78009a.80933.80933,0,1,0-1.61866,0v.79492A3.37832,3.37832,0,0,0,20.86,19.667c0,2.33692,1.97753,3.05664,3.91211,3.45215,2.35791.47852,2.54541,1.05078,2.54541,1.78027,0,.93653-.877,1.58985-2.148,1.58985a4.23337,4.23337,0,0,1-2.48194-.69647,4.6302,4.6302,0,0,1-.70068-.56037.93564.93564,0,0,0-.57715-.20215.82292.82292,0,0,0-.71533,1.36371.88542.88542,0,0,0,.15576.2027l-.001.001a6.33142,6.33142,0,0,0,3.15332,1.50354v.849a.8094.8094,0,0,0,.80957.8125H24.817a.81021.81021,0,0,0,.8042-.81348v-.791A3.47414,3.47414,0,0,0,29.08559,24.794C29.08559,22.48535,27.04409,21.76855,25.26674,21.40332Z" fill="#2d2d2d" tabindex="-1" focusable="false"></path></svg>