<svg xmlns="http://www.w3.org/2000/svg" xmlns:xlink="http://www.w3.org/1999/xlink" width="280" height="320" viewBox="0 0 280 320">
  <defs>
    <clipPath id="clip-tiles_teen-driver_280">
      <rect width="280" height="320"/>
    </clipPath>
  </defs>
  <g id="tiles_teen-driver_280" clip-path="url(#clip-tiles_teen-driver_280)">
    <rect width="280" height="320" fill="#fff"/>
    <g id="Layer_2" transform="translate(-7 -123)">
      <g id="Layer_1-2">
        <rect id="Rectangle_2186" data-name="Rectangle 2186" width="290" height="443" fill="#8055af"/>
        <path id="Path_76613" data-name="Path 76613" d="M71.4,331.6H44.6a3.691,3.691,0,0,0-3.7,3.7v.4l.6,5.3a9.086,9.086,0,0,0,9,8.1H71.4V331.6Z" fill="#d7f2f8"/>
        <path id="Path_76614" data-name="Path 76614" d="M72.2,334.1H46.3a2.689,2.689,0,0,0-2.7,2.7v.3l.5,3.8a6.681,6.681,0,0,0,6.6,5.8h19Z" fill="#375591"/>
        <path id="Path_76615" data-name="Path 76615" d="M214.1,331.6H241a3.691,3.691,0,0,1,3.7,3.7v.4l-.6,5.3a9.111,9.111,0,0,1-9.1,8.1H214.1V331.6Z" fill="#d7f2f8"/>
        <path id="Path_76616" data-name="Path 76616" d="M213.4,334.1h25.8a2.689,2.689,0,0,1,2.7,2.7v.3l-.5,3.9a6.681,6.681,0,0,1-6.6,5.8h-19Z" fill="#375591"/>
        <rect id="Rectangle_2187" data-name="Rectangle 2187" width="29.2" height="40.9" transform="translate(210.8 402.1)" fill="#292852"/>
        <rect id="Rectangle_2188" data-name="Rectangle 2188" width="29.2" height="40.9" transform="translate(45.6 402.1)" fill="#292852"/>
        <path id="Path_76617" data-name="Path 76617" d="M48.6,415.6s-7.1-15.2-7.2-46.1a2.36,2.36,0,0,1,.7-1.6c1.8-1.5,3.4-2.9,3.4-2.9Z" fill="#d7f2f8"/>
        <path id="Path_76618" data-name="Path 76618" d="M237,415.6s7.1-15.2,7.2-46.1a2.36,2.36,0,0,0-.7-1.6c-1.8-1.5-3.4-2.9-3.4-2.9Z" fill="#d7f2f8"/>
        <path id="Path_76619" data-name="Path 76619" d="M46.5,409.9c-.1-.3-.1-.5-.2-.8h0A2.353,2.353,0,0,1,46.5,409.9Z" fill="#d7f2f8"/>
        <path id="Path_76620" data-name="Path 76620" d="M47,411.4a4.874,4.874,0,0,0,.4,1.1A7.6,7.6,0,0,1,47,411.4Z" fill="#d7f2f8"/>
        <path id="Path_76621" data-name="Path 76621" d="M45.8,361.9v0Z" fill="#d7f2f8"/>
        <path id="Path_76622" data-name="Path 76622" d="M46.5,409.9v0Z" fill="#d7f2f8"/>
        <path id="Path_76623" data-name="Path 76623" d="M46.6,410c.1.4.2.7.3,1.1C46.8,410.7,46.7,410.4,46.6,410Z" fill="#d7f2f8"/>
        <path id="Path_76624" data-name="Path 76624" d="M46.9,411.1l.1.3Z" fill="#d7f2f8"/>
        <path id="Path_76625" data-name="Path 76625" d="M45.7,362c0,.3-.1.7-.1,1A3.083,3.083,0,0,0,45.7,362Z" fill="#d7f2f8"/>
        <path id="Path_76626" data-name="Path 76626" d="M45.8,361.9Z" fill="#d7f2f8"/>
        <path id="Path_76627" data-name="Path 76627" d="M238.7,411.1l-.1.3Z" fill="#d7f2f8"/>
        <path id="Path_76628" data-name="Path 76628" d="M238.6,411.4a4.875,4.875,0,0,1-.4,1.1A7.6,7.6,0,0,0,238.6,411.4Z" fill="#d7f2f8"/>
        <path id="Path_76629" data-name="Path 76629" d="M239.1,409.9v0Z" fill="#d7f2f8"/>
        <path id="Path_76630" data-name="Path 76630" d="M239.2,409.1h0c-.1.3-.1.5-.2.8A2.353,2.353,0,0,0,239.2,409.1Z" fill="#d7f2f8"/>
        <path id="Path_76631" data-name="Path 76631" d="M239,410c-.1.4-.2.7-.3,1.1C238.8,410.7,238.9,410.4,239,410Z" fill="#d7f2f8"/>
        <path id="Path_76632" data-name="Path 76632" d="M239.8,361.9v0Z" fill="#d7f2f8"/>
        <path id="Path_76633" data-name="Path 76633" d="M240,383.8H199.7c-.3,0-.6-.1-.9-.1h-.1a1.884,1.884,0,0,1-.8-.2h-.1a2.353,2.353,0,0,0-.8-.2h-.1c-.3-.1-.5-.2-.8-.3H196a2.507,2.507,0,0,1-.7-.4h-.1c-.2-.1-.5-.3-.7-.4h-.1a4.233,4.233,0,0,0-.7-.5h-.1a2.651,2.651,0,0,0-.6-.5h0l-.6-.6h0a4.35,4.35,0,0,1-.6-.7h0a11.414,11.414,0,0,1-2-4.8l-1.3-8.3a3.966,3.966,0,0,1,3.4-4.5h47.8a16.3,16.3,0,0,0-9.5-12.2l-1.4-.6a6.9,6.9,0,0,1-3.7-3.8l-16.8-56.1a10.919,10.919,0,0,0-10.5-7.8H87.6a10.951,10.951,0,0,0-10.5,7.8L60.4,345.4a6.9,6.9,0,0,1-3.7,3.8l-1.3.6A15.567,15.567,0,0,0,45.9,362H93a4.012,4.012,0,0,1,4,4v.6l-1.3,8.3a11.978,11.978,0,0,1-2,4.8h0c-.2.2-.4.5-.6.7h0l-.6.6h0a2.651,2.651,0,0,1-.6.5h-.1a4.233,4.233,0,0,1-.7.5H91a2.506,2.506,0,0,1-.7.4h-.1c-.2.1-.5.3-.7.4h-.1a6.884,6.884,0,0,1-.8.3h-.1a2.353,2.353,0,0,1-.8.2h-.1c-.3.1-.6.1-.8.2h-.1c-.3,0-.6.1-.9.1H45.6v18.3a32.659,32.659,0,0,0,.8,7H239.3a32.659,32.659,0,0,0,.8-7V383.8Z" fill="#d7f2f8"/>
        <path id="Path_76634" data-name="Path 76634" d="M142.8,340.2H82.3a9.347,9.347,0,0,1-9.3-9.3,8.662,8.662,0,0,1,.6-3.2L81,296.2a11.006,11.006,0,0,1,10.7-8.5H193.8a11.006,11.006,0,0,1,10.7,8.5l7.4,31.5a9.194,9.194,0,0,1-5.6,11.9,8.662,8.662,0,0,1-3.2.6Z" fill="#d7f2f8"/>
        <path id="Path_76635" data-name="Path 76635" d="M239.8,361.8Z" fill="#d7f2f8"/>
        <path id="Path_76636" data-name="Path 76636" d="M239.9,362c0,.3.1.7.1,1A3.083,3.083,0,0,1,239.9,362Z" fill="#d7f2f8"/>
        <path id="Path_76637" data-name="Path 76637" d="M47.7,413.5l-.3-.9Z" fill="#d7f2f8"/>
        <path id="Path_76638" data-name="Path 76638" d="M225.2,345.2l-16.8-55.8a10.919,10.919,0,0,0-10.5-7.8H87.6a10.951,10.951,0,0,0-10.5,7.8L60.4,345.2a6.9,6.9,0,0,1-3.7,3.8H229A6.224,6.224,0,0,1,225.2,345.2Z" fill="#fff"/>
        <path id="Path_76639" data-name="Path 76639" d="M203.3,340.2H82.3a9.347,9.347,0,0,1-9.3-9.3,8.662,8.662,0,0,1,.6-3.2L81,296.2a11.006,11.006,0,0,1,10.7-8.5H193.9a11.006,11.006,0,0,1,10.7,8.5l7.4,31.5a9.194,9.194,0,0,1-5.6,11.9A8.533,8.533,0,0,1,203.3,340.2Z" fill="#fff"/>
        <path id="Path_76640" data-name="Path 76640" d="M142.8,341.7s-61-.1-83.3,5.1h0a6.956,6.956,0,0,1-2.8,2.3l-1.3.6a16.2,16.2,0,0,0-8.1,7.6H59.6l83.3-3.3Z" fill="#fff"/>
        <path id="Path_76641" data-name="Path 76641" d="M142.8,341.7s61-.1,83.3,5.1h0a6.956,6.956,0,0,0,2.8,2.3l1.4.6a16.2,16.2,0,0,1,8.1,7.6H226.1L142.8,354Z" fill="#fff"/>
        <path id="Path_76642" data-name="Path 76642" d="M48.1,414.5l-.3-.8Z" fill="#d7f2f8"/>
        <path id="Path_76643" data-name="Path 76643" d="M45.6,363.6v0Z" fill="#d7f2f8"/>
        <path id="Path_76644" data-name="Path 76644" d="M45.6,364.3h0v0Z" fill="#d7f2f8"/>
        <path id="Path_76645" data-name="Path 76645" d="M49.8,417.9a4.671,4.671,0,0,1-.5-1A4.67,4.67,0,0,0,49.8,417.9Z" fill="#d7f2f8"/>
        <path id="Path_76646" data-name="Path 76646" d="M49.1,416.6l-.4-.7Z" fill="#d7f2f8"/>
        <path id="Path_76647" data-name="Path 76647" d="M48.6,415.6l-.3-.7Z" fill="#d7f2f8"/>
        <path id="Path_76648" data-name="Path 76648" d="M45.6,363.1Z" fill="#ff527b"/>
        <path id="Path_76649" data-name="Path 76649" d="M45.6,363.7Z" fill="#ff527b"/>
        <path id="Path_76650" data-name="Path 76650" d="M82.9,361.8H45.8c-.1.4-.1.8-.2,1.2h0v12.2H80.9Z" fill="#ff527b"/>
        <path id="Path_76651" data-name="Path 76651" d="M93.7,379.4c-.2.2-.4.5-.6.7A4.349,4.349,0,0,0,93.7,379.4Z" fill="#d33575"/>
        <path id="Path_76652" data-name="Path 76652" d="M92.4,380.8a2.651,2.651,0,0,1-.6.5A2.651,2.651,0,0,0,92.4,380.8Z" fill="#d33575"/>
        <path id="Path_76653" data-name="Path 76653" d="M91,381.9a2.506,2.506,0,0,1-.7.4A1.611,1.611,0,0,0,91,381.9Z" fill="#d33575"/>
        <path id="Path_76654" data-name="Path 76654" d="M90.3,382.4c-.2.1-.5.3-.7.4A4.35,4.35,0,0,1,90.3,382.4Z" fill="#d33575"/>
        <path id="Path_76655" data-name="Path 76655" d="M91.8,381.4a4.233,4.233,0,0,1-.7.5A4.235,4.235,0,0,1,91.8,381.4Z" fill="#d33575"/>
        <path id="Path_76656" data-name="Path 76656" d="M93.1,380.1l-.6.6C92.7,380.6,92.9,380.3,93.1,380.1Z" fill="#d33575"/>
        <path id="Path_76657" data-name="Path 76657" d="M85.9,383.8h0Z" fill="#d33575"/>
        <path id="Path_76658" data-name="Path 76658" d="M86.8,383.6c-.3,0-.6.1-.9.1A2.483,2.483,0,0,0,86.8,383.6Z" fill="#d33575"/>
        <path id="Path_76659" data-name="Path 76659" d="M95.5,375.2a11.376,11.376,0,0,1-1.9,4.2,11.414,11.414,0,0,0,2-4.8l1.6-10.4a2.161,2.161,0,0,0-1.8-2.5H82.9l-2,13.5H95.5Z" fill="#d33575"/>
        <path id="Path_76660" data-name="Path 76660" d="M87.7,383.4c-.3.1-.6.1-.8.2A1.884,1.884,0,0,0,87.7,383.4Z" fill="#d33575"/>
        <path id="Path_76661" data-name="Path 76661" d="M89.4,382.8a6.884,6.884,0,0,1-.8.3A3.384,3.384,0,0,0,89.4,382.8Z" fill="#d33575"/>
        <path id="Path_76662" data-name="Path 76662" d="M88.6,383.2a2.353,2.353,0,0,1-.8.2C88.1,383.3,88.3,383.3,88.6,383.2Z" fill="#d33575"/>
        <path id="Path_76663" data-name="Path 76663" d="M93.7,379.4Z" fill="#ffb061"/>
        <path id="Path_76664" data-name="Path 76664" d="M93.1,380.1Z" fill="#ffb061"/>
        <path id="Path_76665" data-name="Path 76665" d="M92.5,380.8Z" fill="#ffb061"/>
        <path id="Path_76666" data-name="Path 76666" d="M86.9,383.6Z" fill="#ffb061"/>
        <path id="Path_76667" data-name="Path 76667" d="M86,383.7Z" fill="#ffb061"/>
        <path id="Path_76668" data-name="Path 76668" d="M87.8,383.4Z" fill="#ffb061"/>
        <path id="Path_76669" data-name="Path 76669" d="M91.8,381.3Z" fill="#ffb061"/>
        <path id="Path_76670" data-name="Path 76670" d="M88.7,383.1Z" fill="#ffb061"/>
        <path id="Path_76671" data-name="Path 76671" d="M90.3,382.4Z" fill="#ffb061"/>
        <path id="Path_76672" data-name="Path 76672" d="M89.5,382.8Z" fill="#ffb061"/>
        <path id="Path_76673" data-name="Path 76673" d="M91.1,381.9Z" fill="#ffb061"/>
        <path id="Path_76674" data-name="Path 76674" d="M80.9,375.2H45.6v8.6h34Z" fill="#ffb061"/>
        <path id="Path_76675" data-name="Path 76675" d="M80.9,375.2l-1.3,8.5h6.3c.3,0,.6-.1.9-.1h.1a1.884,1.884,0,0,0,.8-.2h.1a2.353,2.353,0,0,1,.8-.2h.1c.3-.1.5-.2.8-.3h.1a2.507,2.507,0,0,0,.7-.4h.1c.2-.1.5-.3.7-.4h.1a4.233,4.233,0,0,1,.7-.5H92a2.651,2.651,0,0,1,.6-.5h0l.6-.6h0a4.349,4.349,0,0,0,.6-.7h0a10.586,10.586,0,0,0,1.9-4.5H80.9Z" fill="#ffb061"/>
        <path id="Path_76676" data-name="Path 76676" d="M47.8,413.8l-.1-.3Z" fill="#9adde8"/>
        <path id="Path_76677" data-name="Path 76677" d="M48.3,414.9l-.1-.3Z" fill="#9adde8"/>
        <path id="Path_76678" data-name="Path 76678" d="M47.4,412.6l-.1-.2Z" fill="#9adde8"/>
        <path id="Path_76679" data-name="Path 76679" d="M48.8,415.9l-.2-.3Z" fill="#9adde8"/>
        <path id="Path_76680" data-name="Path 76680" d="M49.8,417.9h0l3.2,5.5Z" fill="#9adde8"/>
        <path id="Path_76681" data-name="Path 76681" d="M49.3,416.9l-.2-.3Z" fill="#9adde8"/>
        <path id="Path_76682" data-name="Path 76682" d="M237.9,413.5l.3-.9Z" fill="#d7f2f8"/>
        <path id="Path_76683" data-name="Path 76683" d="M237.5,414.5l.3-.8Z" fill="#d7f2f8"/>
        <path id="Path_76684" data-name="Path 76684" d="M240,363.6v0Z" fill="#d7f2f8"/>
        <path id="Path_76685" data-name="Path 76685" d="M240,364.3h0v0Z" fill="#d7f2f8"/>
        <path id="Path_76686" data-name="Path 76686" d="M235.8,417.9a4.672,4.672,0,0,0,.5-1C236.1,417.2,236,417.6,235.8,417.9Z" fill="#d7f2f8"/>
        <path id="Path_76687" data-name="Path 76687" d="M236.5,416.6l.4-.7Z" fill="#d7f2f8"/>
        <path id="Path_76688" data-name="Path 76688" d="M237,415.6l.3-.7Z" fill="#d7f2f8"/>
        <path id="Path_76689" data-name="Path 76689" d="M212,327.7l-7.4-31.5a11.006,11.006,0,0,0-10.7-8.5H91.7A11.006,11.006,0,0,0,81,296.2l-7.4,31.5a9.194,9.194,0,0,0,5.6,11.9,8.662,8.662,0,0,0,3.2.6h121a9.221,9.221,0,0,0,9.2-9.4A8.533,8.533,0,0,0,212,327.7Z" fill="#292852"/>
        <path id="Path_76690" data-name="Path 76690" d="M240,363.1Z" fill="#ff527b"/>
        <path id="Path_76691" data-name="Path 76691" d="M240,363.7Z" fill="#ff527b"/>
        <path id="Path_76692" data-name="Path 76692" d="M202.7,361.8h37.1a4.868,4.868,0,0,1,.1,1.2h0v12.2H204.7Z" fill="#ff527b"/>
        <path id="Path_76693" data-name="Path 76693" d="M191.9,379.4c.2.2.4.5.6.7A4.35,4.35,0,0,1,191.9,379.4Z" fill="#d33575"/>
        <path id="Path_76694" data-name="Path 76694" d="M193.1,380.8a2.651,2.651,0,0,0,.6.5C193.6,381.2,193.3,381,193.1,380.8Z" fill="#d33575"/>
        <path id="Path_76695" data-name="Path 76695" d="M194.6,381.9a2.506,2.506,0,0,0,.7.4A1.611,1.611,0,0,1,194.6,381.9Z" fill="#d33575"/>
        <path id="Path_76696" data-name="Path 76696" d="M195.3,382.4c.2.1.5.3.7.4A4.35,4.35,0,0,0,195.3,382.4Z" fill="#d33575"/>
        <path id="Path_76697" data-name="Path 76697" d="M193.8,381.4a4.233,4.233,0,0,0,.7.5C194.3,381.7,194,381.6,193.8,381.4Z" fill="#d33575"/>
        <path id="Path_76698" data-name="Path 76698" d="M192.5,380.1l.6.6C192.9,380.6,192.7,380.3,192.5,380.1Z" fill="#d33575"/>
        <path id="Path_76699" data-name="Path 76699" d="M199.7,383.8h0Z" fill="#d33575"/>
        <path id="Path_76700" data-name="Path 76700" d="M198.8,383.6c.3,0,.6.1.9.1A2.483,2.483,0,0,1,198.8,383.6Z" fill="#d33575"/>
        <path id="Path_76701" data-name="Path 76701" d="M190.1,375.2a11.377,11.377,0,0,0,1.9,4.2,11.414,11.414,0,0,1-2-4.8l-1.6-10.4a2.161,2.161,0,0,1,1.8-2.5h12.5l2,13.5H190.1Z" fill="#d33575"/>
        <path id="Path_76702" data-name="Path 76702" d="M197.9,383.4c.3.1.6.1.8.2A1.884,1.884,0,0,1,197.9,383.4Z" fill="#d33575"/>
        <path id="Path_76703" data-name="Path 76703" d="M196.1,382.8a6.884,6.884,0,0,0,.8.3C196.6,383,196.4,382.9,196.1,382.8Z" fill="#d33575"/>
        <path id="Path_76704" data-name="Path 76704" d="M197,383.2a2.353,2.353,0,0,0,.8.2C197.5,383.3,197.2,383.3,197,383.2Z" fill="#d33575"/>
        <path id="Path_76705" data-name="Path 76705" d="M191.9,379.4Z" fill="#ffb061"/>
        <path id="Path_76706" data-name="Path 76706" d="M192.5,380.1Z" fill="#ffb061"/>
        <path id="Path_76707" data-name="Path 76707" d="M193.1,380.8Z" fill="#ffb061"/>
        <path id="Path_76708" data-name="Path 76708" d="M198.7,383.6Z" fill="#ffb061"/>
        <path id="Path_76709" data-name="Path 76709" d="M199.6,383.7Z" fill="#ffb061"/>
        <path id="Path_76710" data-name="Path 76710" d="M197.8,383.4Z" fill="#ffb061"/>
        <path id="Path_76711" data-name="Path 76711" d="M193.8,381.3Z" fill="#ffb061"/>
        <path id="Path_76712" data-name="Path 76712" d="M196.9,383.1Z" fill="#ffb061"/>
        <path id="Path_76713" data-name="Path 76713" d="M195.2,382.4Z" fill="#ffb061"/>
        <path id="Path_76714" data-name="Path 76714" d="M196.1,382.8Z" fill="#ffb061"/>
        <path id="Path_76715" data-name="Path 76715" d="M194.5,381.9Z" fill="#ffb061"/>
        <path id="Path_76716" data-name="Path 76716" d="M204.7,375.2H240v8.6H206Z" fill="#ffb061"/>
        <path id="Path_76717" data-name="Path 76717" d="M204.7,375.2l1.3,8.5h-6.3c-.3,0-.6-.1-.9-.1h-.1a1.884,1.884,0,0,1-.8-.2h-.1a2.353,2.353,0,0,0-.8-.2h-.1c-.3-.1-.5-.2-.8-.3H196a2.507,2.507,0,0,1-.7-.4h-.1c-.2-.1-.5-.3-.7-.4h-.1a4.233,4.233,0,0,0-.7-.5h-.1a2.651,2.651,0,0,0-.6-.5h0l-.6-.6h0a4.35,4.35,0,0,1-.6-.7h0a10.693,10.693,0,0,1-1.9-4.2Z" fill="#ffb061"/>
        <path id="Path_76718" data-name="Path 76718" d="M237.8,413.8l.1-.3Z" fill="#9adde8"/>
        <path id="Path_76719" data-name="Path 76719" d="M237.3,414.9l.1-.3Z" fill="#9adde8"/>
        <path id="Path_76720" data-name="Path 76720" d="M238.2,412.6l.1-.2Z" fill="#9adde8"/>
        <path id="Path_76721" data-name="Path 76721" d="M236.8,415.9l.2-.3Z" fill="#9adde8"/>
        <path id="Path_76722" data-name="Path 76722" d="M235.8,417.9h0l-3.2,5.5Z" fill="#9adde8"/>
        <path id="Path_76723" data-name="Path 76723" d="M236.3,416.9l.2-.3Z" fill="#9adde8"/>
        <path id="Path_76724" data-name="Path 76724" d="M142.8,409.1H46.3c.3,1.1.6,2.3,1,3.4l.1.2.3.9.1.3.3.8.1.3.3.7.2.3.4.7.2.3a4.671,4.671,0,0,1,.5,1h0l3.2,5.5c.1.2.2.3.3.5a8.165,8.165,0,0,0,6.7,3.6H225.6a7.92,7.92,0,0,0,6.7-3.6,2.186,2.186,0,0,0,.3-.5l3.2-5.5h0a4.672,4.672,0,0,0,.5-1l.2-.3.4-.7.2-.3.3-.7.1-.3.3-.8.1-.3.3-.9.1-.2a33.742,33.742,0,0,0,1-3.4Z" fill="#9adde8"/>
        <path id="Path_76725" data-name="Path 76725" d="M142.8,348.5h0c-67.7,0-91.4,8.8-91.4,8.8H234.2S210.5,348.5,142.8,348.5Z" fill="#9adde8"/>
        <path id="Path_76726" data-name="Path 76726" d="M234.2,357.5h0c-.4-.1-37.1-6.7-91.4-6.7s-91,6.6-91.3,6.7a.2.2,0,0,1,0-.4h0c.4-.1,37.2-6.7,91.4-6.7s91.1,6.6,91.4,6.7a.215.215,0,0,1,.2.2c0,.1-.1.2-.3.2Z" fill="#4ebee5"/>
        <path id="Path_76727" data-name="Path 76727" d="M124.5,377.5h.6v-2.6h35.5v2.6h.6a10.844,10.844,0,0,1,10.7,9l1.4,7.9h1.2l-2.6-14.9a10.844,10.844,0,0,0-10.7-9H124.6a10.844,10.844,0,0,0-10.7,9l-2.6,14.9h1.2l1.4-7.9A10.662,10.662,0,0,1,124.5,377.5Z" fill="#74cde8"/>
        <path id="Path_76728" data-name="Path 76728" d="M142.8,394.5h30.4l-1.4-7.9a10.844,10.844,0,0,0-10.7-9h-.6V391H125V377.5h-.5a10.844,10.844,0,0,0-10.7,9l-1.4,7.9,30.4.1Z" fill="#9adde8"/>
        <path id="Path_76729" data-name="Path 76729" d="M125,374.9v2.6h35.6v-2.6Z" fill="#d7f2f8"/>
        <path id="Path_76730" data-name="Path 76730" d="M142.8,377.5H125V391h35.6V377.5Z" fill="#fff"/>
        <path id="Path_76731" data-name="Path 76731" d="M142.8,399.8H97.5a4.859,4.859,0,0,1-3.4-1.5l-3.9-4.4a14.326,14.326,0,0,0-10.8-4.8H45.6a.2.2,0,0,1,0-.4H79.4a14.8,14.8,0,0,1,11.1,5l3.9,4.3a4.1,4.1,0,0,0,3.1,1.4h45.3a.2.2,0,0,1,0,.4Z" fill="#9adde8"/>
        <path id="Path_76732" data-name="Path 76732" d="M188.1,399.8H142.8a.2.2,0,0,1,0-.4h45.3a4.1,4.1,0,0,0,3.1-1.4l3.9-4.4a14.643,14.643,0,0,1,11.1-5H240a.2.2,0,0,1,0,.4H206.2a14.582,14.582,0,0,0-10.8,4.9l-4,4.4A4.459,4.459,0,0,1,188.1,399.8Z" fill="#9adde8"/>
        <path id="Path_76733" data-name="Path 76733" d="M157.9,344.4H127.7l2.9-5.5a3.628,3.628,0,0,1,3.3-2.1h17.8a3.628,3.628,0,0,1,3.3,2.1Z" fill="#fff"/>
        <path id="Path_76734" data-name="Path 76734" d="M96.2,423.2a13.2,13.2,0,0,0-15.8,0l-3.3,2.4a8.747,8.747,0,0,1-5.2,1.7h32.7a8.24,8.24,0,0,1-5.1-1.7Z" fill="#74cde8"/>
        <circle id="Ellipse_208" data-name="Ellipse 208" cx="5.2" cy="5.2" r="5.2" transform="translate(83.1 422.2)" fill="#292852"/>
        <path id="Path_76735" data-name="Path 76735" d="M205.8,423.2a13.2,13.2,0,0,0-15.8,0l-3.3,2.4a8.747,8.747,0,0,1-5.2,1.7h32.7a8.747,8.747,0,0,1-5.2-1.7Z" fill="#74cde8"/>
        <circle id="Ellipse_209" data-name="Ellipse 209" cx="5.2" cy="5.2" r="5.2" transform="translate(192.7 422.2)" fill="#292852"/>
        <rect id="Rectangle_2189" data-name="Rectangle 2189" width="0.4" height="81.6" transform="matrix(0.98, -0.201, 0.201, 0.98, 212.995, 269.061)" fill="#fff"/>
        <path id="Path_76736" data-name="Path 76736" d="M214.3,274.8s-19.3-7.6-22.5-23.1c-2.6-12.9,8-17.8,13.9-19s17.6-.9,20.2,12C229.1,260.2,214.3,274.8,214.3,274.8Z" fill="#c973c9"/>
        <path id="Path_76737" data-name="Path 76737" d="M195.2,243.6a.86.86,0,0,1-.8-.8.6.6,0,0,1,.1-.4,14.785,14.785,0,0,1,6.6-6,.7.7,0,0,1,1,.4c.1.4,0,.9-.4,1h0a12.85,12.85,0,0,0-5.9,5.4A.675.675,0,0,1,195.2,243.6Z" fill="#fff"/>
        <path id="Path_76738" data-name="Path 76738" d="M210.9,232.3c1.3,12.3,8.8,22.7,13.2,27.8a27.086,27.086,0,0,0,1.9-15.4C223.9,235,216.8,232.5,210.9,232.3Z" fill="#bd4ec4"/>
        <path id="Path_76739" data-name="Path 76739" d="M229.4,255.4s17.4-11.3,17.4-27.1c0-13.2-11.4-15.8-17.4-15.8S212,215.1,212,228.3C212,244.1,229.4,255.4,229.4,255.4Z" fill="#fc557d"/>
        <path id="Path_76740" data-name="Path 76740" d="M215.7,222.1a.789.789,0,0,1-.8-.8.6.6,0,0,1,.1-.4,13.452,13.452,0,0,1,6.5-5.5.7.7,0,0,1,1,.4c.1.4,0,.9-.4,1a11.834,11.834,0,0,0-5.8,4.8C216.3,222,216,222.1,215.7,222.1Z" fill="#fff"/>
        <rect id="Rectangle_2190" data-name="Rectangle 2190" width="0.4" height="93.7" transform="translate(229.2 255.4)" fill="#fff"/>
        <rect id="Rectangle_2191" data-name="Rectangle 2191" width="81.6" height="0.4" transform="translate(229.189 348.979) rotate(-78.381)" fill="#fff"/>
        <path id="Path_76741" data-name="Path 76741" d="M243.6,280.5s19.3-7.6,22.5-23.1c2.6-12.9-8-17.8-13.9-19s-17.6-.9-20.2,12C228.8,265.9,243.6,280.5,243.6,280.5Z" fill="#ffb061"/>
        <path id="Path_76742" data-name="Path 76742" d="M236.5,246.6a.789.789,0,0,1-.8-.8c0-.2.1-.3.2-.5a12.127,12.127,0,0,1,5.9-4.3.846.846,0,0,1,1,.6.807.807,0,0,1-.4.9,10.169,10.169,0,0,0-5.1,3.8A1.6,1.6,0,0,1,236.5,246.6Z" fill="#fff"/>
        <path id="Path_76743" data-name="Path 76743" d="M213.7,293.6h-.4c0-.6.5-.9.9-1.2s.7-.5.7-.9-.3-.6-.7-.9-.9-.6-.9-1.2.5-.9.9-1.2.7-.5.7-.9-.3-.6-.7-.9-.9-.6-.9-1.2.5-.9.9-1.2.7-.5.7-.9-.3-.6-.7-.9-.9-.6-.9-1.2.5-.9.9-1.2.7-.5.7-.9-.3-.6-.7-.9-.9-.6-.9-1.2a1.922,1.922,0,0,1,.4-1.2,1.8,1.8,0,0,0,.4-.9h.4a1.922,1.922,0,0,1-.4,1.2,1.8,1.8,0,0,0-.4.9c0,.4.3.6.7.9s.9.6.9,1.2-.5.9-.9,1.2-.7.5-.7.9.3.6.7.9.9.6.9,1.2-.5.9-.9,1.2-.7.5-.7.9.3.6.7.9.9.6.9,1.2-.5.9-.9,1.2-.7.5-.7.9.3.6.7.9.9.6.9,1.2-.5.9-.9,1.2S213.7,293.2,213.7,293.6Z" fill="#fff"/>
        <path id="Path_76744" data-name="Path 76744" d="M244.6,299.3h-.4c0-.4-.3-.6-.7-.9s-.9-.6-.9-1.2.5-.9.9-1.2.7-.5.7-.9-.3-.6-.7-.9-.9-.6-.9-1.2.5-.9.9-1.2.7-.5.7-.9-.3-.6-.7-.9-.9-.6-.9-1.2.5-.9.9-1.2.7-.5.7-.9-.3-.6-.7-.9-.9-.6-.9-1.2.5-.9.9-1.2.7-.5.7-.9a1.086,1.086,0,0,0-.4-.9,1.594,1.594,0,0,1-.4-1.2h.4a1.086,1.086,0,0,0,.4.9,1.594,1.594,0,0,1,.4,1.2c0,.6-.5.9-.9,1.2s-.7.5-.7.9.3.6.7.9.9.6.9,1.2-.5.9-.9,1.2-.7.5-.7.9.3.6.7.9.9.6.9,1.2-.5.9-.9,1.2-.7.5-.7.9.3.6.7.9.9.6.9,1.2-.5.9-.9,1.2-.7.5-.7.9.3.6.7.9S244.6,298.7,244.6,299.3Z" fill="#fff"/>
        <path id="Path_76745" data-name="Path 76745" d="M230.4,274.2H230c0-.4-.3-.6-.7-.9s-.9-.6-.9-1.2.5-.9.9-1.2.7-.5.7-.9-.3-.6-.7-.9-.9-.6-.9-1.2.5-.9.9-1.2.7-.5.7-.9-.3-.6-.7-.9-.9-.6-.9-1.2.5-.9.9-1.2.7-.5.7-.9-.3-.6-.7-.9-.9-.6-.9-1.2.5-.9.9-1.2.7-.5.7-.9a1.086,1.086,0,0,0-.4-.9,1.594,1.594,0,0,1-.4-1.2h.4a1.086,1.086,0,0,0,.4.9,1.594,1.594,0,0,1,.4,1.2c0,.6-.5.9-.9,1.2s-.7.5-.7.9.3.6.7.9.9.6.9,1.2-.5.9-.9,1.2-.7.5-.7.9.3.6.7.9.9.6.9,1.2-.5.9-.9,1.2-.7.5-.7.9.3.6.7.9.9.6.9,1.2-.5.9-.9,1.2-.7.5-.7.9.3.6.7.9S230.4,273.6,230.4,274.2Z" fill="#fff"/>
        <path id="Path_76746" data-name="Path 76746" d="M91,307.4q3.3,9.9,6.3,19.8c.3,1,2,.9,1.9-.3l-.1-1.3c-.1-1.2-2.1-1.2-1.9,0l.1,1.3,1.9-.3q-3-9.9-6.3-19.8c-.4-1.1-2.3-.6-1.9.6Z" fill="#fff"/>
        <path id="Path_76747" data-name="Path 76747" d="M92.3,306.2l-.2.1,1.1.5-.2-.2v1c.3-.7,1.7-1.2,2.4-1.5a19.642,19.642,0,0,1,3.3-1.5c2.5-.7,5.8-.3,7,2.4,2.2,4.7-6.9,7.8-10,9-1.2.5-.7,2.3.5,1.9,4.3-1.7,15-5.8,11-12.3a7.7,7.7,0,0,0-7.7-3.2,13.979,13.979,0,0,0-4.8,1.8c-1.1.6-2.8,1.3-3.4,2.4a.908.908,0,0,0,0,1l.2.2a1,1,0,0,0,1.1.5l.2-.1a1.012,1.012,0,0,0,.4-1.4.875.875,0,0,0-.9-.6Z" fill="#fff"/>
        <path id="Path_76748" data-name="Path 76748" d="M110.9,304.8l5.4,19a1.012,1.012,0,0,0,1.4.4,1.05,1.05,0,0,0,.5-.9l-5.4-19a1.012,1.012,0,0,0-1.4-.4A1.193,1.193,0,0,0,110.9,304.8Z" fill="#fff"/>
        <path id="Path_76749" data-name="Path 76749" d="M111.7,305.5c2.9-1.7,11.7-5.8,13.3-.3,1.3,4.5-6.9,7.7-10,8.6a1.012,1.012,0,0,0-.4,1.4,1.05,1.05,0,0,0,.9.5c4.3-1.2,13.7-5.5,11.1-11.5-2.8-6.3-11.8-2.8-15.9-.3a1.071,1.071,0,0,0-.1,1.4,1.389,1.389,0,0,0,1.1.2Z" fill="#fff"/>
        <path id="Path_76750" data-name="Path 76750" d="M120.7,314a76.233,76.233,0,0,0,8.9,5.9,1.04,1.04,0,0,0,1.3-.6,1.128,1.128,0,0,0-.3-1.1,72.183,72.183,0,0,1-8.9-5.9C120.7,311.5,119.7,313.2,120.7,314Z" fill="#fff"/>
        <path id="Path_76751" data-name="Path 76751" d="M138.4,298.5a7.321,7.321,0,0,0-8.2,6.2c0,.3-.1.6-.1,1,0,4.6,4,9.1,8.5,9.9,4.9.9,7.4-3.3,6.9-7.7s-3.4-8.4-7.8-9.2c-1.2-.2-1.8,1.6-.5,1.9a7.77,7.77,0,0,1,6,5.7c.9,3,.5,7.7-3.6,7.5-3.3-.2-6.4-3.2-7.2-6.3-.9-3.5,1.6-7.7,5.6-7.1,1.1.2,1.6-1.7.4-1.9Z" fill="#fff"/>
        <path id="Path_76752" data-name="Path 76752" d="M148.2,299.2a158.041,158.041,0,0,1,6.6,19,1.012,1.012,0,0,0,1.4.4,1.05,1.05,0,0,0,.5-.9c-1.9-6.5-4.1-12.8-6.6-19C149.6,297.5,147.7,298,148.2,299.2Z" fill="#fff"/>
        <path id="Path_76753" data-name="Path 76753" d="M148.1,299.5c3.3,2.5,6.7,4.9,10.1,7.1a.883.883,0,0,0,1.3-.4.6.6,0,0,0,.1-.4l.8-11-1.8.5c3.8,6.4,7.7,12.8,11.6,19.1a.987.987,0,0,0,1.7-1c-3.9-6.3-7.8-12.7-11.6-19.1a.965.965,0,0,0-1.4-.2,1.012,1.012,0,0,0-.4.7l-.8,11,1.5-.8c-3.4-2.3-6.8-4.6-10.1-7.1-1-.9-2,.8-1,1.6Z" fill="#fff"/>
        <path id="Path_76754" data-name="Path 76754" d="M170.6,300.4c-.1-2.7,2.7-5.5,5.4-4.1a4.225,4.225,0,0,1,1.6,5.7h0c-.9,1.4-2.4,2.2-2.9,3.9a4.693,4.693,0,0,0,.8,4.4c.7,1,2.4,0,1.7-1-2.4-3.2,2.2-5.1,2.9-8a6.258,6.258,0,0,0-1.9-5.8c-3.8-3.5-9.7.3-9.4,5-.2,1.2,1.8,1.2,1.8-.1Z" fill="#e8bae2"/>
        <path id="Path_76755" data-name="Path 76755" d="M179.1,313.2a1.569,1.569,0,0,0,0,2.2c.1.1.2.2.3.2a1.489,1.489,0,0,0,2-.6.367.367,0,0,0,.1-.3,1.391,1.391,0,0,0-1.1-1.7h-.7a1.556,1.556,0,0,0-.9,1.8,2.186,2.186,0,0,0,.3.5,1.02,1.02,0,0,0,.9.2,1.648,1.648,0,0,0,1.1-1.9.982.982,0,1,0-1.9.5v-.2h0a.1.1,0,0,1,.1-.1h0a.349.349,0,0,1,.2-.1l.9.2c.1.1.1.2.2.4h0v.2l-.1.1h0c-.1.1-.2.2-.3.2a.481.481,0,0,1-.6-.2c.1.1,0-.1,0-.2a.6.6,0,0,1,.1-.4c.1-.1.1-.2.2-.2h.1a.6.6,0,0,1,.4.1l.1.1c0,.1.1.1.1.2h0c0-.1-.1.2,0,.1,0,.1-.2.3-.1.2a1.012,1.012,0,1,0-1.1-1.7c-.1.1-.2.3-.3.4Z" fill="#e8bae2"/>
        <path id="Path_76756" data-name="Path 76756" d="M147.1,324.9c-1.8-2.6-7.6-4.7-8.3-.1a4.965,4.965,0,0,0,2.2,4.6c2.2,1.7,4.9,2.9,7.2,4.3,1.1.7,2-1,1-1.7-2.2-1.4-4.6-2.5-6.7-4-1-.7-3.2-3.3-.9-4.1,1.3-.5,3.1.9,3.7,1.9s2.5.1,1.8-.9Z" fill="#ff8da3"/>
        <path id="Path_76757" data-name="Path 76757" d="M147.4,325.5c-.2-1.4,1-3.1,2.5-2.2s.3,3.2-.3,4.4a13.222,13.222,0,0,0-1.6,5.1c-.1,1.2,1.8,1.2,1.9,0,.3-2.7,2.2-4.6,2.7-7.2a3.61,3.61,0,0,0-1.4-3.9c-2.8-1.9-6.1.6-5.7,3.8C145.6,326.7,147.6,326.7,147.4,325.5Z" fill="#ff8da3"/>
        <path id="Path_76758" data-name="Path 76758" d="M194.6,322.7c-.5-2.3-1.2-5-3.5-6.2a4.358,4.358,0,0,0-5.4,1.4c-1.3,1.9-.8,4,.1,6a83.486,83.486,0,0,1,4.2,9.7c.4,1.2,2.3.7,1.9-.5a73.914,73.914,0,0,0-3.6-8.8c-1-2-2.7-5,.4-5.9,2.9-.8,3.6,2.7,4.1,4.8.1,1.2,2,.7,1.8-.5Z" fill="#ff8da3"/>
        <path id="Path_76759" data-name="Path 76759" d="M194.1,323.9c1.4-1.6,3.9-3.9,5.9-1.8s.4,3.5-1.2,4.8c-2.7,2.2-5.4,4.4-8.1,6.4-1,.7,0,2.4,1,1.7,2.6-1.9,5.1-3.9,7.6-5.9,1.8-1.5,4.1-3,3.6-5.6a5.311,5.311,0,0,0-3.8-4.1c-2.6-.5-4.7,1.3-6.3,3.1-.9,1,.5,2.4,1.3,1.4Z" fill="#ff8da3"/>
        <path id="Path_76760" data-name="Path 76760" d="M166,321.5l1.3,1.4a.99.99,0,0,0,1.4-1.4l-1.3-1.4a.99.99,0,1,0-1.4,1.4Z" fill="#ffcc8f"/>
        <path id="Path_76761" data-name="Path 76761" d="M171.7,323.7l1.2-1.2a1.012,1.012,0,1,0-1.1-1.7l-.3.3-1.2,1.2a1.012,1.012,0,1,0,1.1,1.7Z" fill="#ffcc8f"/>
        <path id="Path_76762" data-name="Path 76762" d="M167.9,324.5a4.124,4.124,0,0,0-2.1,1.4.99.99,0,0,0,1.4,1.4l.3-.3c.1-.1.2-.2.3-.2a1.493,1.493,0,0,1,.7-.3,1,1,0,1,0,0-2Z" fill="#ffcc8f"/>
        <path id="Path_76763" data-name="Path 76763" d="M170.3,326.6l1.2,1.4a.99.99,0,0,0,1.4-1.4l-1.2-1.4a.967.967,0,0,0-1.4,0A1.2,1.2,0,0,0,170.3,326.6Z" fill="#ffcc8f"/>
        <path id="Path_76764" data-name="Path 76764" d="M162.5,332.1h0a.99.99,0,1,0,1.4-1.4h0a.937.937,0,0,0-1.1-.2.349.349,0,0,0-.2.1h0l.8-.1h0l.4.2h0l.2.4v.5l-.9.7h0a1,1,0,0,0,0-2h0a.96.96,0,0,0-.9.7,1.147,1.147,0,0,0,.5,1.2,1.227,1.227,0,0,0,1.3-.2l-.4.2h.1l-.8-.1h0l-.4-.6V331l.2-.4h1.4a.984.984,0,0,0-1.4.3.942.942,0,0,0-.2,1.2Z" fill="#aecfff"/>
        <path id="Path_76765" data-name="Path 76765" d="M159.1,324.6l-.3-.3a1.012,1.012,0,0,0-1.7,1.1l.3.3.3.3a.984.984,0,0,0,1.4-.3A1.083,1.083,0,0,0,159.1,324.6Z" fill="#aecfff"/>
        <path id="Path_76766" data-name="Path 76766" d="M133.5,324.5a1.081,1.081,0,0,0-.7,1.4,1.057,1.057,0,0,0,.6.7,1.114,1.114,0,0,0,1.4-.6v-.1a1.3,1.3,0,0,0-.5-1.3.908.908,0,0,0-1,0,1.02,1.02,0,0,0-.5.8v.4a1,1,0,0,0,2,0v-.4l-1.5.8h0l-.4-.4.1-.9.7-.3h0l.5.1a.8.8,0,0,1,.3,1.1l-.1.1-.4.2h0a1.012,1.012,0,0,0,.4-1.4,1.215,1.215,0,0,0-.9-.2Z" fill="#aecfff"/>
        <path id="Path_76767" data-name="Path 76767" d="M136,331a1.1,1.1,0,0,0,1.1,1.9.1.1,0,0,0,.1-.1,1.058,1.058,0,0,0,.2-1.4.989.989,0,0,0-1.4-.4,1.04,1.04,0,0,0-.6,1.3,1,1,0,0,0,1.3.6.758.758,0,0,0,.4-.2h0l-.5.1h-.2l-.4-.2a1.077,1.077,0,0,1-.2-.8l.2-.4h0l.4-.2h.4l.4.2.2.5-.1.5h0l-.4.4h0a.675.675,0,0,0,.4-.6,1.128,1.128,0,0,0-.1-.8.962.962,0,0,0-1.2-.4Z" fill="#aecfff"/>
        <path id="Path_76768" data-name="Path 76768" d="M181.3,332.2a1.078,1.078,0,0,0,.3-2.1,1.027,1.027,0,0,0-1.3.5.948.948,0,0,0,.2,1.3.99.99,0,0,0,1.4-1.4h0l.2.4v.5l-.4.5-.5.1h0l-.5-.1h0l-.4-.4h0l-.1-.5.1-.4.4-.4h0l.5-.1h0a1.02,1.02,0,1,0-.4,2,.9.9,0,0,1,.5.1Z" fill="#aecfff"/>
        <path id="Path_76769" data-name="Path 76769" d="M196.9,315c.5-2.3,1-4.6,1.6-6.9a.945.945,0,0,0-1-1,1.05,1.05,0,0,0-.9.5c-.6,2.3-1.1,4.6-1.6,6.9C194.8,315.7,196.7,316.2,196.9,315Z" fill="#77e0d1"/>
        <path id="Path_76770" data-name="Path 76770" d="M202.4,316.6l1.5-2.1c.7-1.1-1-2-1.7-1-.4.6-.8,1.1-1.2,1.7a.99.99,0,1,0,1.4,1.4Z" fill="#77e0d1"/>
        <path id="Path_76771" data-name="Path 76771" d="M189.8,312.5a6.051,6.051,0,0,1-.4-2.4,1.1,1.1,0,0,0-1.2-.8,1.085,1.085,0,0,0-.8.8,9.291,9.291,0,0,0,.5,2.9.982.982,0,1,0,1.9-.5Z" fill="#77e0d1"/>
        <path id="Path_76772" data-name="Path 76772" d="M84.4,324.2v1.9a1.1,1.1,0,0,0,1.2.8,1.085,1.085,0,0,0,.8-.8v-1.9a1.1,1.1,0,0,0-1.2-.8A1.085,1.085,0,0,0,84.4,324.2Z" fill="#ffcc8f"/>
        <path id="Path_76773" data-name="Path 76773" d="M80.8,328.8a10.549,10.549,0,0,0,2.4.6.982.982,0,0,0,.5-1.9,10.547,10.547,0,0,1-2.4-.6,1.086,1.086,0,0,0-1.2.7A.949.949,0,0,0,80.8,328.8Z" fill="#ffcc8f"/>
        <path id="Path_76774" data-name="Path 76774" d="M87.1,329.9h1.5a1.02,1.02,0,1,0,.4-2H87.1a1.02,1.02,0,1,0-.4,2C86.8,330,86.9,330,87.1,329.9Z" fill="#ffcc8f"/>
        <path id="Path_76775" data-name="Path 76775" d="M84.2,331.1a6.8,6.8,0,0,0,.2,2,1.012,1.012,0,0,0,1.4.4,1.05,1.05,0,0,0,.5-.9,7.569,7.569,0,0,1-.1-1.5,1.1,1.1,0,0,0-1.2-.8,1.085,1.085,0,0,0-.8.8Z" fill="#ffcc8f"/>
        <path id="Path_76776" data-name="Path 76776" d="M93.2,294.5a3.964,3.964,0,0,0-2.9-2.1,2.483,2.483,0,0,0-2.6,1.9,3.164,3.164,0,0,0,.8,3.2,23.435,23.435,0,0,0,4.3,2.6c1.1.5,2.1-1.1,1-1.7a25,25,0,0,1-3.9-2.3,1.107,1.107,0,0,1-.4-1.4c.5-1,1.6.3,1.9.8.8,1,2.5,0,1.8-1Z" fill="#ff8da3"/>
        <path id="Path_76777" data-name="Path 76777" d="M93.6,295.3c.2-.4.6-1.4,1.2-1.3.9.2.5,1.6.2,2.1a17.481,17.481,0,0,1-1.8,2.9c-.7,1,1,2,1.7,1,1.3-1.8,3.4-4.6,1.8-6.8s-3.9-.7-4.8,1.2c-.5,1.1,1.2,2.1,1.7.9Z" fill="#ff8da3"/>
        <path id="Path_76778" data-name="Path 76778" d="M99.8,297l2.1.4a.982.982,0,0,0,.5-1.9l-2.1-.4a.982.982,0,0,0-.5,1.9Z" fill="#77e0d1"/>
        <path id="Path_76779" data-name="Path 76779" d="M88.2,301.6a9.62,9.62,0,0,0-2,3.2.982.982,0,1,0,1.9.5,9.13,9.13,0,0,1,1.5-2.3c.8-.9-.5-2.3-1.4-1.4Z" fill="#77e0d1"/>
        <path id="Path_76780" data-name="Path 76780" d="M85,298.2a9.908,9.908,0,0,0-1.7,1.1.99.99,0,1,0,1.4,1.4l.2-.1h0l.3-.2a2.506,2.506,0,0,1,.7-.4.889.889,0,0,0,.3-1.3.842.842,0,0,0-1.2-.5Z" fill="#77e0d1"/>
        <path id="Path_76781" data-name="Path 76781" d="M99.7,292.8l.8-.3a.982.982,0,0,0-.5-1.9l-.8.3a.982.982,0,0,0,.5,1.9Z" fill="#77e0d1"/>
        <path id="Path_76782" data-name="Path 76782" d="M84,316a1.1,1.1,0,0,0,.8-1.2,1.085,1.085,0,0,0-.8-.8,1.1,1.1,0,0,0-.8,1.2A1.085,1.085,0,0,0,84,316Z" fill="#aecfff"/>
        <path id="Path_76783" data-name="Path 76783" d="M110.1,333.1l.1-.1a.984.984,0,0,0-.3-1.4,1.079,1.079,0,0,0-1.1,0l-.1.1a.984.984,0,0,0,.3,1.4A1.079,1.079,0,0,0,110.1,333.1Z" fill="#aecfff"/>
        <path id="Path_76784" data-name="Path 76784" d="M115.2,293.9a1.1,1.1,0,0,0,.8-1.2,1.085,1.085,0,0,0-.8-.8,1.1,1.1,0,0,0-.8,1.2A1.549,1.549,0,0,0,115.2,293.9Z" fill="#aecfff"/>
        <path id="Path_76785" data-name="Path 76785" d="M124.6,336.9a1.1,1.1,0,0,0,.8-1.2,1.085,1.085,0,0,0-.8-.8,1.1,1.1,0,0,0-.8,1.2A1.085,1.085,0,0,0,124.6,336.9Z" fill="#aecfff"/>
        <path id="Path_76786" data-name="Path 76786" d="M152,294.6a1.1,1.1,0,0,0,.8-1.2,1.085,1.085,0,0,0-.8-.8,1.1,1.1,0,0,0-.8,1.2A1.252,1.252,0,0,0,152,294.6Z" fill="#aecfff"/>
        <path id="Path_76787" data-name="Path 76787" d="M187.6,293.3l.9,1.7a1.012,1.012,0,0,0,1.9-.7.758.758,0,0,0-.2-.4l-.9-1.7a1.012,1.012,0,0,0-1.9.7.758.758,0,0,0,.2.4Z" fill="#ffcc8f"/>
        <path id="Path_76788" data-name="Path 76788" d="M192.4,296.3l.3-.3.1-.1c.1-.1-.2.1.1,0l.3-.2s.2-.1.1-.1h.1a1,1,0,0,0,0-2,.6.6,0,0,0-.4.1,4.738,4.738,0,0,0-1.9,1.2.967.967,0,0,0,0,1.4.853.853,0,0,0,1.3,0Z" fill="#ffcc8f"/>
        <path id="Path_76789" data-name="Path 76789" d="M190,298.4l1,1.5a1.071,1.071,0,0,0,1.4.1,1.129,1.129,0,0,0,.3-1.1l-1-1.5a1.012,1.012,0,0,0-1.9.7C189.9,298.2,189.9,298.3,190,298.4Z" fill="#ffcc8f"/>
        <path id="Path_76790" data-name="Path 76790" d="M187.7,296.3a17.233,17.233,0,0,0-2.1.7.962.962,0,1,0,.9,1.7,9.829,9.829,0,0,1,1.6-.5,1.012,1.012,0,0,0,.4-1.4.792.792,0,0,0-.8-.5Z" fill="#ffcc8f"/>
        <path id="Path_76791" data-name="Path 76791" d="M200.5,300.9a1.1,1.1,0,0,0,.8-1.2,1.085,1.085,0,0,0-.8-.8,1.1,1.1,0,0,0-.8,1.2A1.085,1.085,0,0,0,200.5,300.9Z" fill="#aecfff"/>
        <path id="Path_76792" data-name="Path 76792" d="M131,296.3a1.1,1.1,0,0,0,.8-1.2,1.085,1.085,0,0,0-.8-.8,1.1,1.1,0,0,0-.8,1.2A.953.953,0,0,0,131,296.3Z" fill="#aecfff"/>
      </g>
    </g>
  </g>
</svg>
