<svg xmlns="http://www.w3.org/2000/svg" xmlns:xlink="http://www.w3.org/1999/xlink" width="280" height="320" viewBox="0 0 280 320">
  <defs>
    <clipPath id="clip-path">
      <rect id="Rectangle_51" data-name="Rectangle 51" width="278" height="320.288" fill="#f5003a"/>
    </clipPath>
    <clipPath id="clip-path-2">
      <path id="Path_17874" data-name="Path 17874" d="M383.94,264.006l-16.734,3.411a2.754,2.754,0,0,0-1.8,4.128l5.575,9.176a5.448,5.448,0,0,0,5.868,2.482h0a3.194,3.194,0,0,1,3.432,1.441l11.871,19.3a1.955,1.955,0,0,1-1.162,2.913h0a2.753,2.753,0,0,0-1.645,4.091l11.808,19.433a2.3,2.3,0,0,1-.772,3.16,2.269,2.269,0,0,1-.517.233h0a2.755,2.755,0,0,0-1.551,4.049l10.98,18.3a5.448,5.448,0,0,0,6.476,2.337l13.624-4.785a3.186,3.186,0,0,0,1.648-4.692l-12.973-20.817,9.2-2.835-37.586-58.89A5.507,5.507,0,0,0,383.94,264.006Z" transform="translate(-365.001 -263.895)" fill="none"/>
    </clipPath>
    <clipPath id="clip-path-3">
      <path id="Path_17929" data-name="Path 17929" d="M286.113,385.491l-38.782-87.038,69.782-15.634,41.26,79.192Z" transform="translate(-247.331 -282.819)" fill="none"/>
    </clipPath>
    <clipPath id="clip-tiles_how-to-shop-for-car-insurnace_280">
      <rect width="280" height="320"/>
    </clipPath>
  </defs>
  <g id="tiles_how-to-shop-for-car-insurnace_280" clip-path="url(#clip-tiles_how-to-shop-for-car-insurnace_280)">
    <rect width="280" height="320" fill="#fff"/>
    <rect id="Rectangle_50" data-name="Rectangle 50" width="280" height="320" fill="#fc557d"/>
    <g id="Group_1240" data-name="Group 1240" transform="translate(-99.656 11.464)">
      <path id="Path_17863" data-name="Path 17863" d="M449,417.45H233.62L181.884,299.141,449,302.289Z" transform="translate(-65.687 -108.034)" fill="#fc557d"/>
      <path id="Path_17864" data-name="Path 17864" d="M335.242,391.062l63.094-25.948a16.119,16.119,0,0,0,7.339-23.76l-68.9-104.821a22.208,22.208,0,0,0-22.114-9.723L202.078,244.033a18.321,18.321,0,0,0-13.772,25.982L246,391.249Z" transform="translate(-67.363 -81.808)" fill="#8fd8f2"/>
      <path id="Path_17865" data-name="Path 17865" d="M363.329,330.266l44.222,24.859a16.04,16.04,0,0,0-1.876-13.772l-68.9-104.821a22.208,22.208,0,0,0-22.114-9.723L202.078,244.033a18.321,18.321,0,0,0-13.772,25.982L246,391.249l89.246-.187,57.1-23.482-36.366-24.257Z" transform="translate(-67.363 -81.808)" fill="#ff8baf"/>
      <path id="Path_17866" data-name="Path 17866" d="M556.854,425.925l-27.131,4.488-5.826-3.275a16.032,16.032,0,0,1-9.215,9.988l-6,2.467,10.792,7.2,9.173,16.47,38.373-.024Z" transform="translate(-183.709 -153.821)" fill="#e9436f"/>
      <path id="Path_17867" data-name="Path 17867" d="M503.34,413.771l-44.222-24.859-7.356,13.058,36.365,24.257,6-2.467A16.035,16.035,0,0,0,503.34,413.771Z" transform="translate(-163.152 -140.454)" fill="#fc557d"/>
      <path id="Path_17868" data-name="Path 17868" d="M231.407,388.021,177.534,271.916a26.538,26.538,0,0,1,20-37.43l110.6-16.078a31.453,31.453,0,0,1,30.625,13.574l68.992,102.594A23.766,23.766,0,0,1,397.3,369.718l-42.808,18.136" transform="translate(-63.217 -78.758)" fill="none" stroke="#d33575" stroke-miterlimit="10" stroke-width="1"/>
      <path id="Path_17869" data-name="Path 17869" d="M383.94,264.006l-16.734,3.411a2.754,2.754,0,0,0-1.8,4.128l5.575,9.176a5.448,5.448,0,0,0,5.868,2.482h0a3.194,3.194,0,0,1,3.432,1.441l11.871,19.3a1.955,1.955,0,0,1-1.162,2.913h0a2.753,2.753,0,0,0-1.645,4.091l11.808,19.433a2.3,2.3,0,0,1-.772,3.16,2.269,2.269,0,0,1-.517.233h0a2.755,2.755,0,0,0-1.551,4.049l10.98,18.3a5.448,5.448,0,0,0,6.476,2.337l13.624-4.785a3.186,3.186,0,0,0,1.648-4.692l-12.973-20.817,9.2-2.835-37.586-58.89A5.507,5.507,0,0,0,383.94,264.006Z" transform="translate(-131.819 -95.305)" fill="#042647"/>
      <g id="Group_1235" data-name="Group 1235" transform="translate(233.182 168.59)">
        <g id="Group_1234" data-name="Group 1234" clip-path="url(#clip-path-2)">
          <g id="Group_1233" data-name="Group 1233" transform="translate(-2.349 1.643)">
            <path id="Path_17870" data-name="Path 17870" d="M383.94,266.578l-16.734,3.411a2.754,2.754,0,0,0-1.8,4.128l5.575,9.176a5.448,5.448,0,0,0,5.868,2.482h0a3.194,3.194,0,0,1,3.432,1.441l11.871,19.3a1.955,1.955,0,0,1-.641,2.69,1.979,1.979,0,0,1-.521.224h0a2.755,2.755,0,0,0-1.645,4.091l11.808,19.433a2.3,2.3,0,0,1-.772,3.16,2.268,2.268,0,0,1-.517.233h0a2.752,2.752,0,0,0-1.551,4.048l10.98,18.3a5.446,5.446,0,0,0,6.476,2.337l13.624-4.785a3.186,3.186,0,0,0,1.648-4.692l-12.973-20.816,9.2-2.835-37.586-58.89A5.507,5.507,0,0,0,383.94,266.578Z" transform="translate(-362.652 -266.467)" fill="#0a3360"/>
            <path id="Path_17871" data-name="Path 17871" d="M407.156,328.267v1.657l-1.4-.925Z" transform="translate(-377.371 -288.786)" fill="#042647"/>
            <path id="Path_17872" data-name="Path 17872" d="M421.169,371.557v-1.669l-1.658.617Z" transform="translate(-382.338 -303.817)" fill="#042647"/>
            <path id="Path_17873" data-name="Path 17873" d="M431.94,391.941l15.1,11.606,12.555-5.566-2.777-8.414-10.641-6.083Z" transform="translate(-386.827 -308.728)" fill="#042647"/>
            <line id="Line_1" data-name="Line 1" y1="9.709" x2="36.612" transform="translate(29.804 45.552)" fill="none" stroke="#042647" stroke-miterlimit="10" stroke-width="1"/>
            <line id="Line_2" data-name="Line 2" y1="9.857" x2="37.93" transform="translate(14.664 21.746)" fill="none" stroke="#042647" stroke-miterlimit="10" stroke-width="1"/>
            <line id="Line_3" data-name="Line 3" y1="8.232" x2="38.084" transform="translate(0 3.767)" fill="none" stroke="#042647" stroke-miterlimit="10" stroke-width="1"/>
          </g>
        </g>
      </g>
      <path id="Path_17875" data-name="Path 17875" d="M445.427,314.9l-18.373,43.026a6.946,6.946,0,0,0,.51,6.429h0a12.6,12.6,0,0,0,14.451,5.3h0A7.1,7.1,0,0,0,446.4,365.7l21.352-49.544Z" transform="translate(-154.027 -113.725)" fill="#004085"/>
      <path id="Path_17876" data-name="Path 17876" d="M445.429,314.9l-18.373,43.026a6.943,6.943,0,0,0-.14,5.091l20.852-47.986Z" transform="translate(-154.028 -113.725)" fill="#2e63ac"/>
      <path id="Path_17877" data-name="Path 17877" d="M451.761,321.531l10.858,27.8,13.576-31.5L459.45,315.27l-1.95-.11Z" transform="translate(-163.152 -113.819)" fill="#0a3360"/>
      <path id="Path_17878" data-name="Path 17878" d="M453.719,218.389l-.052.034a10.6,10.6,0,0,0-4.7,10.8l3.29,18.257a5.2,5.2,0,0,0,5.438,4.264l3.8-.238,4.112-22.914Z" transform="translate(-162.082 -78.87)" fill="#d88a55"/>
      <path id="Path_17879" data-name="Path 17879" d="M464.826,240.956,467.373,252l2.242-5.3Z" transform="translate(-167.87 -87.02)" fill="#c76e39"/>
      <path id="Path_17880" data-name="Path 17880" d="M467.614,249.94c-7.312,4.013-8.329,14.535-8.329,24.11s18.1,29.146,18.1,29.146,15.573-7.05,15.677-7.366,1.263-28.619,1.263-28.619L479.7,250.48Z" transform="translate(-165.869 -90.265)" fill="#0a3360"/>
      <path id="Path_17881" data-name="Path 17881" d="M495.518,282.8c.323-7.555.652-15.587.652-15.587l-14.625-16.73-12.083-.54a11.778,11.778,0,0,0-2.4,1.744c-4.8,5.306-3.822,21.832,8.842,30.847C481.7,286.659,489.146,285.389,495.518,282.8Z" transform="translate(-167.715 -90.265)" fill="#2e63ac"/>
      <path id="Path_17882" data-name="Path 17882" d="M479.812,261.922s4.868,18.115,4.742,23.2a27.235,27.235,0,0,0,12.47-2.321c.1-2.4.206-4.847.3-7.07L491.2,259.8l-8.152-9.324-12.083-.54a11.8,11.8,0,0,0-2.4,1.745C473.109,252.915,479.812,261.922,479.812,261.922Z" transform="translate(-169.221 -90.265)" fill="#0f5198"/>
      <path id="Path_17883" data-name="Path 17883" d="M537.286,293.42l-9.629-35.4A26.713,26.713,0,0,0,516.9,242.943l-17.655-12.006-10.209-9.046a9.648,9.648,0,0,0-7.864-2.314h0l-4.692-4.105a10.491,10.491,0,0,0-11-1.765l-4.1,1.738h0a8.059,8.059,0,0,0-9.072-.681l-2.823,1.634a4.406,4.406,0,0,0-1.605,6.021,4.458,4.458,0,0,0,.43.615l20.816,24.943,6.318,21.561a6.672,6.672,0,0,1-3.542,7.9h0a8.766,8.766,0,0,1-9.945-1.7,18.154,18.154,0,0,1-4.19-5.907c-1.9-4.907-3.767-10.669-12.755-16.341a5.688,5.688,0,0,0-6.811.562l-.159.146a3.057,3.057,0,0,0-.586,3.723l4.131,7.436,1.5,11.52a15.1,15.1,0,0,0,4.8,9.2l17.027,15.532a48.942,48.942,0,0,0,13.709,8.83l16.664,7.142a9.656,9.656,0,0,1,3.761,2.874l7.089,8.932Z" transform="translate(-157.844 -76.879)" fill="#d88a55"/>
      <line id="Line_4" data-name="Line 4" x1="6.658" y1="8.052" transform="translate(294.663 151.406)" fill="none" stroke="#c76e39" stroke-linecap="round" stroke-linejoin="round" stroke-width="1"/>
      <path id="Path_17884" data-name="Path 17884" d="M541.521,386.621l6.276-7.247-6.215-8.041-6.521,7.148Z" transform="translate(-193.235 -134.106)" fill="#c76e39"/>
      <line id="Line_5" data-name="Line 5" x1="3.437" y1="0.961" transform="translate(294.247 154.494)" fill="none" stroke="#c76e39" stroke-linecap="round" stroke-linejoin="round" stroke-width="1"/>
      <line id="Line_6" data-name="Line 6" x2="26.508" y2="23.635" transform="translate(303.533 138.566)" fill="none" stroke="#c76e39" stroke-linecap="round" stroke-linejoin="round" stroke-width="1"/>
      <line id="Line_7" data-name="Line 7" x2="22.686" y2="20.488" transform="translate(323.328 142.697)" fill="none" stroke="#c76e39" stroke-linecap="round" stroke-linejoin="round" stroke-width="1"/>
      <line id="Line_8" data-name="Line 8" x2="15.287" y2="13.14" transform="translate(341.401 154.058)" fill="none" stroke="#c76e39" stroke-linecap="round" stroke-linejoin="round" stroke-width="1"/>
      <path id="Path_17885" data-name="Path 17885" d="M443.426,284.378a2.469,2.469,0,0,0,.351-3.37c-.456-.6-.969-1.238-1.468-1.8-1.372-1.543-4.76-.852-5.189,1.3a3.039,3.039,0,0,0,.351,1.071l3.418,6.154h0A8.207,8.207,0,0,1,443.426,284.378Z" transform="translate(-157.864 -100.534)" fill="#c76e39"/>
      <path id="Path_17886" data-name="Path 17886" d="M577.474,334.256s-13.636-.336-27.809,14.133-11.906,30.36-11.906,30.36l30.481,51.407,9.234-.025" transform="translate(-194.161 -120.715)" fill="#6bacfb"/>
      <path id="Path_17887" data-name="Path 17887" d="M566.424,426.646c1-21.94,8.722-36.615,20.717-45.061" transform="translate(-204.562 -137.808)" fill="none" stroke="#3b8dfe" stroke-linecap="round" stroke-linejoin="round" stroke-width="1"/>
      <ellipse id="Ellipse_16" data-name="Ellipse 16" cx="2.664" cy="4.794" rx="2.664" ry="4.794" transform="translate(351.361 254.251)" fill="#d7f2f8"/>
      <path id="Path_17888" data-name="Path 17888" d="M553.124,407c-1.007,0-1.823-1.564-1.823-3.493s.816-3.493,1.823-3.493" transform="translate(-199.1 -144.465)" fill="none" stroke="#6bacfb" stroke-linecap="round" stroke-linejoin="round" stroke-width="1"/>
      <line id="Line_9" data-name="Line 9" x2="10.524" y2="2.631" transform="translate(366.231 285.664)" fill="none" stroke="#3b8dfe" stroke-linecap="round" stroke-linejoin="round" stroke-width="1"/>
      <line id="Line_10" data-name="Line 10" y1="4.123" x2="14.643" transform="translate(368.184 275.861)" fill="none" stroke="#3b8dfe" stroke-linecap="round" stroke-linejoin="round" stroke-width="1"/>
      <g id="Group_1239" data-name="Group 1239" transform="translate(158.008 180.68)">
        <g id="Group_1238" data-name="Group 1238">
          <g id="Group_1237" data-name="Group 1237" clip-path="url(#clip-path-3)">
            <g id="Group_1236" data-name="Group 1236" transform="translate(1.159 0.281)">
              <path id="Path_17889" data-name="Path 17889" d="M251.743,305.891a4.145,4.145,0,0,0-1.416.583,2.7,2.7,0,0,0-.883.949,2.513,2.513,0,0,0-.3,1.233,3.608,3.608,0,0,0,.337,1.435,4.508,4.508,0,0,0,.893,1.331,4,4,0,0,0,1.206.846,4.239,4.239,0,0,0,1.411.363,4.873,4.873,0,0,0,1.509-.115c.219-.05.422-.109.606-.169s.351-.127.5-.193a3.942,3.942,0,0,0,.387-.2,2.026,2.026,0,0,0,.267-.185l-.489-.608a2,2,0,0,1-.263.18,3.311,3.311,0,0,1-.333.169c-.121.053-.249.1-.383.147s-.273.084-.415.116a3.837,3.837,0,0,1-1.251.088,3.112,3.112,0,0,1-2.007-1.006,3.767,3.767,0,0,1-.661-1.02,3.18,3.18,0,0,1-.3-1.167,1.882,1.882,0,0,1,.2-.955,1.915,1.915,0,0,1,.657-.71,3.2,3.2,0,0,1,1.069-.433c.149-.033.3-.059.439-.077s.28-.028.413-.032a3.652,3.652,0,0,1,.377.006,3.271,3.271,0,0,1,.335.038l-.075-.716a2.683,2.683,0,0,0-.286-.036,3.97,3.97,0,0,0-.406-.01c-.154,0-.327.014-.517.037a6.236,6.236,0,0,0-.622.108" transform="translate(-249.145 -291.38)" fill="#d33575"/>
              <path id="Path_17890" data-name="Path 17890" d="M263.217,309.872a2.46,2.46,0,0,1-1.062.012,2.9,2.9,0,0,1-.972-.4,3.668,3.668,0,0,1-.816-.72,4.058,4.058,0,0,1-.594-.941,3.794,3.794,0,0,1-.31-1.034,2.319,2.319,0,0,1,.047-.94,1.55,1.55,0,0,1,.45-.742,1.934,1.934,0,0,1,.9-.441,2.488,2.488,0,0,1,1.1,0,2.9,2.9,0,0,1,.972.429,3.743,3.743,0,0,1,.794.728,4.141,4.141,0,0,1,.565.9,3.719,3.719,0,0,1,.314,1.05,2.261,2.261,0,0,1-.056.937,1.573,1.573,0,0,1-.453.732,1.92,1.92,0,0,1-.873.433m-2.622-5.884a3.181,3.181,0,0,0-1.208.531,2.325,2.325,0,0,0-.742.906,2.559,2.559,0,0,0-.216,1.206,3.987,3.987,0,0,0,.372,1.43,4.7,4.7,0,0,0,.832,1.264,4.244,4.244,0,0,0,1.124.871,3.944,3.944,0,0,0,1.314.427,3.871,3.871,0,0,0,1.4-.065,3.3,3.3,0,0,0,1.181-.512,2.311,2.311,0,0,0,.753-.88,2.464,2.464,0,0,0,.226-1.209,4.143,4.143,0,0,0-.4-1.5,4.747,4.747,0,0,0-.815-1.236,4.21,4.21,0,0,0-1.1-.862,3.888,3.888,0,0,0-1.3-.432,3.945,3.945,0,0,0-1.42.059" transform="translate(-252.496 -290.71)" fill="#d33575"/>
              <path id="Path_17891" data-name="Path 17891" d="M275.392,300.4l-1.142.256.161,3.3c.014.216.029.425.045.626s.035.4.056.588.042.374.067.551.052.352.081.52l-.036.008q-.179-.229-.373-.464t-.4-.478q-.211-.243-.437-.5t-.471-.518l-2.592-2.758-1.158.26L271.6,308.2l.869-.2L271.4,305.25c-.093-.241-.189-.487-.287-.735s-.2-.5-.3-.737-.2-.479-.29-.7-.185-.439-.27-.636l.02,0q.2.263.426.535t.467.553q.243.283.5.574t.539.6l2.527,2.742.684-.158-.183-3.335q-.02-.354-.045-.69c-.016-.224-.034-.443-.052-.656s-.04-.423-.063-.627-.047-.4-.073-.6l.031-.007c.088.195.188.406.3.625s.224.448.344.68.243.465.365.7.243.456.359.671l1.462,2.72.878-.2-3.353-6.149" transform="translate(-256.384 -289.449)" fill="#d33575"/>
              <path id="Path_17892" data-name="Path 17892" d="M284.845,302.216c-.075.017-.146.032-.215.045s-.135.024-.2.033-.125.015-.185.02-.116.006-.171.006l-1.137-2.418a1.366,1.366,0,0,1,.129-.057c.052-.02.112-.042.181-.063s.145-.044.229-.066.174-.045.272-.066a2.884,2.884,0,0,1,.7-.075,1.937,1.937,0,0,1,.617.11,1.5,1.5,0,0,1,.506.305,1.628,1.628,0,0,1,.368.509,1.405,1.405,0,0,1,.15.595.887.887,0,0,1-.145.493,1.2,1.2,0,0,1-.422.379,2.471,2.471,0,0,1-.68.251m-1.416-3.2q-.269.06-.5.124t-.441.128q-.205.064-.381.128c-.118.043-.225.085-.326.126l2.891,6.164.894-.207-1.177-2.506c.057,0,.116,0,.175-.009s.121-.013.183-.024.125-.021.19-.034l.2-.043a4.2,4.2,0,0,0,.608-.187,2.938,2.938,0,0,0,.512-.259,2.03,2.03,0,0,0,.4-.326,1.465,1.465,0,0,0,.264-.388,1.254,1.254,0,0,0,.1-.317,1.369,1.369,0,0,0,.019-.347,1.787,1.787,0,0,0-.067-.376,2.561,2.561,0,0,0-.154-.4,2.439,2.439,0,0,0-.227-.386,2.283,2.283,0,0,0-.284-.325,2.2,2.2,0,0,0-.7-.448,2.559,2.559,0,0,0-.454-.142,3.087,3.087,0,0,0-.514-.064,3.977,3.977,0,0,0-.572.018,5.291,5.291,0,0,0-.631.1" transform="translate(-260.929 -288.905)" fill="#d33575"/>
              <path id="Path_17893" data-name="Path 17893" d="M292.9,301.12l-.179-1.941c-.012-.1-.026-.2-.04-.3s-.03-.2-.047-.3-.033-.2-.051-.3-.036-.2-.054-.294l.02,0,.208.252.213.257c.073.087.148.175.226.264s.16.18.245.272l1.517,1.625-2.058.47m-.135-3.963-1.065.239.619,6.723.912-.211-.216-2.124,2.419-.554,1.657,1.784.938-.217-5.265-5.641" transform="translate(-264.513 -288.278)" fill="#d33575"/>
              <path id="Path_17894" data-name="Path 17894" d="M300.812,298.352l-1.076-2.237a1.163,1.163,0,0,1,.121-.056c.05-.02.11-.043.18-.066s.148-.047.236-.072.185-.048.289-.072a2.935,2.935,0,0,1,.664-.07,1.894,1.894,0,0,1,.588.1,1.427,1.427,0,0,1,.486.281,1.537,1.537,0,0,1,.358.482,1.141,1.141,0,0,1,.125.5.816.816,0,0,1-.126.436,1.067,1.067,0,0,1-.363.344,1.968,1.968,0,0,1-.589.227l-.891.2m-.6-3.1c-.15.034-.3.071-.447.111s-.293.082-.431.125-.272.088-.395.134-.236.091-.337.136l2.918,6.071.875-.2-1.286-2.67.822-.188a2.107,2.107,0,0,1,.552-.039,1.382,1.382,0,0,1,.481.123,1.752,1.752,0,0,1,.445.3,3.672,3.672,0,0,1,.447.5c.14.181.27.348.39.5s.229.285.326.4.185.215.259.294a1.734,1.734,0,0,0,.187.176l.9-.208a2.32,2.32,0,0,1-.229-.218q-.132-.141-.3-.341c-.111-.132-.235-.284-.371-.452s-.282-.355-.441-.556a3.7,3.7,0,0,0-.362-.407,2.633,2.633,0,0,0-.383-.31,1.932,1.932,0,0,0-.408-.2,1.678,1.678,0,0,0-.434-.092l-.013-.027a1.64,1.64,0,0,0,.39-.337,1.282,1.282,0,0,0,.239-.429,1.258,1.258,0,0,0,.052-.509,1.7,1.7,0,0,0-.171-.576,2.2,2.2,0,0,0-.2-.333,2.132,2.132,0,0,0-.253-.289,2.045,2.045,0,0,0-.3-.237,1.959,1.959,0,0,0-.336-.177,2.455,2.455,0,0,0-.457-.145,2.812,2.812,0,0,0-.507-.059,3.96,3.96,0,0,0-.571.026,6.244,6.244,0,0,0-.651.113" transform="translate(-267.005 -287.54)" fill="#d33575"/>
              <path id="Path_17895" data-name="Path 17895" d="M310.522,292.855l-3.6.806,2.972,6.11,3.752-.868-.326-.664-2.886.665-1.075-2.206,2.591-.59-.318-.647-2.59.588-.938-1.926,2.734-.615-.32-.653" transform="translate(-270.013 -286.725)" fill="#d33575"/>
              <path id="Path_17896" data-name="Path 17896" d="M321.17,290.389a3.546,3.546,0,0,0-1.28.541,2.234,2.234,0,0,0-.974,2.049,3.633,3.633,0,0,0,.39,1.354,4.68,4.68,0,0,0,.9,1.26,4.033,4.033,0,0,0,2.484,1.159,4.391,4.391,0,0,0,1.388-.1c.2-.046.383-.1.551-.156a4.4,4.4,0,0,0,.451-.178,3.108,3.108,0,0,0,.347-.183,1.738,1.738,0,0,0,.237-.172l-.481-.578a1.716,1.716,0,0,1-.236.169,2.817,2.817,0,0,1-.3.156,3.474,3.474,0,0,1-.345.135c-.121.041-.247.077-.376.107a3.444,3.444,0,0,1-1.155.074,3.027,3.027,0,0,1-1.037-.307,3.208,3.208,0,0,1-.875-.655,3.868,3.868,0,0,1-.667-.966,3.2,3.2,0,0,1-.341-1.1,1.749,1.749,0,0,1,.134-.9,1.629,1.629,0,0,1,.57-.665,2.731,2.731,0,0,1,.967-.4q.2-.044.4-.069c.13-.015.257-.024.378-.027a3.446,3.446,0,0,1,.349.009,3.006,3.006,0,0,1,.311.038l-.108-.675c-.088-.017-.177-.029-.266-.036-.125-.01-.25-.015-.375-.013a4.546,4.546,0,0,0-.475.032,5.315,5.315,0,0,0-.566.1" transform="translate(-274.34 -285.787)" fill="#d33575"/>
              <path id="Path_17897" data-name="Path 17897" d="M331.981,294.22a2.238,2.238,0,0,1-.981,0,2.835,2.835,0,0,1-.919-.387,3.721,3.721,0,0,1-.792-.685,4.215,4.215,0,0,1-.6-.891,3.863,3.863,0,0,1-.344-.977,2.209,2.209,0,0,1-.009-.885,1.351,1.351,0,0,1,.373-.7,1.641,1.641,0,0,1,.8-.409,2.257,2.257,0,0,1,1.016.008,2.858,2.858,0,0,1,.924.41,3.861,3.861,0,0,1,.776.692,4.246,4.246,0,0,1,.571.852,3.717,3.717,0,0,1,.348.992,2.155,2.155,0,0,1,0,.884,1.371,1.371,0,0,1-.38.687,1.634,1.634,0,0,1-.785.4m-2.745-5.565a2.7,2.7,0,0,0-1.086.492,2,2,0,0,0-.637.849,2.391,2.391,0,0,0-.135,1.137,4,4,0,0,0,.421,1.351,4.873,4.873,0,0,0,.838,1.2,4.342,4.342,0,0,0,1.086.829,3.824,3.824,0,0,0,1.238.411,3.488,3.488,0,0,0,1.292-.051,2.821,2.821,0,0,0,1.066-.475,1.979,1.979,0,0,0,.65-.825,2.29,2.29,0,0,0,.144-1.138,4.162,4.162,0,0,0-.452-1.415,4.914,4.914,0,0,0-.821-1.171,4.3,4.3,0,0,0-1.066-.82,3.753,3.753,0,0,0-1.229-.415,3.547,3.547,0,0,0-1.31.046" transform="translate(-277.392 -285.177)" fill="#d33575"/>
              <path id="Path_17898" data-name="Path 17898" d="M338.656,286.593a2.45,2.45,0,0,0-.786.312,1.458,1.458,0,0,0-.483.484,1.164,1.164,0,0,0-.163.6,1.525,1.525,0,0,0,.177.677,1.917,1.917,0,0,0,.406.542,2.239,2.239,0,0,0,.571.383,3.548,3.548,0,0,0,.72.246,6.206,6.206,0,0,0,.854.13,5.477,5.477,0,0,1,.675.112,2.394,2.394,0,0,1,.508.177,1.341,1.341,0,0,1,.628.62,1.015,1.015,0,0,1,.119.432.7.7,0,0,1-.1.381.908.908,0,0,1-.314.305,1.775,1.775,0,0,1-.529.206,3.051,3.051,0,0,1-.436.066,3.608,3.608,0,0,1-.44.008,3.763,3.763,0,0,1-.423-.042,3.443,3.443,0,0,1-.384-.081l.118.7a2.459,2.459,0,0,0,.39.076,4.03,4.03,0,0,0,.464.029,4.585,4.585,0,0,0,.5-.023,3.887,3.887,0,0,0,.486-.079,2.817,2.817,0,0,0,.917-.368,1.462,1.462,0,0,0,.508-.537,1.219,1.219,0,0,0,.137-.643,1.736,1.736,0,0,0-.2-.687,2.222,2.222,0,0,0-.4-.563,2.179,2.179,0,0,0-.547-.4,3.321,3.321,0,0,0-.7-.261,6.28,6.28,0,0,0-.87-.152c-.261-.03-.491-.063-.692-.106a2.785,2.785,0,0,1-.524-.16,1.363,1.363,0,0,1-.38-.241,1.229,1.229,0,0,1-.262-.351.838.838,0,0,1-.091-.325.657.657,0,0,1,.065-.334.769.769,0,0,1,.267-.294,1.508,1.508,0,0,1,.516-.207,2.972,2.972,0,0,1,.418-.062,3.225,3.225,0,0,1,.377-.005c.117.005.224.016.319.029s.176.029.241.043l-.092-.671a2.68,2.68,0,0,0-.3-.052,3.523,3.523,0,0,0-.366-.021,3.722,3.722,0,0,0-.422.022,4.148,4.148,0,0,0-.469.077" transform="translate(-280.955 -284.427)" fill="#d33575"/>
              <path id="Path_17899" data-name="Path 17899" d="M347.46,284.438l-4.683,1.05.33.646,1.929-.434,2.707,5.273.829-.192-2.709-5.267,1.928-.434-.332-.641" transform="translate(-282.96 -283.685)" fill="#d33575"/>
              <path id="Path_17900" data-name="Path 17900" d="M353.134,283.356a2.378,2.378,0,0,0-.767.306,1.415,1.415,0,0,0-.468.477,1.143,1.143,0,0,0-.151.6,1.528,1.528,0,0,0,.182.668,1.969,1.969,0,0,0,.406.536,2.264,2.264,0,0,0,.565.379,3.413,3.413,0,0,0,.711.244,6.04,6.04,0,0,0,.842.13,5.29,5.29,0,0,1,.664.111,2.4,2.4,0,0,1,.5.176,1.354,1.354,0,0,1,.622.614,1.013,1.013,0,0,1,.123.427.682.682,0,0,1-.092.376.883.883,0,0,1-.3.3,1.716,1.716,0,0,1-.517.2,2.921,2.921,0,0,1-.427.065,3.464,3.464,0,0,1-.431.006,3.923,3.923,0,0,1-.416-.042,3.5,3.5,0,0,1-.381-.08l.128.69a2.429,2.429,0,0,0,.383.077,4.031,4.031,0,0,0,.456.029,4.412,4.412,0,0,0,.487-.022,3.838,3.838,0,0,0,.475-.076,2.747,2.747,0,0,0,.9-.362,1.408,1.408,0,0,0,.492-.529,1.2,1.2,0,0,0,.125-.634,1.723,1.723,0,0,0-.2-.678,2.245,2.245,0,0,0-.4-.556,2.177,2.177,0,0,0-.541-.394,3.225,3.225,0,0,0-.692-.259,6.179,6.179,0,0,0-.857-.152c-.257-.029-.483-.063-.681-.105a2.689,2.689,0,0,1-.517-.159,1.347,1.347,0,0,1-.377-.239,1.221,1.221,0,0,1-.262-.347.845.845,0,0,1-.094-.321.651.651,0,0,1,.059-.33.734.734,0,0,1,.258-.29,1.441,1.441,0,0,1,.5-.2,2.9,2.9,0,0,1,.413-.061,2.993,2.993,0,0,1,.371-.005c.115.005.22.017.312.029s.172.029.236.043l-.094-.663a2.678,2.678,0,0,0-.3-.052,3.234,3.234,0,0,0-.36-.022,3.742,3.742,0,0,0-.415.021,3.872,3.872,0,0,0-.461.076" transform="translate(-286.2 -283.259)" fill="#d33575"/>
              <path id="Path_17901" data-name="Path 17901" d="M305.8,342.716l-.259.065c-.085.02-.167.039-.247.056s-.155.031-.227.042-.139.02-.2.026l-2.424-5.147c.055-.027.116-.056.185-.084s.145-.059.229-.089.176-.06.275-.09.208-.06.323-.089a4.317,4.317,0,0,1,1.323-.139,3.05,3.05,0,0,1,1.115.277,2.922,2.922,0,0,1,.894.654,3.776,3.776,0,0,1,.66.992,3.677,3.677,0,0,1,.364,1.22,1.855,1.855,0,0,1-.825,1.792,3.644,3.644,0,0,1-1.185.515m-2.7-5.967c-.178.045-.349.092-.516.142s-.327.1-.481.155-.3.107-.445.161-.277.109-.405.162l3.02,6.424q.18-.026.374-.061t.4-.077q.209-.043.434-.1c.15-.035.305-.074.466-.116a6.775,6.775,0,0,0,.929-.311,4.593,4.593,0,0,0,.754-.4,3.089,3.089,0,0,0,.569-.479,2.2,2.2,0,0,0,.373-.549,2.416,2.416,0,0,0,.19-.611,2.79,2.79,0,0,0,.03-.673,3.6,3.6,0,0,0-.132-.727,5.169,5.169,0,0,0-.709-1.488,4.128,4.128,0,0,0-.489-.577,3.782,3.782,0,0,0-.557-.451,3.953,3.953,0,0,0-.619-.333,3.639,3.639,0,0,0-.677-.219,4.27,4.27,0,0,0-.754-.092,5.459,5.459,0,0,0-.836.039,7.428,7.428,0,0,0-.922.174" transform="translate(-267.962 -302.499)" fill="#d33575"/>
              <path id="Path_17902" data-name="Path 17902" d="M312.784,334.654l-.887.224,3.089,6.472.89-.231-3.091-6.464" transform="translate(-271.808 -301.82)" fill="#d33575"/>
              <path id="Path_17903" data-name="Path 17903" d="M317.886,333.008a2.675,2.675,0,0,0-.841.36,1.671,1.671,0,0,0-.521.54,1.348,1.348,0,0,0-.182.666,1.667,1.667,0,0,0,.175.735,2,2,0,0,0,.42.583,2.277,2.277,0,0,0,.6.406,3.538,3.538,0,0,0,.758.252,6.142,6.142,0,0,0,.9.123,5.49,5.49,0,0,1,.714.106,2.408,2.408,0,0,1,.536.181,1.4,1.4,0,0,1,.387.275,1.435,1.435,0,0,1,.268.388,1.1,1.1,0,0,1,.119.47.807.807,0,0,1-.111.42,1.047,1.047,0,0,1-.339.342,1.924,1.924,0,0,1-.565.238,3.27,3.27,0,0,1-.464.083,3.668,3.668,0,0,1-.466.019,3.889,3.889,0,0,1-.448-.035,3.556,3.556,0,0,1-.409-.079l.111.763a2.521,2.521,0,0,0,.413.074,4.243,4.243,0,0,0,.494.02,5.007,5.007,0,0,0,.527-.037,4.138,4.138,0,0,0,.515-.1,3.086,3.086,0,0,0,.98-.425,1.671,1.671,0,0,0,.549-.6,1.4,1.4,0,0,0,.158-.707,1.876,1.876,0,0,0-.2-.747,2.34,2.34,0,0,0-.417-.607,2.2,2.2,0,0,0-.572-.422,3.231,3.231,0,0,0-.74-.268,6.352,6.352,0,0,0-.924-.145c-.277-.026-.519-.058-.732-.1a2.742,2.742,0,0,1-.553-.162,1.345,1.345,0,0,1-.4-.255,1.252,1.252,0,0,1-.271-.378.9.9,0,0,1-.091-.353.76.76,0,0,1,.075-.367.885.885,0,0,1,.289-.328,1.664,1.664,0,0,1,.551-.239,3.1,3.1,0,0,1,.445-.077,3.211,3.211,0,0,1,.4-.015c.124,0,.238.012.337.024s.187.027.256.042l-.085-.732a2.679,2.679,0,0,0-.319-.05,3.253,3.253,0,0,0-.387-.015,3.9,3.9,0,0,0-.448.034,4.475,4.475,0,0,0-.5.1" transform="translate(-273.414 -301.179)" fill="#d33575"/>
              <path id="Path_17904" data-name="Path 17904" d="M326.99,330.583a3.641,3.641,0,0,0-1.313.6,2.482,2.482,0,0,0-.783.965,2.574,2.574,0,0,0-.209,1.244,3.936,3.936,0,0,0,.408,1.439,4.878,4.878,0,0,0,.931,1.329,4.1,4.1,0,0,0,1.2.838,4.009,4.009,0,0,0,1.365.349,4.355,4.355,0,0,0,1.428-.132,5.889,5.889,0,0,0,.567-.178,4.7,4.7,0,0,0,.463-.2,3.429,3.429,0,0,0,.356-.2,1.833,1.833,0,0,0,.243-.188l-.5-.608a1.8,1.8,0,0,1-.241.185,2.946,2.946,0,0,1-.306.173,3.769,3.769,0,0,1-.355.151c-.125.046-.254.087-.387.121a3.419,3.419,0,0,1-1.188.1,2.993,2.993,0,0,1-1.069-.307,3.243,3.243,0,0,1-.9-.682,4.088,4.088,0,0,1-.691-1.018,3.458,3.458,0,0,1-.355-1.17,1.94,1.94,0,0,1,.134-.963,1.77,1.77,0,0,1,.583-.722,2.806,2.806,0,0,1,.99-.447,3.888,3.888,0,0,1,.411-.082,3.777,3.777,0,0,1,.389-.037,3.388,3.388,0,0,1,.36,0,3.072,3.072,0,0,1,.323.034l-.119-.718a2.423,2.423,0,0,0-.271-.034c-.128-.008-.257-.011-.385-.006a4.844,4.844,0,0,0-.489.043,5.554,5.554,0,0,0-.585.116" transform="translate(-276.423 -300.292)" fill="#d33575"/>
              <path id="Path_17905" data-name="Path 17905" d="M338.134,334.465a2.224,2.224,0,0,1-1.009.023,2.817,2.817,0,0,1-.948-.394,3.818,3.818,0,0,1-.818-.716,4.432,4.432,0,0,1-.622-.94,4.159,4.159,0,0,1-.359-1.036,2.44,2.44,0,0,1-.015-.946,1.483,1.483,0,0,1,.381-.751,1.7,1.7,0,0,1,.826-.453,2.24,2.24,0,0,1,1.045-.012,2.831,2.831,0,0,1,.952.419,3.914,3.914,0,0,1,.8.722,4.451,4.451,0,0,1,.592.9,4.056,4.056,0,0,1,.364,1.055,2.4,2.4,0,0,1,0,.945,1.514,1.514,0,0,1-.387.742,1.69,1.69,0,0,1-.806.445m-2.854-5.888a2.779,2.779,0,0,0-1.114.547,2.17,2.17,0,0,0-.651.92,2.655,2.655,0,0,0-.132,1.216,4.315,4.315,0,0,0,.44,1.434,5.071,5.071,0,0,0,.87,1.262,4.394,4.394,0,0,0,1.123.862,3.766,3.766,0,0,0,1.276.414,3.438,3.438,0,0,0,1.326-.081,2.9,2.9,0,0,0,1.094-.529,2.138,2.138,0,0,0,.664-.894,2.537,2.537,0,0,0,.142-1.218,4.509,4.509,0,0,0-.473-1.5,5.137,5.137,0,0,0-.851-1.234,4.362,4.362,0,0,0-1.1-.855,3.733,3.733,0,0,0-1.266-.419,3.536,3.536,0,0,0-1.348.076" transform="translate(-279.56 -299.586)" fill="#d33575"/>
              <path id="Path_17906" data-name="Path 17906" d="M347.665,325.282l-.853.215,1.862,3.7a3.7,3.7,0,0,1,.339.928,1.524,1.524,0,0,1-.008.708.983.983,0,0,1-.321.494,1.515,1.515,0,0,1-.6.289,1.733,1.733,0,0,1-.668.043,1.785,1.785,0,0,1-.666-.235,2.512,2.512,0,0,1-.633-.543,4.284,4.284,0,0,1-.57-.88l-1.857-3.718-.861.217,1.847,3.7a5.193,5.193,0,0,0,.8,1.2,3.2,3.2,0,0,0,.915.709,2.642,2.642,0,0,0,.985.275,3.067,3.067,0,0,0,1.011-.1,2.638,2.638,0,0,0,.911-.412,1.578,1.578,0,0,0,.543-.69,1.909,1.909,0,0,0,.094-.981,4.21,4.21,0,0,0-.436-1.287l-1.835-3.643" transform="translate(-282.978 -298.435)" fill="#d33575"/>
              <path id="Path_17907" data-name="Path 17907" d="M357.532,322.788l-.785.2,1.32,2.589c.124.243.242.471.357.691s.228.43.341.636.227.406.343.6.237.4.363.6l-.015.014q-.237-.21-.49-.42t-.524-.425q-.272-.215-.566-.434t-.612-.446l-3.669-2.618-.92.232,3.159,6.253.793-.206-1.355-2.678c-.132-.261-.256-.5-.374-.73s-.231-.443-.341-.648-.219-.4-.326-.6-.216-.386-.328-.579l.024-.017c.167.147.342.3.523.443s.369.3.56.445.387.3.585.443.4.292.6.436l3.666,2.644.843-.22-3.171-6.212" transform="translate(-286.535 -297.535)" fill="#d33575"/>
              <path id="Path_17908" data-name="Path 17908" d="M366.129,320.635l-4.729,1.194.346.675,1.948-.493,2.832,5.517.837-.218-2.834-5.51,1.946-.493-.346-.671" transform="translate(-289.686 -296.757)" fill="#d33575"/>
              <path id="Path_17909" data-name="Path 17909" d="M371.863,319.415a2.345,2.345,0,0,0-.772.337,1.467,1.467,0,0,0-.466.512,1.247,1.247,0,0,0-.143.633,1.656,1.656,0,0,0,.2.7,2.053,2.053,0,0,0,.42.558,2.292,2.292,0,0,0,.579.39,3.453,3.453,0,0,0,.724.244,5.854,5.854,0,0,0,.855.121,5.217,5.217,0,0,1,.675.105,2.329,2.329,0,0,1,.51.177,1.407,1.407,0,0,1,.374.264,1.492,1.492,0,0,1,.268.372,1.1,1.1,0,0,1,.132.448.746.746,0,0,1-.086.4.913.913,0,0,1-.3.324,1.685,1.685,0,0,1-.521.222,2.833,2.833,0,0,1-.432.076,3.441,3.441,0,0,1-.437.015,3.742,3.742,0,0,1-.422-.036,3.639,3.639,0,0,1-.387-.078l.142.726a2.366,2.366,0,0,0,.388.073,4,4,0,0,0,.463.022,4.388,4.388,0,0,0,.493-.032,3.714,3.714,0,0,0,.479-.089,2.737,2.737,0,0,0,.9-.4,1.468,1.468,0,0,0,.489-.567,1.309,1.309,0,0,0,.116-.672,1.875,1.875,0,0,0-.217-.712,2.366,2.366,0,0,0-.417-.58,2.222,2.222,0,0,0-.555-.406,3.261,3.261,0,0,0-.706-.261,6.067,6.067,0,0,0-.871-.144,6.911,6.911,0,0,1-.692-.1,2.61,2.61,0,0,1-.526-.158,1.357,1.357,0,0,1-.386-.245,1.286,1.286,0,0,1-.271-.362.918.918,0,0,1-.1-.337.709.709,0,0,1,.054-.349.768.768,0,0,1,.256-.311,1.434,1.434,0,0,1,.5-.224,2.807,2.807,0,0,1,.417-.072,3.084,3.084,0,0,1,.376-.012,2.915,2.915,0,0,1,.317.026c.094.012.175.027.24.041l-.107-.7a2.573,2.573,0,0,0-.3-.049,3.177,3.177,0,0,0-.365-.017,3.689,3.689,0,0,0-.42.029,3.975,3.975,0,0,0-.466.089" transform="translate(-292.965 -296.273)" fill="#d33575"/>
              <path id="Path_17910" data-name="Path 17910" d="M318.479,384.841c-.09.026-.179.051-.265.074s-.171.045-.251.064-.158.036-.232.05-.142.024-.205.031l-2.535-5.432c.055-.029.118-.061.188-.093s.148-.065.233-.1.179-.068.28-.1.211-.068.33-.1a4.245,4.245,0,0,1,1.352-.174,3,3,0,0,1,1.144.273,2.964,2.964,0,0,1,.922.678,4.473,4.473,0,0,1,1.071,2.334,2.169,2.169,0,0,1-.147,1.082,2.07,2.07,0,0,1-.677.842,3.7,3.7,0,0,1-1.207.572m-2.828-6.3q-.271.076-.526.16c-.17.056-.333.114-.491.173s-.309.119-.453.18-.282.123-.411.183l3.157,6.778q.184-.032.382-.072c.132-.027.269-.057.411-.091s.29-.07.443-.111.312-.084.476-.132a6.891,6.891,0,0,0,.948-.35,4.693,4.693,0,0,0,.768-.44,3.193,3.193,0,0,0,.577-.521,2.331,2.331,0,0,0,.373-.592,2.657,2.657,0,0,0,.187-.655,3.1,3.1,0,0,0,.022-.718,3.965,3.965,0,0,0-.142-.772,5.4,5.4,0,0,0-.31-.816,5.242,5.242,0,0,0-.431-.751,4.241,4.241,0,0,0-.506-.6,3.822,3.822,0,0,0-.574-.468,3.864,3.864,0,0,0-.636-.342,3.54,3.54,0,0,0-.694-.219,4.129,4.129,0,0,0-.772-.083,5.317,5.317,0,0,0-.854.058,7.3,7.3,0,0,0-.942.2" transform="translate(-272.484 -317.576)" fill="#d33575"/>
              <path id="Path_17911" data-name="Path 17911" d="M328.4,374.873l-3.772,1.068,3.232,6.831,3.937-1.147-.354-.742-3.028.879-1.168-2.464,2.713-.78-.347-.728-2.713.777-1.018-2.146,2.869-.815-.351-.733" transform="translate(-276.404 -316.345)" fill="#d33575"/>
              <path id="Path_17912" data-name="Path 17912" d="M337.351,379.424l-.259.073c-.084.022-.166.043-.245.062s-.155.035-.226.048-.139.024-.2.031l-2.562-5.345c.054-.029.114-.06.182-.091s.144-.064.227-.1.174-.066.273-.1.206-.066.321-.1a4.121,4.121,0,0,1,1.321-.168,2.911,2.911,0,0,1,2.036.939,4.5,4.5,0,0,1,1.083,2.3,2.126,2.126,0,0,1-.127,1.063,1.991,1.991,0,0,1-.65.826,3.542,3.542,0,0,1-1.173.56m-2.862-6.2c-.176.05-.347.1-.512.157s-.325.111-.478.169-.3.116-.441.176-.274.119-.4.179l3.191,6.67c.119-.02.244-.044.372-.07s.263-.056.4-.088.282-.068.432-.108.3-.082.464-.128a6.572,6.572,0,0,0,.922-.342,4.431,4.431,0,0,0,.744-.431,3.058,3.058,0,0,0,.556-.51,2.246,2.246,0,0,0,.358-.581,2.559,2.559,0,0,0,.174-.643,3.029,3.029,0,0,0,.012-.705,3.935,3.935,0,0,0-.151-.759,5.323,5.323,0,0,0-.316-.8,5.214,5.214,0,0,0-.432-.739,4.269,4.269,0,0,0-.5-.6,3.87,3.87,0,0,0-1.2-.8,3.566,3.566,0,0,0-.684-.217,4.066,4.066,0,0,0-.756-.083,5.15,5.15,0,0,0-.836.055,6.943,6.943,0,0,0-.919.2" transform="translate(-279.306 -315.659)" fill="#d33575"/>
              <path id="Path_17913" data-name="Path 17913" d="M348.229,369.063l-.88.249,1.935,3.948a3.984,3.984,0,0,1,.352.991,1.693,1.693,0,0,1-.007.762,1.088,1.088,0,0,1-.333.54,1.594,1.594,0,0,1-.624.325,1.726,1.726,0,0,1-.693.061,1.777,1.777,0,0,1-.691-.238,2.562,2.562,0,0,1-.657-.57,4.477,4.477,0,0,1-.592-.935l-1.929-3.965-.892.253,1.918,3.95a5.452,5.452,0,0,0,.833,1.276,3.229,3.229,0,0,0,.95.743,2.612,2.612,0,0,0,1.022.275,3.078,3.078,0,0,0,1.048-.127,2.745,2.745,0,0,0,.944-.463,1.737,1.737,0,0,0,.561-.754,2.15,2.15,0,0,0,.095-1.058,4.567,4.567,0,0,0-.454-1.375l-1.907-3.884" transform="translate(-283.12 -314.247)" fill="#d33575"/>
              <path id="Path_17914" data-name="Path 17914" d="M356.942,366.741a3.532,3.532,0,0,0-1.3.654,2.556,2.556,0,0,0-.758,1.023,2.8,2.8,0,0,0-.177,1.306,4.273,4.273,0,0,0,.446,1.5,5.158,5.158,0,0,0,.967,1.376,4.163,4.163,0,0,0,1.222.856,3.888,3.888,0,0,0,1.376.342,4.161,4.161,0,0,0,1.427-.164,5.6,5.6,0,0,0,.561-.195,4.645,4.645,0,0,0,.459-.217,3.327,3.327,0,0,0,.351-.219,1.773,1.773,0,0,0,.236-.2l-.515-.627a1.847,1.847,0,0,1-.237.2,3.006,3.006,0,0,1-.3.187,3.66,3.66,0,0,1-.351.165,3.91,3.91,0,0,1-.385.134,3.287,3.287,0,0,1-1.185.128,2.932,2.932,0,0,1-1.078-.3,3.308,3.308,0,0,1-.922-.7,4.347,4.347,0,0,1-.719-1.055,3.8,3.8,0,0,1-.387-1.22,2.117,2.117,0,0,1,.109-1.011,1.822,1.822,0,0,1,.564-.766,2.73,2.73,0,0,1,.981-.486,4.04,4.04,0,0,1,.409-.093,3.783,3.783,0,0,1,.389-.045,3.6,3.6,0,0,1,.361,0,3.061,3.061,0,0,1,.325.031l-.138-.749a2.282,2.282,0,0,0-.272-.031,3.539,3.539,0,0,0-.386,0,4.5,4.5,0,0,0-.49.054,5.364,5.364,0,0,0-.583.131" transform="translate(-287.263 -313.339)" fill="#d33575"/>
              <path id="Path_17915" data-name="Path 17915" d="M366.594,363.882l-4.908,1.389.361.724,2.025-.575,2.94,5.876.868-.253-2.942-5.868,2.017-.572-.362-.719" transform="translate(-289.789 -312.376)" fill="#d33575"/>
              <path id="Path_17916" data-name="Path 17916" d="M371.36,363.182l-.849.24,3.31,6.565.851-.248-3.312-6.558" transform="translate(-292.976 -312.123)" fill="#d33575"/>
              <path id="Path_17917" data-name="Path 17917" d="M378.744,367.632l-.216.061c-.068.018-.134.035-.194.049s-.118.026-.172.036-.1.017-.149.022l-1.266-2.5.7-.2a2.913,2.913,0,0,1,.687-.116,2.076,2.076,0,0,1,.648.07,1.565,1.565,0,0,1,.56.286,1.609,1.609,0,0,1,.424.532,1.347,1.347,0,0,1,.169.641.882.882,0,0,1-.17.5,1.368,1.368,0,0,1-.425.369,2.691,2.691,0,0,1-.6.247m-2.324-2.969-1.063-2.095c.031-.017.068-.035.111-.055s.092-.042.15-.064.124-.047.2-.072.161-.052.258-.079a2.766,2.766,0,0,1,.613-.107,1.653,1.653,0,0,1,.546.057,1.221,1.221,0,0,1,.459.245,1.456,1.456,0,0,1,.352.457,1.087,1.087,0,0,1,.126.461.83.83,0,0,1-.1.424,1.043,1.043,0,0,1-.327.355,1.854,1.854,0,0,1-.555.253l-.768.22m-.722-3c-.148.042-.294.088-.434.135s-.275.1-.4.146-.245.1-.352.149-.2.1-.286.145l3.26,6.434c.076-.011.162-.025.257-.043s.2-.038.314-.063.236-.054.367-.087.268-.071.413-.113a6.4,6.4,0,0,0,.722-.253,3.576,3.576,0,0,0,.561-.294,2.083,2.083,0,0,0,.406-.339,1.421,1.421,0,0,0,.254-.387,1.539,1.539,0,0,0,.112-.676,1.744,1.744,0,0,0-.066-.38,2.246,2.246,0,0,0-1.175-1.405,2.447,2.447,0,0,0-.6-.2,2.4,2.4,0,0,0-.565-.048l-.01-.019a1.567,1.567,0,0,0,.339-.375,1.291,1.291,0,0,0,.19-.9,1.541,1.541,0,0,0-.155-.472,2.19,2.19,0,0,0-.22-.348,1.973,1.973,0,0,0-.266-.281,1.905,1.905,0,0,0-.638-.364,2.424,2.424,0,0,0-.439-.116,2.6,2.6,0,0,0-.473-.034,3.43,3.43,0,0,0-.524.05,5.356,5.356,0,0,0-.592.135" transform="translate(-294.317 -311.508)" fill="#d33575"/>
              <path id="Path_17918" data-name="Path 17918" d="M383.176,359.841l-.835.236,3.328,6.5,3.595-1.046-.365-.706-2.757.8-2.967-5.781" transform="translate(-297.248 -310.916)" fill="#d33575"/>
              <path id="Path_17919" data-name="Path 17919" d="M392.846,356.686l-3.447.976,3.339,6.456,3.6-1.047-.365-.7-2.767.8L392,360.844l2.484-.714-.358-.688-2.483.711-1.051-2.028,2.621-.744-.362-.694" transform="translate(-299.797 -309.777)" fill="#d33575"/>
              <path id="Path_17920" data-name="Path 17920" d="M341.352,418.732a3.859,3.859,0,0,0-1.382.749,2.941,2.941,0,0,0-.816,1.14,3.227,3.227,0,0,0-.205,1.436,4.688,4.688,0,0,0,.452,1.632,5.386,5.386,0,0,0,1,1.483,4.174,4.174,0,0,0,1.282.908,3.927,3.927,0,0,0,1.451.34,4.341,4.341,0,0,0,1.513-.216,6.068,6.068,0,0,0,.6-.229,5.011,5.011,0,0,0,.488-.249,3.586,3.586,0,0,0,.374-.249,1.98,1.98,0,0,0,.253-.227l-.536-.675a2.051,2.051,0,0,1-.254.223,3.143,3.143,0,0,1-.322.212,3.884,3.884,0,0,1-.374.19,4.3,4.3,0,0,1-.408.156,3.388,3.388,0,0,1-1.255.17,2.921,2.921,0,0,1-1.136-.3,3.339,3.339,0,0,1-.967-.742,4.525,4.525,0,0,1-.746-1.138,4.124,4.124,0,0,1-.392-1.327,2.418,2.418,0,0,1,.128-1.11,2.1,2.1,0,0,1,.607-.854,2.97,2.97,0,0,1,1.044-.556,4.07,4.07,0,0,1,.434-.112,3.73,3.73,0,0,1,.412-.059,3.318,3.318,0,0,1,.382-.014,2.927,2.927,0,0,1,.343.025l-.136-.818a2.4,2.4,0,0,0-.288-.027,3.625,3.625,0,0,0-.408.01,4.571,4.571,0,0,0-.518.072,5.586,5.586,0,0,0-.618.158" transform="translate(-281.573 -332.097)" fill="#0a3360"/>
              <path id="Path_17921" data-name="Path 17921" d="M353.216,422.7a2.191,2.191,0,0,1-1.069.072,2.78,2.78,0,0,1-1.011-.409,3.951,3.951,0,0,1-.878-.784,5.061,5.061,0,0,1-1.067-2.223,3.015,3.015,0,0,1-.026-1.083,1.814,1.814,0,0,1,.4-.877,1.847,1.847,0,0,1,.87-.555,2.2,2.2,0,0,1,1.106-.06,2.787,2.787,0,0,1,1.013.438,4.116,4.116,0,0,1,.857.792,4.985,4.985,0,0,1,.638,1,4.834,4.834,0,0,1,.4,1.193,2.967,2.967,0,0,1,.017,1.083,1.754,1.754,0,0,1-1.245,1.414m-3.1-6.622a2.992,2.992,0,0,0-1.177.677,2.605,2.605,0,0,0-.678,1.083,3.3,3.3,0,0,0-.125,1.4,5.153,5.153,0,0,0,.486,1.625,5.641,5.641,0,0,0,.938,1.408,4.5,4.5,0,0,0,1.2.938,3.689,3.689,0,0,0,1.359.418,3.427,3.427,0,0,0,1.408-.153,3.084,3.084,0,0,0,1.149-.654,2.559,2.559,0,0,0,.69-1.054,3.154,3.154,0,0,0,.133-1.4,5.368,5.368,0,0,0-.521-1.7,5.719,5.719,0,0,0-.918-1.376,4.476,4.476,0,0,0-1.175-.931,3.647,3.647,0,0,0-1.345-.424,3.471,3.471,0,0,0-1.427.146" transform="translate(-284.885 -331.168)" fill="#0a3360"/>
              <path id="Path_17922" data-name="Path 17922" d="M362.64,411.762l-.951.3.516,3.846q.053.382.108.758t.114.739q.059.364.126.714t.143.682l-.02.006q-.221-.289-.459-.582c-.158-.2-.322-.392-.491-.592s-.343-.4-.523-.608-.365-.416-.555-.631l-2.76-3.132-.971.307,5.693,6.359.989-.321-.96-7.845" transform="translate(-288.067 -329.667)" fill="#0a3360"/>
              <path id="Path_17923" data-name="Path 17923" d="M370.732,409.568l-3.7,1.167,3.434,7.034,3.856-1.252-.376-.764-2.966.961-1.241-2.538,2.658-.852-.369-.749-2.657.85-1.081-2.21,2.81-.89-.372-.756" transform="translate(-291.721 -328.875)" fill="#0a3360"/>
              <path id="Path_17924" data-name="Path 17924" d="M377.354,411.453l-1.254-2.537a1.152,1.152,0,0,1,.119-.073c.05-.027.11-.056.179-.087s.148-.063.236-.1.185-.066.29-.1a2.646,2.646,0,0,1,.673-.119,1.713,1.713,0,0,1,.607.079,1.423,1.423,0,0,1,.516.3,1.772,1.772,0,0,1,.4.54,1.475,1.475,0,0,1,.162.575,1.046,1.046,0,0,1-.1.514,1.171,1.171,0,0,1-.348.422,1.886,1.886,0,0,1-.586.3l-.9.286m-.831-3.565c-.152.048-.3.1-.452.153s-.293.111-.432.169-.271.118-.393.178-.234.12-.333.179l3.4,6.889.879-.286-1.5-3.031.827-.265a1.843,1.843,0,0,1,.56-.079,1.274,1.274,0,0,1,.5.115,1.81,1.81,0,0,1,.476.326,4.121,4.121,0,0,1,.491.553q.233.3.433.556c.132.169.253.319.362.448s.2.24.285.326a1.816,1.816,0,0,0,.2.194l.9-.291a2.764,2.764,0,0,1-.247-.242q-.144-.156-.328-.379c-.123-.148-.259-.317-.409-.5s-.313-.4-.49-.621a4.294,4.294,0,0,0-.4-.452,2.757,2.757,0,0,0-.413-.338,1.9,1.9,0,0,0-.43-.215,1.52,1.52,0,0,0-.45-.082l-.015-.031a1.762,1.762,0,0,0,.374-.414,1.559,1.559,0,0,0,.214-.512,1.64,1.64,0,0,0,.018-.594,2.215,2.215,0,0,0-.214-.659,2.654,2.654,0,0,0-.228-.376,2.47,2.47,0,0,0-.279-.321,2.29,2.29,0,0,0-.322-.259,2.008,2.008,0,0,0-.354-.19,2.3,2.3,0,0,0-.476-.14,2.629,2.629,0,0,0-.52-.038,3.621,3.621,0,0,0-.581.064,5.79,5.79,0,0,0-.657.169" transform="translate(-294.566 -328.184)" fill="#0a3360"/>
              <path id="Path_17925" data-name="Path 17925" d="M387.637,409.377l-.347-2.207c-.02-.116-.04-.231-.063-.345s-.046-.228-.07-.341-.05-.225-.075-.337-.052-.222-.079-.332l.02-.006.226.278q.114.14.235.282t.249.289q.128.147.268.3l1.648,1.775-2.013.647m-.475-4.524-1.039.328,1.181,7.657.9-.292-.395-2.415,2.372-.764,1.807,1.95.919-.3-5.744-6.166" transform="translate(-298.614 -327.172)" fill="#0a3360"/>
              <path id="Path_17926" data-name="Path 17926" d="M396.242,401.51a3.722,3.722,0,0,0-1.355.734,2.655,2.655,0,0,0-.753,1.091,2.958,2.958,0,0,0-.146,1.347,4.487,4.487,0,0,0,.464,1.5,5.786,5.786,0,0,0,.454.751,5.324,5.324,0,0,0,.537.638,4.625,4.625,0,0,0,.6.51,3.767,3.767,0,0,0,.634.367,3.954,3.954,0,0,0,.728.246,3.733,3.733,0,0,0,.729.093,3.969,3.969,0,0,0,.733-.049,4.783,4.783,0,0,0,.742-.181,5.01,5.01,0,0,0,.618-.247,5.441,5.441,0,0,0,.516-.28c.154-.095.289-.188.406-.275s.213-.167.291-.233l-1.68-3.289-2.167.693.363.714,1.338-.429,1.041,2.042a.976.976,0,0,1-.146.13,1.877,1.877,0,0,1-.22.138,3.18,3.18,0,0,1-.3.142q-.169.071-.379.139a3.058,3.058,0,0,1-1.141.151,2.879,2.879,0,0,1-1.081-.286,3.362,3.362,0,0,1-.958-.707,4.592,4.592,0,0,1-.774-1.112,3.758,3.758,0,0,1-.395-1.215,2.206,2.206,0,0,1,.1-1.035,1.93,1.93,0,0,1,.563-.808,2.807,2.807,0,0,1,1-.533,4.533,4.533,0,0,1,.468-.122,3.84,3.84,0,0,1,.417-.06,3.67,3.67,0,0,1,.374-.011c.119,0,.231.011.34.023l-.162-.777a2.579,2.579,0,0,0-.322-.024,4.069,4.069,0,0,0-.422.016,4.946,4.946,0,0,0-1.05.21" transform="translate(-301.447 -325.883)" fill="#0a3360"/>
              <path id="Path_17927" data-name="Path 17927" d="M405.98,398.468l-3.515,1.11,3.489,6.814,3.666-1.191-.382-.74-2.82.913-1.261-2.458,2.532-.811-.375-.726-2.532.809-1.1-2.141,2.673-.846-.378-.732" transform="translate(-304.516 -324.866)" fill="#0a3360"/>
              <path id="Path_17928" data-name="Path 17928" d="M411.987,396.659a2.336,2.336,0,0,0-.78.407,1.611,1.611,0,0,0-.46.59,1.5,1.5,0,0,0-.125.714,1.97,1.97,0,0,0,.227.776,2.277,2.277,0,0,0,.452.608,2.33,2.33,0,0,0,.609.413,3.311,3.311,0,0,0,.753.244,5.488,5.488,0,0,0,.884.1,5.007,5.007,0,0,1,.7.091,2.245,2.245,0,0,1,.53.178,1.455,1.455,0,0,1,.394.281,1.674,1.674,0,0,1,.288.405,1.313,1.313,0,0,1,.152.5.906.906,0,0,1-.074.45,1.007,1.007,0,0,1-.3.374,1.675,1.675,0,0,1-.527.27,2.738,2.738,0,0,1-.441.1,3.193,3.193,0,0,1-.448.034,3.53,3.53,0,0,1-.434-.024,3.267,3.267,0,0,1-.4-.072l.172.807a2.255,2.255,0,0,0,.4.067,3.706,3.706,0,0,0,.477.006,4.3,4.3,0,0,0,.5-.055,3.493,3.493,0,0,0,.489-.119,2.71,2.71,0,0,0,.914-.481,1.627,1.627,0,0,0,.482-.654,1.578,1.578,0,0,0,.095-.755,2.224,2.224,0,0,0-.249-.788,2.634,2.634,0,0,0-.449-.632,2.28,2.28,0,0,0-.585-.432,3.1,3.1,0,0,0-.735-.263,5.693,5.693,0,0,0-.9-.127,6.679,6.679,0,0,1-.714-.084,2.54,2.54,0,0,1-.546-.156,1.39,1.39,0,0,1-.406-.259,1.433,1.433,0,0,1-.291-.394,1.08,1.08,0,0,1-.116-.373.832.832,0,0,1,.3-.749,1.418,1.418,0,0,1,.51-.269,2.636,2.636,0,0,1,.426-.1,2.781,2.781,0,0,1,.386-.028,2.945,2.945,0,0,1,.326.016c.1.01.18.024.247.037l-.135-.776a2.5,2.5,0,0,0-.314-.043,2.966,2.966,0,0,0-.376,0,3.357,3.357,0,0,0-.429.049,3.8,3.8,0,0,0-.476.118" transform="translate(-307.461 -324.151)" fill="#0a3360"/>
            </g>
          </g>
        </g>
      </g>
    </g>
  </g>
</svg>
