<svg xmlns="http://www.w3.org/2000/svg" xmlns:xlink="http://www.w3.org/1999/xlink" width="280" height="320" viewBox="0 0 280 320">
  <defs>
    <clipPath id="clip-tiles_auto-deductible_280">
      <rect width="280" height="320"/>
    </clipPath>
  </defs>
  <g id="tiles_auto-deductible_280" clip-path="url(#clip-tiles_auto-deductible_280)">
    <rect width="280" height="320" fill="#fff"/>
    <rect id="Rectangle_43" data-name="Rectangle 43" width="278" height="318" transform="translate(3 1)" fill="#fff"/>
    <g id="Group_1229" data-name="Group 1229" transform="translate(3 -0.987)">
      <rect id="Rectangle_44" data-name="Rectangle 44" width="278" height="320.288" fill="#d33575"/>
    </g>
    <rect id="Rectangle_45" data-name="Rectangle 45" width="294" height="249" transform="translate(-14 24)" fill="#fff"/>
    <rect id="Rectangle_46" data-name="Rectangle 46" width="296" height="374" transform="translate(-15 -49)" fill="#d33575"/>
    <path id="Path_17683" data-name="Path 17683" d="M215.945,204.227l13.271,134.229h118.6L345.6,258.569l-75.383-31.725L246.5,218.514,215.94,204.233" transform="translate(-61.999 -21.317)" fill="#d1196d"/>
    <path id="Path_17684" data-name="Path 17684" d="M264.616,248.385a1.143,1.143,0,0,1-1.995.995,140.128,140.128,0,0,0-15.12-15.847c-5.628-4.664-8.882-4.524-11.883-3.46-3.3,1.166-3.6,3.369-.535,5.738a31.488,31.488,0,0,1,9.529,10.795c1.321,2.716,3.991,8.6,6.773,14.566A25.408,25.408,0,0,0,265.663,275q2.45.995,5.4,2.027c8.783,3.057-7.38-32.429-7.38-32.429Z" transform="translate(-65.789 -26.937)" fill="#ff8f2f"/>
    <path id="Path_17685" data-name="Path 17685" d="M237.927,238.935l.435-3.72a34.75,34.75,0,0,0-4.324-2.766c-2.084-1.066-2.787,1.49-.713,2.935S237.927,238.935,237.927,238.935Z" transform="translate(-65.594 -27.546)" fill="#c361c6"/>
    <path id="Path_17686" data-name="Path 17686" d="M220.849,199.079c-.8-.751-2.45-.291-3.686,1.026s-1.589,2.994-.787,3.745l25.1,23.534,4.471-4.769Z" transform="translate(-62.001 -20.09)" fill="#fff"/>
    <ellipse id="Ellipse_15" data-name="Ellipse 15" cx="3.27" cy="1.987" rx="3.27" ry="1.987" transform="translate(178.022 205.929) rotate(-46.824)" fill="#8fd8f2"/>
    <path id="Path_17687" data-name="Path 17687" d="M353.216,309.421l-1.514-.3Q352.456,309.274,353.216,309.421Z" transform="translate(-92.235 -44.679)" fill="#ff8f2f"/>
    <path id="Path_17688" data-name="Path 17688" d="M343.483,307.432l-1.392-.3Z" transform="translate(-90.095 -44.236)" fill="#ff8f2f"/>
    <path id="Path_17689" data-name="Path 17689" d="M350.3,308.844q-1.834-.364-3.628-.738Q348.465,308.478,350.3,308.844Z" transform="translate(-91.116 -44.452)" fill="#ff8f2f"/>
    <path id="Path_17690" data-name="Path 17690" d="M345.827,307.928l-1.437-.3Z" transform="translate(-90.607 -44.345)" fill="#ff8f2f"/>
    <path id="Path_17691" data-name="Path 17691" d="M362.926,311.229l-1.234-.218Z" transform="translate(-94.46 -45.099)" fill="#ff8f2f"/>
    <path id="Path_17692" data-name="Path 17692" d="M365.927,311.751q-.915-.155-1.824-.315Q365.011,311.595,365.927,311.751Z" transform="translate(-94.997 -45.194)" fill="#ff8f2f"/>
    <path id="Path_17693" data-name="Path 17693" d="M360.42,310.781l-1.16-.211Z" transform="translate(-93.918 -45.001)" fill="#ff8f2f"/>
    <path id="Path_17694" data-name="Path 17694" d="M358.018,310.34l-1.171-.218Z" transform="translate(-93.381 -44.901)" fill="#ff8f2f"/>
    <path id="Path_17695" data-name="Path 17695" d="M341.215,306.943l-1.452-.319Z" transform="translate(-89.576 -44.122)" fill="#ff8f2f"/>
    <path id="Path_17696" data-name="Path 17696" d="M355.623,309.891l-1.239-.238Z" transform="translate(-92.833 -44.797)" fill="#ff8f2f"/>
    <path id="Path_17697" data-name="Path 17697" d="M318.646,239.056l-14.752-26a17.4,17.4,0,0,0-9.154-7.753l-17.971-6.573a8.567,8.567,0,0,0-9.405,2.424l-.046.053-.828-.317a8.57,8.57,0,0,0-9.217,2.054l-.345.358-.531-.218a27.47,27.47,0,0,0-10.829-2.067l-7.195.094-9.257-9.724a3.049,3.049,0,0,0-4.311-.106,3.315,3.315,0,0,0-.277.3c-.046.058-.1.117-.14.178-1.834,2.4-.864,6.945.924,9.376,5.08,6.895,13.475,16.047,36.242,34.77.686,3.265,1.887,7.531,1.887,7.531l5.49,24.9a407.816,407.816,0,0,0,44.661,12.352q-4.4-.972-8.49-1.96C298.139,267.672,302.682,242.632,318.646,239.056Z" transform="translate(-63.661 -18.248)" fill="#ff8f2f"/>
    <path id="Path_17698" data-name="Path 17698" d="M375.919,257.951h0l-14.252-2.359Z" transform="translate(-94.455 -32.757)" fill="#ff8f2f"/>
    <path id="Path_17699" data-name="Path 17699" d="M351.623,309.11l-.284-.056Z" transform="translate(-92.154 -44.663)" fill="#fff"/>
    <path id="Path_17700" data-name="Path 17700" d="M354.225,309.619l-.567-.112Z" transform="translate(-92.671 -44.764)" fill="#fff"/>
    <path id="Path_17701" data-name="Path 17701" d="M358.161,255.011l-12.228-2.021h0Z" transform="translate(-90.95 -32.177)" fill="#fff"/>
    <path id="Path_17702" data-name="Path 17702" d="M366.452,311.841l.058.01a40.8,40.8,0,0,0,4.8.544,40.8,40.8,0,0,1-4.8-.544Z" transform="translate(-95.52 -45.284)" fill="#fff"/>
    <path id="Path_17703" data-name="Path 17703" d="M356.654,310.083l-.676-.129Z" transform="translate(-93.188 -44.864)" fill="#fff"/>
    <path id="Path_17704" data-name="Path 17704" d="M344.276,307.6l-.394-.082Z" transform="translate(-90.494 -44.321)" fill="#fff"/>
    <path id="Path_17705" data-name="Path 17705" d="M341.989,307.112l-.358-.078Z" transform="translate(-89.992 -44.214)" fill="#fff"/>
    <path id="Path_17706" data-name="Path 17706" d="M346.577,308.082l-.341-.072Z" transform="translate(-91.018 -44.431)" fill="#fff"/>
    <path id="Path_17707" data-name="Path 17707" d="M339.686,306.608l-.256-.056Z" transform="translate(-89.502 -44.106)" fill="#fff"/>
    <path id="Path_17709" data-name="Path 17709" d="M361.48,310.973l-.726-.131Z" transform="translate(-94.251 -45.062)" fill="#fff"/>
    <path id="Path_17710" data-name="Path 17710" d="M372.788,312.529a25.727,25.727,0,0,0,4.029-.1A25.727,25.727,0,0,1,372.788,312.529Z" transform="translate(-96.931 -45.414)" fill="#fff"/>
    <path id="Path_17711" data-name="Path 17711" d="M363.919,311.4l-.64-.112Z" transform="translate(-94.814 -45.162)" fill="#fff"/>
    <path id="Path_17712" data-name="Path 17712" d="M359.063,310.533l-.71-.131Z" transform="translate(-93.716 -44.964)" fill="#fff"/>
    <path id="Path_17713" data-name="Path 17713" d="M367.626,257.374h0l-14.252-2.361-12.228-2.021h0c-15.965,3.576-20.5,28.617-13.548,39.675q4.078.983,8.49,1.96l.256.056,1.45.319.358.078,1.392.3.394.084,1.437.3.341.072q1.794.372,3.629.738l.279.054,1.514.3.567.112,1.244.233.675.128,1.171.218.71.131,1.161.211.724.132,1.234.218.641.112,1.827.311.058.01a40.462,40.462,0,0,0,4.8.544h.072a25.709,25.709,0,0,0,4.027-.1c.2-.023.406-.048.6-.072.333-.048.653-.1.97-.166Z" transform="translate(-86.163 -32.178)" fill="#fff"/>
    <path id="Path_17714" data-name="Path 17714" d="M278.054,230.064a.36.36,0,0,1-.305-.166l-1.108-1.742a13.149,13.149,0,0,0-4.791-4.484c-6.965-3.8-23.785-13.292-29.55-19.355a.363.363,0,0,1,.526-.5c5.69,5.985,22.436,15.432,29.372,19.216a13.9,13.9,0,0,1,5.052,4.731l1.108,1.74a.363.363,0,0,1-.307.557Z" transform="translate(-67.849 -21.202)" fill="#f46c0f"/>
    <path id="Path_17715" data-name="Path 17715" d="M293.806,224.045a.368.368,0,0,1-.291-.145l-1.028-1.363a15.811,15.811,0,0,0-5.119-4.38c-5.952-3.187-14.445-7.671-21.1-10.943a.363.363,0,0,1,.32-.651h0c6.668,3.276,15.171,7.765,21.128,10.96a16.554,16.554,0,0,1,5.355,4.581l1.029,1.364a.363.363,0,0,1-.072.508h0a.366.366,0,0,1-.218.072Z" transform="translate(-73.163 -21.83)" fill="#f46c0f"/>
    <path id="Path_17716" data-name="Path 17716" d="M306.271,218.773a.36.36,0,0,1-.291-.147l-1.042-1.4A13.15,13.15,0,0,0,299.574,213L279.7,204.459a.363.363,0,0,1,.26-.678l.023.009h0l19.878,8.536a13.879,13.879,0,0,1,5.66,4.466l1.042,1.4a.363.363,0,0,1-.292.579Z" transform="translate(-76.147 -21.213)" fill="#f46c0f"/>
    <path id="Path_17717" data-name="Path 17717" d="M228.683,190.252a3.07,3.07,0,0,0-.653-.518,2.6,2.6,0,0,0-3.265,3.458,12.653,12.653,0,0,0,3.492,4.418l4.609-2.745Z" transform="translate(-63.919 -18.056)" fill="#c361c6"/>
    <path id="Path_17718" data-name="Path 17718" d="M376.561,258.623s-20.468,21.876-7.945,47.708h7.945Z" transform="translate(-95.099 -33.432)" fill="#21c1b1"/>
    <path id="Path_17719" data-name="Path 17719" d="M225.66,201.419c.228,0,.14-.155.175-.183C225.454,201.3,225.672,201.461,225.66,201.419Z" transform="translate(-64.153 -20.651)" fill="#fff"/>
    <path id="Path_17720" data-name="Path 17720" d="M220.73,202.2l.063-.068-.544.19Z" transform="translate(-62.959 -20.852)" fill="#fff"/>
    <path id="Path_17721" data-name="Path 17721" d="M216.359,202.434c.351.225,1.267-.125,1.9-.072l.106.054.267-.233A21.44,21.44,0,0,1,216.359,202.434Z" transform="translate(-62.093 -20.862)" fill="#fff"/>
    <path id="Path_17722" data-name="Path 17722" d="M216.16,202.867l.368.041c.1-.043.2-.072.311-.112C216.68,202.84,216.13,202.786,216.16,202.867Z" transform="translate(-62.048 -20.999)" fill="#fff"/>
    <path id="Path_17723" data-name="Path 17723" d="M64.652,146.922q-1.188,0-2.6-.117a.825.825,0,1,1,.095-1.646l.042,0c6.082.5,6.84-.839,6.9-1,.163-.389-.211-.96-.63-1.33a12.3,12.3,0,0,0-3.366-1c-2.59-.564-4.461-.972-4.586-2.281-.106-1.088,1.176-1.8,2.445-2.347,2.524-1.092,4.4-1.2,5.571-.311a3.47,3.47,0,0,1,1.126,3.039.808.808,0,0,1-.893.712h-.034a.824.824,0,0,1-.708-.924,1.864,1.864,0,0,0-.493-1.515c-.375-.279-1.383-.584-3.913.511a6.8,6.8,0,0,0-1.258.663,19.679,19.679,0,0,0,3.1.838,10.239,10.239,0,0,1,4.1,1.379,2.856,2.856,0,0,1,1.054,3.216C70.01,146.218,68.01,146.922,64.652,146.922Z" transform="translate(-27.382 -6.189)" fill="#fff"/>
    <path id="Path_17724" data-name="Path 17724" d="M68.213,150.73H68.2a.825.825,0,0,1-.815-.835h0c.026-2.424-1.967-16.072-1.986-16.209a.826.826,0,0,1,.7-.937h0a.837.837,0,0,1,.933.7c.084.567,2.033,13.913,2,16.466A.825.825,0,0,1,68.213,150.73Z" transform="translate(-28.471 -5.397)" fill="#fff"/>
    <path id="Path_17725" data-name="Path 17725" d="M77.25,145.723a13.355,13.355,0,0,1-2.176-.2.825.825,0,0,1,.281-1.627,5.536,5.536,0,0,0,4.326-.466,1.654,1.654,0,0,0,.378-1.5,1.362,1.362,0,0,0-.622-1.07,6.289,6.289,0,0,0-4.243.086.825.825,0,0,1-.957-1.224l2.326-3.67a.818.818,0,0,1,.553-.369l4.032-.713a.824.824,0,0,1,.287,1.623h0l-3.674.65-1.066,1.689a5.634,5.634,0,0,1,3.623.531,3.01,3.01,0,0,1,1.383,2.259,3.234,3.234,0,0,1-.874,2.9A5.165,5.165,0,0,1,77.25,145.723Z" transform="translate(-30.412 -5.89)" fill="#fff"/>
    <path id="Path_17726" data-name="Path 17726" d="M86.819,150.475a.824.824,0,0,1-.574-1.417,3.278,3.278,0,0,0,.855-1.865,11.5,11.5,0,0,0,.006-2.441.825.825,0,0,1,1.645-.129h0v.018a12.9,12.9,0,0,1-.022,2.8,5.2,5.2,0,0,1-.864,2.254.828.828,0,0,1-.648.717l-.241.05A.813.813,0,0,1,86.819,150.475Z" transform="translate(-33.059 -7.873)" fill="#fff"/>
    <path id="Path_17727" data-name="Path 17727" d="M96.665,142.5a7.087,7.087,0,0,1-1.877-.3,4.74,4.74,0,0,1-2.516-1.414,3.674,3.674,0,0,1-.763-2h0a5.307,5.307,0,0,1,1.337-3.754,4.134,4.134,0,0,1,2.843-1.531,3.2,3.2,0,0,1,2.366.881,6.838,6.838,0,0,1,1.894,4.479,3.694,3.694,0,0,1-.644,2.463,3.187,3.187,0,0,1-2.295,1.16C96.893,142.49,96.779,142.5,96.665,142.5Zm-3.513-3.862a2.079,2.079,0,0,0,.4,1.1,3.3,3.3,0,0,0,1.678.866,4.935,4.935,0,0,0,1.648.233A1.58,1.58,0,0,0,98,140.314a2.175,2.175,0,0,0,.3-1.4,5.225,5.225,0,0,0-1.358-3.316,1.557,1.557,0,0,0-1.16-.452,2.51,2.51,0,0,0-1.691.967,3.716,3.716,0,0,0-.941,2.525Z" transform="translate(-34.286 -5.564)" fill="#fff"/>
    <path id="Path_17728" data-name="Path 17728" d="M108.558,140.46a4.088,4.088,0,0,1-1.962-.6,5.58,5.58,0,0,1-1.975-1.734h0a4.457,4.457,0,0,1,.421-5.15,3.775,3.775,0,0,1,4.34-1.343,4.787,4.787,0,0,1,.962,8.239,3.283,3.283,0,0,1-1.627.584C108.666,140.459,108.613,140.46,108.558,140.46Zm-2.565-3.248a3.958,3.958,0,0,0,1.409,1.211,2.326,2.326,0,0,0,1.214.389,1.733,1.733,0,0,0,.813-.311,3.146,3.146,0,0,0-.622-5.317,2.154,2.154,0,0,0-2.471.82,2.849,2.849,0,0,0-.341,3.212Z" transform="translate(-37.068 -5.1)" fill="#fff"/>
    <path id="Path_17729" data-name="Path 17729" d="M121.007,139.024a3.983,3.983,0,0,1-1.132-.16,4.265,4.265,0,0,1-2.882-3.109,4.726,4.726,0,0,1,1.029-4.054h0a4.11,4.11,0,0,1,4.207-1.467,4.353,4.353,0,0,1,3.056,3.5,4.538,4.538,0,0,1-1.457,4.23A4.335,4.335,0,0,1,121.007,139.024Zm.244-7.264a2.627,2.627,0,0,0-1.975,1.016h0a3.042,3.042,0,0,0-.675,2.609,2.5,2.5,0,0,0,4.146,1.335,2.9,2.9,0,0,0,.919-2.666,2.681,2.681,0,0,0-1.858-2.219,2.111,2.111,0,0,0-.557-.078Z" transform="translate(-39.94 -4.813)" fill="#fff"/>
    <path id="Path_17730" data-name="Path 17730" d="M144.469,138.44A.812.812,0,0,1,144,138.3a12.737,12.737,0,0,1-4.525-5.957,10.118,10.118,0,0,1-.731-3.062,14.115,14.115,0,0,1,1.7-6.5.825.825,0,0,1,1.506.673h0a12.871,12.871,0,0,0-1.559,5.725,8.465,8.465,0,0,0,.622,2.56,11.077,11.077,0,0,0,3.923,5.2.825.825,0,0,1-.466,1.5Z" transform="translate(-44.808 -3.07)" fill="#fff"/>
    <path id="Path_17731" data-name="Path 17731" d="M149.857,136.054a1.863,1.863,0,0,1-.531-.078.824.824,0,0,1-.582-.764c-.078-2.455-.233-4.954-.455-7.425a.821.821,0,0,1,.16-.567c-.655-.051-1.326-.061-2.021-.071a.825.825,0,0,1,.023-1.649,18.758,18.758,0,0,1,3.827.322,6.82,6.82,0,0,1,3.623,1.97,4.442,4.442,0,0,1,1.069,4.2,6.708,6.708,0,0,1-3.605,3.576A3.148,3.148,0,0,1,149.857,136.054Zm.025-8.628a.819.819,0,0,1,.05.215c.2,2.191.343,4.4.428,6.591.082-.041.155-.082.2-.109,1.295-.726,2.487-1.471,2.831-2.609a2.826,2.826,0,0,0-.714-2.616,5.264,5.264,0,0,0-2.759-1.464Z" transform="translate(-46.337 -3.783)" fill="#fff"/>
    <path id="Path_17732" data-name="Path 17732" d="M163,134.711h-.15a3.072,3.072,0,0,1-2.268-1.1,3.674,3.674,0,0,1-.563-3.31,6.033,6.033,0,0,1,1.678-2.59,2.618,2.618,0,0,1,1.289-.772,2.315,2.315,0,0,1,2.309,1.1,5.858,5.858,0,0,1,.579,1.221c.063.165.125.328.2.49a4.537,4.537,0,0,0,2.487,2.361.825.825,0,0,1-.585,1.542h0a6.111,6.111,0,0,1-1.963-1.216,3.5,3.5,0,0,1-.805,1.377A3.057,3.057,0,0,1,163,134.711Zm.358-6.16a.182.182,0,0,0-.041,0,1.354,1.354,0,0,0-.466.337,4.444,4.444,0,0,0-1.244,1.872,2.011,2.011,0,0,0,.26,1.808,1.463,1.463,0,0,0,1.059.487,1.416,1.416,0,0,0,1.1-.393,2.9,2.9,0,0,0,.609-1.977.8.8,0,0,1,.01-.106c-.026-.056-.053-.112-.078-.168-.082-.187-.155-.379-.233-.572a4.431,4.431,0,0,0-.407-.888.856.856,0,0,0-.567-.406Z" transform="translate(-49.507 -4.1)" fill="#fff"/>
    <path id="Path_17733" data-name="Path 17733" d="M173.545,132.654a.826.826,0,0,1-.818-.709l-.8-5.752a.823.823,0,0,1,.7-.933h0a.835.835,0,0,1,.933.7l.131.933q.106-.311.223-.614c.516-1.338,1.391-2.037,2.371-1.912a2.3,2.3,0,0,1,1.272.67,6.964,6.964,0,0,1,1.793,3.007,15.912,15.912,0,0,1,.866-1.643,4.131,4.131,0,0,1,1.176-1.363,2.161,2.161,0,0,1,2.246-.178,2.8,2.8,0,0,1,1.166,1.706l1.285,3.946a.826.826,0,1,1-1.571.513l-1.283-3.948c-.078-.233-.221-.678-.4-.777a.55.55,0,0,0-.511.1,2.684,2.684,0,0,0-.693.855,14.685,14.685,0,0,0-1.68,4.082.825.825,0,0,1-1.618-.088,8.241,8.241,0,0,0-1.9-5.007c-.218-.2-.317-.233-.341-.233-.1.025-.382.233-.629.867a16.776,16.776,0,0,0-1.088,5,.826.826,0,0,1-.792.777Z" transform="translate(-52.195 -3.528)" fill="#fff"/>
    <path id="Path_17734" data-name="Path 17734" d="M193.579,130.224a2.647,2.647,0,0,1-1.783-.612,3.617,3.617,0,0,1-.942-3.047,4.409,4.409,0,0,1,1.5-3.676,4.234,4.234,0,0,1,1.975-.612,2.306,2.306,0,0,1,1.035.068,2.218,2.218,0,0,1,1.119,1,11.9,11.9,0,0,1,.855,1.788,13.506,13.506,0,0,0,.56,1.244c.233.434.876,1.458,1.818,1.555a.825.825,0,0,1,.739.9h0a.811.811,0,0,1-.875.741h-.029a3.83,3.83,0,0,1-2.637-1.667,2.344,2.344,0,0,1-.655,1.412,2.887,2.887,0,0,1-1.209.657A4.891,4.891,0,0,1,193.579,130.224Zm1.18-6.325a1.95,1.95,0,0,0-.243.019,2.788,2.788,0,0,0-1.229.333c-.63.429-.751,1.5-.785,2.377-.026.675,0,1.411.373,1.736.434.373,1.321.15,1.683.035a1.469,1.469,0,0,0,.544-.26c.251-.244.208-.855.135-1.415a.824.824,0,0,1,.6-.9l-.026-.063a10.463,10.463,0,0,0-.732-1.548c-.166-.269-.244-.3-.253-.305a.24.24,0,0,0-.071-.006Z" transform="translate(-56.403 -3.06)" fill="#fff"/>
    <path id="Path_17735" data-name="Path 17735" d="M207.757,133.238c-.239,0-.475-.01-.7-.025A2.98,2.98,0,0,1,204.6,132.1a.825.825,0,0,1,1.379-.906c.2.311.944.358,1.188.375a3.163,3.163,0,0,0,2.1-.358,2.892,2.892,0,0,0,.751-2.227,14.733,14.733,0,0,0-.166-2.829,3.987,3.987,0,0,0-1.437-2.9,3.089,3.089,0,0,0-1.366-.409,2.035,2.035,0,0,0-1.8.488,1.449,1.449,0,0,0,.291,1.793,3.152,3.152,0,0,0,2.371.676.825.825,0,1,1,.106,1.646h0a4.684,4.684,0,0,1-3.614-1.129,3.06,3.06,0,0,1-.442-4.017,3.627,3.627,0,0,1,3.245-1.1,4.73,4.73,0,0,1,2.09.657,5.426,5.426,0,0,1,2.184,4.042,16.347,16.347,0,0,1,.185,3.148,4.36,4.36,0,0,1-1.374,3.458A3.947,3.947,0,0,1,207.757,133.238Z" transform="translate(-59.207 -2.815)" fill="#fff"/>
    <path id="Path_17736" data-name="Path 17736" d="M220.935,126.589a8.438,8.438,0,0,1-1.094-.066,4.859,4.859,0,0,1-2.791-1.249,3.3,3.3,0,0,1-.967-3.156,3.639,3.639,0,0,1,.7-1.317,5.618,5.618,0,0,1,4.8-2.08,1.856,1.856,0,0,1,1.261.525,1.777,1.777,0,0,1,.053,2.184,4.935,4.935,0,0,1-1.51,1.424,16.123,16.123,0,0,1-2.623,1.414.8.8,0,0,1-.264.065,3.554,3.554,0,0,0,1.562.554,11.2,11.2,0,0,0,2.41-.031l1.592-.129a.825.825,0,1,1,.182,1.639l-.047,0h0l-1.6.131C222.077,126.545,221.514,126.589,220.935,126.589Zm.221-6.236a4.02,4.02,0,0,0-3.083,1.477,2.062,2.062,0,0,0-.4.716,1.333,1.333,0,0,0,0,.64.814.814,0,0,1,.435-.434,14.523,14.523,0,0,0,2.354-1.269,3.463,3.463,0,0,0,1.028-.929.675.675,0,0,0,.078-.176c-.03,0-.072-.006-.129-.012-.1-.006-.193-.012-.288-.012Z" transform="translate(-62.013 -2.271)" fill="#fff"/>
    <path id="Path_17737" data-name="Path 17737" d="M228.675,126.741a.794.794,0,0,1-.414-.112.823.823,0,0,1-.3-1.125l0,0h0a12.017,12.017,0,0,0,1.967-4.9,7.2,7.2,0,0,0-1.366-4.471A16.63,16.63,0,0,0,225,112.565a.825.825,0,0,1,1-1.311h0l.012.01a18.149,18.149,0,0,1,3.911,3.936,8.836,8.836,0,0,1,1.648,5.519,13.272,13.272,0,0,1-2.186,5.616A.818.818,0,0,1,228.675,126.741Z" transform="translate(-63.945 -0.573)" fill="#fff"/>
    <path id="Path_17738" data-name="Path 17738" d="M65.2,167.037a.825.825,0,0,1-.03-1.649,29.6,29.6,0,0,0,5-.616.825.825,0,0,1,.348,1.612H70.5a31.359,31.359,0,0,1-5.274.651Z" transform="translate(-28.247 -12.527)" fill="#fff"/>
    <path id="Path_17739" data-name="Path 17739" d="M82.993,170.73a.828.828,0,0,1-.8-.622,65.584,65.584,0,0,1-2.085-15.536.824.824,0,0,1,.811-.836h.013a.825.825,0,0,1,.825.813A63.933,63.933,0,0,0,83.793,169.7.826.826,0,0,1,83.2,170.7.886.886,0,0,1,82.993,170.73Z" transform="translate(-31.749 -10.072)" fill="#fff"/>
    <path id="Path_17740" data-name="Path 17740" d="M79.771,167.367a7.846,7.846,0,0,1-3.075-.539.825.825,0,0,1,.64-1.521,9.477,9.477,0,0,0,4.458.288c.581-.053,1.272-.16,1.464-.5a.846.846,0,0,0-.218-.868,3.064,3.064,0,0,0-1.356-.721c-.563-.176-1.14-.307-1.719-.439a17.379,17.379,0,0,1-2.633-.749,2.242,2.242,0,0,1-1.668-1.953,2.192,2.192,0,0,1,1.42-1.943,9.141,9.141,0,0,1,3.392-1.016,4.083,4.083,0,0,1,2.428.407,2.325,2.325,0,0,1,1.129,2.65.825.825,0,1,1-1.577-.488l.012-.035h0a.714.714,0,0,0-.389-.7,2.455,2.455,0,0,0-1.448-.191,7.46,7.46,0,0,0-2.77.83c-.45.241-.544.431-.544.466s.155.249.633.441a15.778,15.778,0,0,0,2.386.672c.622.14,1.239.282,1.844.466a4.6,4.6,0,0,1,2.08,1.185,2.449,2.449,0,0,1,.442,2.788,3.3,3.3,0,0,1-2.752,1.343C81.275,167.3,80.534,167.367,79.771,167.367Z" transform="translate(-30.758 -10.88)" fill="#fff"/>
    <path id="Path_17741" data-name="Path 17741" d="M90.269,166.272a.825.825,0,0,1-.068-1.646,9.5,9.5,0,0,0,2.244-.366,2.62,2.62,0,0,0,1.448-1.105,1.23,1.23,0,0,0-.082-1.363,2.132,2.132,0,0,0-1.73-.368,5.04,5.04,0,0,0-1.851.459.824.824,0,0,1-.993-1.277,7.4,7.4,0,0,0,1.632-3.23,1.252,1.252,0,0,1,1.2-1.082l3.52-.45a.825.825,0,0,1,.21,1.636h0l-3.367.431a9.445,9.445,0,0,1-.695,1.889c.065-.006.129-.013.194-.018a3.575,3.575,0,0,1,3.073.881,2.85,2.85,0,0,1,.337,3.265,4.154,4.154,0,0,1-2.366,1.889,10.664,10.664,0,0,1-2.643.45A.282.282,0,0,1,90.269,166.272Z" transform="translate(-33.736 -10.54)" fill="#fff"/>
    <path id="Path_17742" data-name="Path 17742" d="M103.946,163.417a3.811,3.811,0,0,1-2.609-.979h0a4.049,4.049,0,0,1-.648-4.842,6.177,6.177,0,0,1,3.712-2.829,3.472,3.472,0,0,1,2.839.439,3.431,3.431,0,0,1,1.471,3.07,5.885,5.885,0,0,1-2.6,4.553A4.277,4.277,0,0,1,103.946,163.417Zm1.43-7.12a2.394,2.394,0,0,0-.585.072,4.536,4.536,0,0,0-2.647,2.009,2.43,2.43,0,0,0,.322,2.853h0a2.442,2.442,0,0,0,2.811.175,4.238,4.238,0,0,0,1.788-3.187,1.787,1.787,0,0,0-.752-1.652,1.635,1.635,0,0,0-.937-.271Z" transform="translate(-36.215 -10.273)" fill="#fff"/>
    <path id="Path_17743" data-name="Path 17743" d="M117.508,161.811a4.177,4.177,0,0,1-3.154-1.429,4.332,4.332,0,0,1-.428-4.865,4.939,4.939,0,0,1,3.436-2.387,3.55,3.55,0,0,1,3.031.933,4.43,4.43,0,0,1,1.227,4.12,4.5,4.5,0,0,1-2.748,3.382A3.79,3.79,0,0,1,117.508,161.811Zm.431-7.073a2.083,2.083,0,0,0-.333.026,3.288,3.288,0,0,0-2.246,1.571,2.692,2.692,0,0,0,.253,2.985h0a2.488,2.488,0,0,0,2.671.708A2.855,2.855,0,0,0,120,157.865a2.8,2.8,0,0,0-.744-2.6,1.882,1.882,0,0,0-1.325-.528Z" transform="translate(-39.157 -9.927)" fill="#fff"/>
    <path id="Path_17744" data-name="Path 17744" d="M141.46,161.9a.793.793,0,0,1-.322-.066,9,9,0,0,1-4.966-7.251,25.2,25.2,0,0,1,.777-8.542.825.825,0,0,1,1.615.338h0a23.635,23.635,0,0,0-.76,7.98,7.462,7.462,0,0,0,3.974,5.957.824.824,0,0,1-.32,1.584Z" transform="translate(-44.216 -8.212)" fill="#fff"/>
    <path id="Path_17745" data-name="Path 17745" d="M146.867,159.143a.823.823,0,0,1-.8-.622c-.585-2.332-1.082-4.71-1.477-7.062a.823.823,0,0,1,.2-.691c-.466-.013-.933-.016-1.4-.006a.825.825,0,0,1-.033-1.649h0a29.792,29.792,0,0,1,3.639.155,5.016,5.016,0,0,1,3.557,1.511,3.848,3.848,0,0,1,.8,2.056,5.265,5.265,0,0,1-.676,3.146,9.619,9.619,0,0,1-3.367,3.039A.816.816,0,0,1,146.867,159.143Zm-.8-8.31a.816.816,0,0,1,.147.348c.323,1.932.717,3.879,1.174,5.806a6.159,6.159,0,0,0,1.859-1.841,3.594,3.594,0,0,0,.462-2.15,2.252,2.252,0,0,0-.434-1.181,3.64,3.64,0,0,0-2.45-.914c-.251-.026-.5-.048-.759-.068Z" transform="translate(-45.655 -9.042)" fill="#fff"/>
    <path id="Path_17746" data-name="Path 17746" d="M162.232,157.432a7.65,7.65,0,0,1-3.41-.742A4.637,4.637,0,0,1,157.1,155.3a3.17,3.17,0,0,1-.607-2.353,4.108,4.108,0,0,1,2.954-2.935,4.171,4.171,0,0,1,1.6-.341,2.211,2.211,0,0,1,1.813.916,2.267,2.267,0,0,1-.249,2.676,5.041,5.041,0,0,1-1.774,1.236l-1.37.67.092.046a7.068,7.068,0,0,0,4.4.4.825.825,0,0,1,.311,1.621h0A10.916,10.916,0,0,1,162.232,157.432Zm-1.249-6.116a2.809,2.809,0,0,0-.947.233c-.655.253-1.777.8-1.921,1.661a1.4,1.4,0,0,0,.1.728l.03-.015,1.861-.913a3.681,3.681,0,0,0,1.226-.8.7.7,0,0,0,.155-.7.622.622,0,0,0-.48-.19Z" transform="translate(-48.752 -9.166)" fill="#fff"/>
    <path id="Path_17747" data-name="Path 17747" d="M171.224,153.949a4.188,4.188,0,0,1-.744-.066,3.385,3.385,0,0,1-1.747-.835,2.906,2.906,0,0,1-.878-2.254,3.905,3.905,0,0,1,1.363-2.808,6.7,6.7,0,0,1,4.687-1.229.824.824,0,0,1,.792.854h0a.839.839,0,0,1-.855.8,5.116,5.116,0,0,0-3.57.848,2.255,2.255,0,0,0-.767,1.592,1.285,1.285,0,0,0,.361,1,1.767,1.767,0,0,0,.906.41,3.769,3.769,0,0,0,3.851-2.766,9.455,9.455,0,0,0,.259-3.088c-.023-.572-.058-1.146-.107-1.717a19.452,19.452,0,0,1-.277-2.381.825.825,0,0,1,1.64-.162q.171,1.151.274,2.319a47.1,47.1,0,0,0,1.151,4.627,5.86,5.86,0,0,0,1.632,3.172.825.825,0,0,1-1,1.311,6.53,6.53,0,0,1-2.046-3.441A5.563,5.563,0,0,1,171.224,153.949Z" transform="translate(-51.289 -7.332)" fill="#fff"/>
    <path id="Path_17748" data-name="Path 17748" d="M191.685,153.676a2.187,2.187,0,0,1-1.824-1.079l-.033-.054a3.781,3.781,0,0,1-1.391.919,3.064,3.064,0,0,1-3.542-.975,3.736,3.736,0,0,1-.544-1.257,8.368,8.368,0,0,1-.223-3,.825.825,0,0,1,1.64.175,6.748,6.748,0,0,0,.18,2.41,2.239,2.239,0,0,0,.291.714,1.439,1.439,0,0,0,1.623.385,2.764,2.764,0,0,0,1.468-1.561c.028-.068.054-.135.078-.2a9.389,9.389,0,0,1,.466-2.535.824.824,0,0,1,1.6.326,11.261,11.261,0,0,1-.431,2.509v.17a2.138,2.138,0,0,0,.219,1.115c.119.2.333.317.447.285a.826.826,0,0,1,.389,1.605A1.927,1.927,0,0,1,191.685,153.676Z" transform="translate(-54.904 -8.584)" fill="#fff"/>
    <path id="Path_17749" data-name="Path 17749" d="M200.521,151.665a8.075,8.075,0,0,1-.9-.048,3.147,3.147,0,0,1-2.806-1.734,3.067,3.067,0,0,1-.193-1.122,4.787,4.787,0,0,1,.165-1.377,4.567,4.567,0,0,1,2.516-2.813,6.673,6.673,0,0,1,3.544-.5.824.824,0,1,1-.165,1.64h0a5.133,5.133,0,0,0-2.684.354,2.91,2.91,0,0,0-1.618,1.762,3.2,3.2,0,0,0-.1.909,1.562,1.562,0,0,0,.078.525c.216.539,1.166.682,1.45.713a6.792,6.792,0,0,0,3.565-.582.826.826,0,0,1,.686,1.5h0A8.469,8.469,0,0,1,200.521,151.665Z" transform="translate(-57.697 -7.908)" fill="#fff"/>
    <path id="Path_17750" data-name="Path 17750" d="M211.386,149.673a4.648,4.648,0,0,1-2.876-.766,4.168,4.168,0,0,1-1.352-2.159,16.224,16.224,0,0,1-.407-5.478l.106-2.537a.855.855,0,0,1,.86-.792.827.827,0,0,1,.789.86l-.106,2.537a14.754,14.754,0,0,0,.337,4.923,2.6,2.6,0,0,0,.785,1.342,3.707,3.707,0,0,0,2.3.414h.016a.825.825,0,1,1,.016,1.649C211.706,149.669,211.549,149.673,211.386,149.673Z" transform="translate(-59.936 -6.555)" fill="#fff"/>
    <path id="Path_17751" data-name="Path 17751" d="M218.51,149.8h-.1a1.9,1.9,0,0,1-1.567-.777,2.185,2.185,0,0,1-.311-.955q-.3-2.22-.578-4.441a.825.825,0,0,1,1.636-.2q.274,2.214.576,4.421a1.433,1.433,0,0,0,.054.274.851.851,0,0,0,.243.035,1.414,1.414,0,0,0,1.18-.557.825.825,0,1,1,1.331.974l-.018.024h0A3.118,3.118,0,0,1,218.51,149.8Z" transform="translate(-62.002 -7.62)" fill="#fff"/>
    <path id="Path_17752" data-name="Path 17752" d="M209.332,145.447c-.576,0-1.15-.013-1.722-.035a.827.827,0,0,1-.79-.86.855.855,0,0,1,.86-.791c1.1.048,2.209.048,3.306,0a.838.838,0,0,1,.86.791.827.827,0,0,1-.79.86C210.483,145.434,209.908,145.447,209.332,145.447Z" transform="translate(-59.968 -7.851)" fill="#fff"/>
    <path id="Path_17753" data-name="Path 17753" d="M215.965,141.216a1.828,1.828,0,0,1-.4-.044.828.828,0,0,1-.63-.691,1.653,1.653,0,0,1,1.377-1.834.584.584,0,0,1,.11-.01.848.848,0,0,1,.622.193,1.252,1.252,0,0,1,.434.906,1.385,1.385,0,0,1-.379,1.023A1.58,1.58,0,0,1,215.965,141.216Z" transform="translate(-61.773 -6.709)" fill="#fff"/>
    <path id="Path_17754" data-name="Path 17754" d="M224.191,147.962a.824.824,0,0,1-.818-.726c-.523-4.387-.976-8.839-1.346-13.237a.825.825,0,0,1,1.645-.138q.205,2.452.445,4.923a4.427,4.427,0,0,1,2.452-.582,2.7,2.7,0,0,1,1.533.511,3.115,3.115,0,0,1,.777,3.356,10.046,10.046,0,0,1-1.333,3.471,5.533,5.533,0,0,1-3.144,2.4A.831.831,0,0,1,224.191,147.962Zm.107-7.358c.181,1.782.376,3.563.582,5.334a4.351,4.351,0,0,0,1.283-1.3,8.478,8.478,0,0,0,1.1-2.913c.183-.855.12-1.477-.172-1.7a1.154,1.154,0,0,0-.616-.172,2.9,2.9,0,0,0-1.9.61.759.759,0,0,1-.277.147Z" transform="translate(-63.355 -5.482)" fill="#fff"/>
    <path id="Path_17755" data-name="Path 17755" d="M236.99,145.759a2.281,2.281,0,0,1-1.292-.326,2.459,2.459,0,0,1-.92-1.639,44.038,44.038,0,0,1-.6-9.076A.826.826,0,0,1,235,133.9h0a.823.823,0,0,1,.822.825v0h0a42.658,42.658,0,0,0,.567,8.737c.087.432.166.563.219.6a.621.621,0,0,0,.4.05,5.181,5.181,0,0,0,1.514-.233.825.825,0,0,1,.5,1.571h-.006a6.748,6.748,0,0,1-2,.311Z" transform="translate(-66.054 -5.654)" fill="#fff"/>
    <path id="Path_17756" data-name="Path 17756" d="M247.6,146.154c-.155,0-.319,0-.479-.016a6.23,6.23,0,0,1-3.861-1.726,3.668,3.668,0,0,1-1.244-2.6,3.335,3.335,0,0,1,1.054-2.3,7.562,7.562,0,0,1,1.8-1.244,5.144,5.144,0,0,1,1.536-.612,2.421,2.421,0,0,1,2,.473,2.388,2.388,0,0,1,.267,3.144,4.325,4.325,0,0,1-2.274,1.518c-.21.069-.424.134-.637.2a8.449,8.449,0,0,0-1.173.409,4.644,4.644,0,0,0,2.643,1.092,9.939,9.939,0,0,0,2.61-.282.825.825,0,1,1,.311,1.621A13.535,13.535,0,0,1,247.6,146.154Zm-.688-6.891a1.115,1.115,0,0,0-.21.019,3.841,3.841,0,0,0-1.046.437,6.048,6.048,0,0,0-1.42.96,1.745,1.745,0,0,0-.571,1.15,1.135,1.135,0,0,0,.015.185,8.452,8.452,0,0,1,1.621-.607c.194-.058.389-.116.585-.18a2.693,2.693,0,0,0,1.433-.889.8.8,0,0,0,.023-.951.683.683,0,0,0-.431-.122Z" transform="translate(-67.806 -6.479)" fill="#fff"/>
    <path id="Path_17757" data-name="Path 17757" d="M255.458,146.939a.883.883,0,0,1-.777-.5,2.078,2.078,0,0,1,.424-2.061,8.675,8.675,0,0,0,1.5-5.7,7.743,7.743,0,0,0-2.687-5.147,15.1,15.1,0,0,0-1.64-1.14c-.454-.287-.906-.576-1.336-.892a.825.825,0,0,1,.98-1.328c.4.3.82.561,1.239.826a17.038,17.038,0,0,1,1.815,1.267,9.4,9.4,0,0,1,3.272,6.249,10.345,10.345,0,0,1-1.788,6.8,1.98,1.98,0,0,0-.275.5.787.787,0,0,1-.372,1.048l-.03.013A.768.768,0,0,1,255.458,146.939Z" transform="translate(-69.723 -4.789)" fill="#fff"/>
    <path id="Path_17758" data-name="Path 17758" d="M62.038,178.3a.825.825,0,0,1-.078-1.646c57.586-5.7,115.653-13.68,172.582-23.694a.824.824,0,0,1,.3,1.62l-.009,0h-.009c-56.971,10.027-115.077,18-172.706,23.712A.759.759,0,0,1,62.038,178.3Z" transform="translate(-27.542 -9.896)" fill="#fff"/>
    <path id="Path_17759" data-name="Path 17759" d="M73.494,203.168a26,26,0,0,1-3.851-.373.825.825,0,1,1,.243-1.632,12.606,12.606,0,0,0,6.745-.219,1.247,1.247,0,0,0,.447-.288.715.715,0,0,0-.144-.653,4.61,4.61,0,0,0-2.871-1.305l-.428-.094a17.973,17.973,0,0,1-2.94-.947,2.2,2.2,0,0,1-1.074-.822,2.021,2.021,0,0,1,.223-2.191,5.489,5.489,0,0,1,3.792-2.39,3.641,3.641,0,0,1,2.612.528,4.886,4.886,0,0,1,1.618,2.559.826.826,0,1,1-1.517.651.875.875,0,0,1-.037-.107h0a3.5,3.5,0,0,0-1-1.754,2.134,2.134,0,0,0-1.445-.247,3.832,3.832,0,0,0-2.643,1.663.9.9,0,0,0-.181.45c.015,0,.122.061.3.137a16.152,16.152,0,0,0,2.663.855l.414.092a5.8,5.8,0,0,1,3.877,1.984,2.254,2.254,0,0,1,.173,2.469,2.536,2.536,0,0,1-1.173.913A9.352,9.352,0,0,1,73.494,203.168Z" transform="translate(-29.261 -18.638)" fill="#fff"/>
    <path id="Path_17760" data-name="Path 17760" d="M77.066,206.9a1.247,1.247,0,0,1-.617-.169,2.176,2.176,0,0,1-.9-1.477c-.87-5.076-1.625-10.231-2.244-15.324a.825.825,0,0,1,1.639-.2c.616,5.066,1.366,10.2,2.232,15.245a1.088,1.088,0,0,0,.078.246.826.826,0,0,1,.253,1.6A1.315,1.315,0,0,1,77.066,206.9Z" transform="translate(-30.233 -17.93)" fill="#fff"/>
    <path id="Path_17761" data-name="Path 17761" d="M83.7,199.221c-.225,0-.449,0-.673,0a.824.824,0,0,1-.682-1.276,49.444,49.444,0,0,1,5.24-6.723.825.825,0,0,1,1.208,1.125,47.5,47.5,0,0,0-4.205,5.219,53.2,53.2,0,0,0,8.706-.867.825.825,0,0,1,.3,1.623A55.048,55.048,0,0,1,83.7,199.221Z" transform="translate(-32.217 -18.365)" fill="#fff"/>
    <path id="Path_17762" data-name="Path 17762" d="M92.9,203.631H92.9l-.563,0a.825.825,0,0,1-.811-.713,43.651,43.651,0,0,1-.317-8.559.825.825,0,0,1,1.646.1,42.062,42.062,0,0,0,.219,7.54.825.825,0,0,1-.166,1.632Z" transform="translate(-34.201 -18.947)" fill="#fff"/>
    <path id="Path_17763" data-name="Path 17763" d="M100.482,205.593a.826.826,0,0,1-.566-1.427,3.5,3.5,0,0,0,.76-3.837.825.825,0,0,1,1.5-.685v0a5.151,5.151,0,0,1-1.133,5.719A.827.827,0,0,1,100.482,205.593Z" transform="translate(-36.102 -20.189)" fill="#fff"/>
    <path id="Path_17764" data-name="Path 17764" d="M107.75,198.7a2.658,2.658,0,0,1-1.834-.689.825.825,0,1,1,1.109-1.221l.018.017a1.186,1.186,0,0,0,1.029.21,2.926,2.926,0,0,0,1.269-.723,2.72,2.72,0,0,0,.777-.986,1.011,1.011,0,0,0-.006-.86,1.342,1.342,0,0,0-1.026-.49,7.554,7.554,0,0,0-1.01,0c-.291.012-.582.022-.874.015a1,1,0,0,1-1.039-.948,1.016,1.016,0,0,1,.1-.48l1.333-3.207a1.478,1.478,0,0,1,1.317-1.02l2.643-.426a.824.824,0,1,1,.267,1.627h0l-2.643.427-1.02,2.358a7.7,7.7,0,0,1,1.088.016,2.912,2.912,0,0,1,2.274,1.273,2.625,2.625,0,0,1,.125,2.326,4.322,4.322,0,0,1-1.219,1.611,4.458,4.458,0,0,1-2,1.094A3.06,3.06,0,0,1,107.75,198.7Z" transform="translate(-37.436 -17.676)" fill="#fff"/>
    <path id="Path_17765" data-name="Path 17765" d="M120.372,195.251h-.058a3.131,3.131,0,0,1-2.954-1.806,4.262,4.262,0,0,1,.683-4.317,3.28,3.28,0,0,1,3.486-1.052,3.478,3.478,0,0,1,2.716,3.9A3.831,3.831,0,0,1,120.372,195.251Zm-.038-1.649a2.229,2.229,0,0,0,2.277-1.855,1.82,1.82,0,0,0-1.516-2.08h0a1.639,1.639,0,0,0-1.795.529,2.615,2.615,0,0,0-.437,2.565,1.49,1.49,0,0,0,1.477.839Z" transform="translate(-39.977 -17.688)" fill="#fff"/>
    <path id="Path_17766" data-name="Path 17766" d="M134.2,194.737a6.5,6.5,0,0,1-1.7-.243,3.957,3.957,0,0,1-2.254-1.359,3.554,3.554,0,0,1-.651-1.937h0a4.644,4.644,0,0,1,3.841-5.088,4.413,4.413,0,0,1,2.476,8.292A4.282,4.282,0,0,1,134.2,194.737Zm-2.958-3.646a1.97,1.97,0,0,0,.326,1.059,2.449,2.449,0,0,0,1.364.752,3.557,3.557,0,0,0,2.326-.015,2.589,2.589,0,0,0,1.3-2.9,2.539,2.539,0,0,0-2.794-2.255h0l-.078.01a3.024,3.024,0,0,0-2.44,3.351Z" transform="translate(-42.763 -17.278)" fill="#fff"/>
    <path id="Path_17767" data-name="Path 17767" d="M157.042,194.094a1.578,1.578,0,0,1-1.178-.622,16.2,16.2,0,0,1-3.964-6.107,14.759,14.759,0,0,1,.742-8.469.825.825,0,0,1,1.574.5,13.358,13.358,0,0,0-.731,7.518,14.973,14.973,0,0,0,3.611,5.459c.019.025.019.038.006.048a.825.825,0,0,1,.441,1.565A1.179,1.179,0,0,1,157.042,194.094Z" transform="translate(-47.669 -15.551)" fill="#fff"/>
    <path id="Path_17768" data-name="Path 17768" d="M159.963,182.36a.825.825,0,0,1-.061-1.648l4.834-.363a.825.825,0,0,1,.124,1.646l-4.834.363C160,182.36,159.983,182.36,159.963,182.36Z" transform="translate(-49.351 -15.999)" fill="#fff"/>
    <path id="Path_17769" data-name="Path 17769" d="M160.4,193.662a.825.825,0,0,1-.363-1.565,17.692,17.692,0,0,1,6.366-1.823.81.81,0,0,1,.867.748v.028a.825.825,0,0,1-.776.871h0a15.832,15.832,0,0,0-5.735,1.66A.828.828,0,0,1,160.4,193.662Z" transform="translate(-49.445 -18.209)" fill="#fff"/>
    <path id="Path_17770" data-name="Path 17770" d="M171.48,190.3h-.026a.826.826,0,0,1-.763-.584,37.333,37.333,0,0,1-1.208-6.777.825.825,0,0,1,1.639-.193h0c.155,1.333.311,2.693.557,4.029a13.186,13.186,0,0,1,1.859-3.085,2.411,2.411,0,0,1,1.7-1.005,2.1,2.1,0,0,1,1.788,1.045,4.932,4.932,0,0,1,.466,1.064l.1.3a4.281,4.281,0,0,0,2.623,2.633.825.825,0,1,1-.436,1.59l-.03-.009h-.013a5.88,5.88,0,0,1-3.691-3.638l-.119-.341a3.563,3.563,0,0,0-.3-.716c-.113-.18-.281-.287-.325-.272s-.183.037-.5.411a17.133,17.133,0,0,0-2.552,5.018A.826.826,0,0,1,171.48,190.3Z" transform="translate(-51.652 -16.372)" fill="#fff"/>
    <path id="Path_17771" data-name="Path 17771" d="M187.261,188.667a6.664,6.664,0,0,1-1.663-.211.825.825,0,1,1,.416-1.6h0a4.991,4.991,0,0,0,2.366.031,1.322,1.322,0,0,0,.559-.233.743.743,0,0,0-.11-.906,2.244,2.244,0,0,0-1.5-.557l-.193-.01a3.688,3.688,0,0,1-.979-.14,1.766,1.766,0,0,1-1.239-1.261,1.857,1.857,0,0,1,.092-1.016,3.355,3.355,0,0,1,5.61-1.195.826.826,0,0,1-1.168,1.167l-.034-.037h0a1.7,1.7,0,0,0-2.849.607l.078.162a2.48,2.48,0,0,0,.561.065l.218.012a3.748,3.748,0,0,1,2.616,1.088,2.351,2.351,0,0,1,.043,3.2,2.775,2.775,0,0,1-1.333.658A6.684,6.684,0,0,1,187.261,188.667Z" transform="translate(-55.083 -16.037)" fill="#fff"/>
    <path id="Path_17772" data-name="Path 17772" d="M197.1,186.992a3.129,3.129,0,0,1-2.332-.979,4.985,4.985,0,0,1-.864-3.653l.04-.805a.9.9,0,0,1,.866-.822.8.8,0,0,1,.785.805v.023l0,.072-.038.805a3.573,3.573,0,0,0,.442,2.471,1.661,1.661,0,0,0,1.843.274,2.786,2.786,0,0,0,1.384-1.74l.066-2.853a.826.826,0,0,1,.769-.805.81.81,0,0,1,.871.695,7.869,7.869,0,0,1-.061,3.206l-.009.429c-.01.434.023.688.1.756a1.391,1.391,0,0,0,.466.127,3.09,3.09,0,0,1,.962.292.825.825,0,1,1-.766,1.461l-.019-.011h0a1.784,1.784,0,0,0-.462-.117,2.408,2.408,0,0,1-1.277-.518,1.627,1.627,0,0,1-.208-.219,3.867,3.867,0,0,1-1.123.8A3.41,3.41,0,0,1,197.1,186.992Z" transform="translate(-57.079 -15.873)" fill="#fff"/>
    <path id="Path_17773" data-name="Path 17773" d="M210.1,186.049h-.078a.824.824,0,0,1-.741-.9v0a8.006,8.006,0,0,0-.264-2.037c-.389-1.865-.977-4.682,2.021-5.327a2.965,2.965,0,0,1,3.214,1.477.825.825,0,0,1-1.477.738h0a1.309,1.309,0,0,0-1.386-.6c-1.2.26-1.244,1.033-.752,3.38a8.807,8.807,0,0,1,.291,2.532A.824.824,0,0,1,210.1,186.049Z" transform="translate(-60.386 -15.414)" fill="#fff"/>
    <path id="Path_17774" data-name="Path 17774" d="M219.365,184.225a2.853,2.853,0,0,1-.764-.1,3.25,3.25,0,0,1-2.176-2.344,4.388,4.388,0,0,1,.389-2.979,4.163,4.163,0,0,1,2.536-2.254,2.984,2.984,0,0,1,3.373,1.3,1.964,1.964,0,0,0,.672,1.321,3.031,3.031,0,0,0,2.278,3.056.825.825,0,1,1-.328,1.617l-.02,0h0a4.573,4.573,0,0,1-2.672-1.788,4.746,4.746,0,0,1-.354.584A3.7,3.7,0,0,1,219.365,184.225Zm.805-6.141a1.529,1.529,0,0,0-.385.051,2.564,2.564,0,0,0-1.5,1.389,2.742,2.742,0,0,0-.266,1.849,1.6,1.6,0,0,0,1.028,1.158,1.888,1.888,0,0,0,1.894-.86,5.569,5.569,0,0,0,.8-2.643.826.826,0,0,1-.472-.389,1.268,1.268,0,0,0-1.1-.557Z" transform="translate(-62.084 -15.125)" fill="#fff"/>
    <path id="Path_17775" data-name="Path 17775" d="M208.388,181.426a.827.827,0,0,1-.728-.434,2.2,2.2,0,0,0-1.935-1.132.825.825,0,1,1-.1-1.648c.02,0,.04,0,.06,0h.006a3.932,3.932,0,0,1,3.42,2,.823.823,0,0,1-.333,1.115h0A.8.8,0,0,1,208.388,181.426Z" transform="translate(-59.53 -15.523)" fill="#fff"/>
    <path id="Path_17776" data-name="Path 17776" d="M230.244,182.242H230.2a.824.824,0,0,1-.754-.6,37.99,37.99,0,0,1-1.305-7.47.825.825,0,0,1,1.642-.154l0,.035a36.429,36.429,0,0,0,.676,4.8q.668-1.393,1.467-2.71a3.359,3.359,0,0,1,.96-1.119,1.757,1.757,0,0,1,2.006-.043,2.139,2.139,0,0,1,.609.751l.233.426a14.058,14.058,0,0,0,1.244,2.016,3.939,3.939,0,0,0,1.956,1.422.825.825,0,0,1-.419,1.595h0a5.463,5.463,0,0,1-2.832-2,15.37,15.37,0,0,1-1.4-2.247l-.233-.417a1.256,1.256,0,0,0-.134-.213,1.927,1.927,0,0,0-.585.679,30.728,30.728,0,0,0-2.332,4.725A.824.824,0,0,1,230.244,182.242Z" transform="translate(-64.717 -14.423)" fill="#fff"/>
    <path id="Path_17777" data-name="Path 17777" d="M246.979,180.127h-.119a4.063,4.063,0,0,1-3.207-1.374,3.462,3.462,0,0,1-.648-2.755,4.428,4.428,0,0,1,1.292-2.347,5.441,5.441,0,0,1,5.449-1.254.824.824,0,1,1-.526,1.562h0a3.761,3.761,0,0,0-3.764.867,2.822,2.822,0,0,0-.828,1.467,1.8,1.8,0,0,0,.317,1.432,2.505,2.505,0,0,0,1.943.752,5.246,5.246,0,0,0,2.681-.716.825.825,0,1,1,.889,1.389l-.041.025A6.666,6.666,0,0,1,246.979,180.127Z" transform="translate(-68.013 -14.169)" fill="#fff"/>
    <path id="Path_17778" data-name="Path 17778" d="M260.243,179.138c-.3,0-.588-.009-.879-.026a6.637,6.637,0,0,1-3.715-1.155,3.588,3.588,0,0,1-1.389-3.976,4.076,4.076,0,0,1,1.295-1.726,4.9,4.9,0,0,1,4.357-1.272,1.981,1.981,0,0,1,1.564,1.534,2.028,2.028,0,0,1-.117.945,4.845,4.845,0,0,1-4.678,3.206,5.106,5.106,0,0,0,2.78.8,13.449,13.449,0,0,0,2.9-.147.824.824,0,0,1,.267,1.627h0A14.994,14.994,0,0,1,260.243,179.138Zm-1.282-6.626a3.774,3.774,0,0,0-2.34,1,2.538,2.538,0,0,0-.81,1.023,1.513,1.513,0,0,0,.033,1.035.8.8,0,0,1,.839-.556,3.144,3.144,0,0,0,3.109-2.075.639.639,0,0,0,.046-.19.906.906,0,0,0-.353-.172A2.024,2.024,0,0,0,258.961,172.513Z" transform="translate(-70.5 -13.892)" fill="#fff"/>
    <path id="Path_17779" data-name="Path 17779" d="M279.321,176.909a.826.826,0,0,1-.822-.749l-.787-8.486a.826.826,0,0,1,.745-.9.815.815,0,0,1,.9.724v.022l.717,7.746a.7.7,0,0,1,.155.162.79.79,0,0,1-.127,1.107l-.025.018-.272.194A.816.816,0,0,1,279.321,176.909Z" transform="translate(-75.756 -12.975)" fill="#fff"/>
    <path id="Path_17780" data-name="Path 17780" d="M278.84,169.9h-.018l-.429-.01a.824.824,0,0,1-.323-1.574,11.006,11.006,0,0,0,3.071-2.1,2.688,2.688,0,0,0,.916-1.452,14.5,14.5,0,0,0-5.182.691c-.56.178-.881.373-.955.578-.127.356.389,1.01.585,1.252a.825.825,0,0,1-1.292,1.028,3.068,3.068,0,0,1-.845-2.841,2.888,2.888,0,0,1,2-1.589,16.484,16.484,0,0,1,5.936-.763,1.453,1.453,0,0,1,1.01.389,1.37,1.37,0,0,1,.373.835,3.714,3.714,0,0,1-1.4,3.054,12.538,12.538,0,0,1-2.689,1.995A.827.827,0,0,1,278.84,169.9Z" transform="translate(-74.996 -12.157)" fill="#fff"/>
    <path id="Path_17781" data-name="Path 17781" d="M289.442,174.337a1.807,1.807,0,0,1-.194-.009,2.339,2.339,0,0,1-1.925-1.671,4.5,4.5,0,0,1-.071-2.11,5.4,5.4,0,0,1,1.261-2.954,2.81,2.81,0,0,1,3.576-.5,5.6,5.6,0,0,0,.787,1.555c0,.12,0,.243-.009.369a3.972,3.972,0,0,0,.442,1.193,2.963,2.963,0,0,0,1.105,1.458,3.052,3.052,0,0,0,.766.18,5.334,5.334,0,0,1,.985.219.826.826,0,0,1-.557,1.555,3.567,3.567,0,0,0-.675-.142,4.213,4.213,0,0,1-1.214-.315,3.332,3.332,0,0,1-1.363-1.264,4.2,4.2,0,0,1-1.415,1.9A2.532,2.532,0,0,1,289.442,174.337Zm1.244-6.033a1.451,1.451,0,0,0-.982.435,3.9,3.9,0,0,0-.82,2.064,3.048,3.048,0,0,0,.009,1.343.758.758,0,0,0,.52.544.953.953,0,0,0,.553-.216,4.422,4.422,0,0,0,1.251-3.42,2.6,2.6,0,0,1,.018-.522v-.026a.8.8,0,0,1-.113-.069.741.741,0,0,0-.437-.129Z" transform="translate(-77.861 -12.952)" fill="#fff"/>
    <path id="Path_17782" data-name="Path 17782" d="M303.19,180.066a3.914,3.914,0,0,1-.588-.044.825.825,0,0,1,.239-1.632h.007a3.409,3.409,0,0,0,3.235-1.865,7.151,7.151,0,0,0,.584-4.353c-.1-.79-.262-1.564-.439-2.371a4.861,4.861,0,0,1-.616.679,3.591,3.591,0,0,1-3.745.8,5.129,5.129,0,0,1-2.536-4.284.825.825,0,0,1,1.627-.272h0c.2,1.2.556,2.631,1.534,3.037a2.012,2.012,0,0,0,2.008-.5,4.723,4.723,0,0,0,1.244-2.3.813.813,0,0,1,.841-.6.827.827,0,0,1,.769.693c.112.711.267,1.412.422,2.115.2.907.406,1.845.525,2.8a8.745,8.745,0,0,1-.777,5.35A5.14,5.14,0,0,1,303.19,180.066Z" transform="translate(-80.569 -12.811)" fill="#fff"/>
    <path id="Path_17783" data-name="Path 17783" d="M325.951,168.918a3.927,3.927,0,0,1-.427-.023,3.81,3.81,0,0,1-1.817-.738,5.731,5.731,0,0,1-2.187-3.653,8.2,8.2,0,0,1,.4-4.083h0a4.292,4.292,0,0,1,4.151-3.028,3.742,3.742,0,0,1,3.476,3.031c.494,1.97.483,5.553-1.082,7.353A3.222,3.222,0,0,1,325.951,168.918Zm-2.473-7.963a6.656,6.656,0,0,0-.333,3.265,4.068,4.068,0,0,0,1.533,2.6,2.159,2.159,0,0,0,1.021.434,1.619,1.619,0,0,0,1.52-.557c1.1-1.264,1.125-4.275.726-5.87A2.1,2.1,0,0,0,326,159.041,2.678,2.678,0,0,0,323.477,160.954Z" transform="translate(-85.491 -10.887)" fill="#fff"/>
    <path id="Path_17784" data-name="Path 17784" d="M337.984,167.913a1.766,1.766,0,0,1-.249-.012,2.854,2.854,0,0,1-2.231-1.477,4.428,4.428,0,0,1-.422-1.917c-.053-1.054-.061-2.12-.022-3.167a.839.839,0,0,1,.855-.794.823.823,0,0,1,.794.852v0c-.037,1-.03,2.021.022,3.022a3.061,3.061,0,0,0,.233,1.224,1.215,1.215,0,0,0,.929.607,1.328,1.328,0,0,0,1.066-.432,3.085,3.085,0,0,0,.488-.913,15.146,15.146,0,0,0,.92-3.59.837.837,0,0,1,.885-.714.824.824,0,0,1,.759.85,24.011,24.011,0,0,0,.187,3.869,1.219,1.219,0,0,0,.059.288,1.084,1.084,0,0,1,.263.051,2.023,2.023,0,0,1,1.114.571.825.825,0,0,1-1.23,1.1l-.27-.066a2.043,2.043,0,0,1-1.092-.544,1.634,1.634,0,0,1-.341-.566,3.478,3.478,0,0,1-.5.757A2.984,2.984,0,0,1,337.984,167.913Z" transform="translate(-88.524 -11.589)" fill="#fff"/>
    <path id="Path_17785" data-name="Path 17785" d="M350.974,164.628a3.439,3.439,0,0,1-3.329-2.225,8.253,8.253,0,0,1-.582-2.374,40.247,40.247,0,0,1-.287-7.129.805.805,0,0,1,.825-.785h.04a.823.823,0,0,1,.784.861v0h0a38.614,38.614,0,0,0,.274,6.833,6.912,6.912,0,0,0,.452,1.911,2.117,2.117,0,0,0,1.051,1.129,3.866,3.866,0,0,0,1.837.026.825.825,0,0,1,.228,1.632A9.228,9.228,0,0,1,350.974,164.628Z" transform="translate(-91.127 -9.711)" fill="#fff"/>
    <path id="Path_17786" data-name="Path 17786" d="M356.833,167.033a.826.826,0,0,1-.6-1.391,8.229,8.229,0,0,0,1.181-9.24,16.908,16.908,0,0,0-3.879-4.283.825.825,0,0,1,1.088-1.237,18.386,18.386,0,0,1,4.235,4.728,9.809,9.809,0,0,1-1.426,11.162A.822.822,0,0,1,356.833,167.033Z" transform="translate(-92.586 -9.396)" fill="#fff"/>
    <path id="Path_17787" data-name="Path 17787" d="M348.168,161.742h-.155a.825.825,0,0,1,.012-1.649h.147a10.238,10.238,0,0,0,2.844-.407.826.826,0,0,1,.466,1.584h-.007A11.9,11.9,0,0,1,348.168,161.742Z" transform="translate(-91.231 -11.39)" fill="#fff"/>
    <path id="Path_17788" data-name="Path 17788" d="M100.572,223.806a.845.845,0,0,1-.719-.381.814.814,0,0,1,.051-.972,104.038,104.038,0,0,1,8.451-8.628,262.706,262.706,0,0,1-38.568,5.926.791.791,0,0,1-.881-.689h0c0-.022,0-.044,0-.068a.824.824,0,0,1,.756-.886h0a261.313,261.313,0,0,0,41.536-6.652.825.825,0,0,1,.729,1.43,100.478,100.478,0,0,0-8.933,8.592c25.828-6.93,52.4-14.1,78.285-22.446a.825.825,0,0,1,.51,1.569h0c-26.816,8.645-54.356,16.029-80.987,23.174A.946.946,0,0,1,100.572,223.806Z" transform="translate(-29.252 -20.152)" fill="#fff"/>
    <path id="Path_17789" data-name="Path 17789" d="M86.17,284.372a.824.824,0,0,1-.787-.582,23.288,23.288,0,0,1-1.3-6.218,8.463,8.463,0,0,1,2.212-6.257,9.84,9.84,0,0,1,3.5-2.071,41.836,41.836,0,0,1,7.9-1.862c1.611-.27,3.275-.551,4.865-.944a3.322,3.322,0,0,0,1.051-.389,3.73,3.73,0,0,0,.933-1.214,33.132,33.132,0,0,1,16.913-14.557,60.134,60.134,0,0,1,21.054-2.41,18.51,18.51,0,0,1,6,.917,16.037,16.037,0,0,1,4.989,3.707c1.855,1.778,3.607,3.46,5.614,3.621a13.638,13.638,0,0,0,1.894-.038,8.334,8.334,0,0,1,3.687.311c1.861.723,3.166,2.5,3.994,5.441a12.638,12.638,0,0,1,.023,8.244,6.7,6.7,0,0,1-7.043,4.377.824.824,0,0,1,.3-1.62h0a5.1,5.1,0,0,0,5.208-3.37,11.088,11.088,0,0,0-.078-7.183c-.668-2.372-1.678-3.836-3-4.353a6.992,6.992,0,0,0-2.979-.2,14.419,14.419,0,0,1-2.137.035c-2.593-.208-4.644-2.176-6.626-4.075a14.694,14.694,0,0,0-4.431-3.354,16.851,16.851,0,0,0-5.466-.81,58.459,58.459,0,0,0-20.483,2.323,31.776,31.776,0,0,0-15.934,13.7,5.34,5.34,0,0,1-1.5,1.865,4.7,4.7,0,0,1-1.587.629c-1.649.409-3.342.693-4.986.969a40.9,40.9,0,0,0-7.59,1.778,7.954,7.954,0,0,0-2.92,1.7,6.827,6.827,0,0,0-1.724,5.043,19.667,19.667,0,0,0,1.031,5.13c3.532-.361,7.109-.6,10.644-.721a.825.825,0,0,1,.056,1.649c-3.722.124-7.492.389-11.2.782A.792.792,0,0,1,86.17,284.372Z" transform="translate(-32.629 -31.01)" fill="#fff"/>
    <path id="Path_17790" data-name="Path 17790" d="M118.514,273.141a.825.825,0,0,1-.1-1.645,8.972,8.972,0,0,0,2.176-.442,2.482,2.482,0,0,0,1.355-1.136,1.16,1.16,0,0,0-.163-1.289,2.671,2.671,0,0,0-1.821-.287l-2.445.155a.825.825,0,0,1-.1-1.646l2.448-.155a4,4,0,0,1,3.028.71,2.8,2.8,0,0,1,.554,3.206,4.027,4.027,0,0,1-2.247,1.978,10.294,10.294,0,0,1-2.582.544A.887.887,0,0,1,118.514,273.141Z" transform="translate(-39.885 -35.217)" fill="#fff"/>
    <path id="Path_17791" data-name="Path 17791" d="M130.94,266.662a.825.825,0,0,1-.066-1.646,198.081,198.081,0,0,0,24.4-3.5A3.108,3.108,0,0,0,157,260.8c.487-.571.354-1.608-.406-3.171a.825.825,0,0,1,1.485-.721c.686,1.412,1.452,3.463.176,4.962a4.508,4.508,0,0,1-2.643,1.265,199.407,199.407,0,0,1-24.6,3.524A.579.579,0,0,1,130.94,266.662Z" transform="translate(-42.887 -32.949)" fill="#fff"/>
    <path id="Path_17792" data-name="Path 17792" d="M184.683,270.17a.824.824,0,0,1-.18-1.628c1.734-.389,3.5-.855,5.237-1.374a.825.825,0,0,1,.472,1.582h0c-1.775.529-3.576,1-5.347,1.4A.756.756,0,0,1,184.683,270.17Z" transform="translate(-54.854 -35.328)" fill="#fff"/>
    <path id="Path_17793" data-name="Path 17793" d="M84.892,287.811a.825.825,0,0,1-.066-1.646,19.929,19.929,0,0,0,2.374-.389l5.938-1.206a.826.826,0,0,1,.357,1.612l-.023,0h-.006l-5.934,1.2a21.608,21.608,0,0,1-2.571.414A.42.42,0,0,1,84.892,287.811Z" transform="translate(-32.631 -39.206)" fill="#fff"/>
    <path id="Path_17794" data-name="Path 17794" d="M88.3,282.4a.825.825,0,0,1-.03-1.649,11.676,11.676,0,0,0,2.343-.322,3.314,3.314,0,0,0,1.359-.578.938.938,0,0,0,.378-.838.825.825,0,0,1,1.594-.424l.009.04a2.546,2.546,0,0,1-.916,2.481,4.773,4.773,0,0,1-2.037.924,13.74,13.74,0,0,1-2.669.366Z" transform="translate(-33.392 -37.743)" fill="#fff"/>
    <path id="Path_17795" data-name="Path 17795" d="M112.877,296.44a9.378,9.378,0,0,1-1.244-.088,8.694,8.694,0,0,1-3.829-1.391,8.068,8.068,0,0,1-3.253-5.725,11.544,11.544,0,0,1,1.261-6.345,7.838,7.838,0,0,1,2.115-2.8,4.445,4.445,0,0,1,3.643-.964.824.824,0,0,1-.331,1.614l-.01,0h-.009a2.84,2.84,0,0,0-2.275.647,6.252,6.252,0,0,0-1.658,2.234,9.888,9.888,0,0,0-1.1,5.429,6.393,6.393,0,0,0,2.552,4.553,7.087,7.087,0,0,0,3.109,1.114,4.9,4.9,0,0,0,3.735-.777,5.219,5.219,0,0,0,1.014-1.352,7.812,7.812,0,0,0,1.236-4.986,3.731,3.731,0,0,0-2.948-3.23.823.823,0,0,1-.731-.906h0a.812.812,0,0,1,.884-.734h.026a5.35,5.35,0,0,1,4.4,4.623,9.4,9.4,0,0,1-1.433,6.051,6.725,6.725,0,0,1-1.363,1.775A5.657,5.657,0,0,1,112.877,296.44Z" transform="translate(-37.182 -37.983)" fill="#fff"/>
    <path id="Path_17796" data-name="Path 17796" d="M126.624,288.834a.825.825,0,0,1-.246-1.612c8.879-2.776,18.238-3.674,27.288-4.542a.825.825,0,1,1,.194,1.639l-.038,0c-8.968.855-18.241,1.747-26.953,4.474A.842.842,0,0,1,126.624,288.834Z" transform="translate(-41.924 -38.788)" fill="#fff"/>
    <path id="Path_17797" data-name="Path 17797" d="M166.235,288.6a7.306,7.306,0,0,1-5.879-2.808,9.25,9.25,0,0,1-1.567-5.5,8.411,8.411,0,0,1,1.648-5.647,4.6,4.6,0,0,1,5.947-1.129.824.824,0,1,1-.942,1.352h0a3.015,3.015,0,0,0-3.74.836,6.844,6.844,0,0,0-1.264,4.567,7.676,7.676,0,0,0,1.244,4.535,5.8,5.8,0,0,0,4.989,2.127,6.769,6.769,0,0,0,1.29-13.292.826.826,0,0,1-.582-1.01.835.835,0,0,1,1.01-.582,8.42,8.42,0,0,1-1.607,16.532C166.6,288.592,166.417,288.6,166.235,288.6Z" transform="translate(-49.266 -36.416)" fill="#fff"/>
    <path id="Path_17798" data-name="Path 17798" d="M96.928,299.294a.826.826,0,0,1-.218-1.621,154.8,154.8,0,0,1,27.319-4.11c3.225-.291,6.451-.579,9.661-.939,9.059-1.018,18.184-2.631,27.01-4.19,13.058-2.312,26.569-4.7,39.564-8.367a.825.825,0,0,1,.447,1.589c-13.071,3.691-26.621,6.086-39.719,8.4-8.851,1.564-18,3.187-27.113,4.207-3.223.36-6.461.651-9.7.942a153.481,153.481,0,0,0-27.028,4.058A.891.891,0,0,1,96.928,299.294Z" transform="translate(-35.311 -38.202)" fill="#fff"/>
    <path id="Path_17799" data-name="Path 17799" d="M163.953,190.175a.824.824,0,0,1-.823-.8,52.206,52.206,0,0,0-.836-7.7.825.825,0,0,1,1.623-.3,53.981,53.981,0,0,1,.861,7.944.826.826,0,0,1-.8.855h0Z" transform="translate(-50.05 -16.084)" fill="#fff"/>
  </g>
</svg>
